{
.appVersion = "919";
DisplayStrings = (
"\U00E6\U00B4/aeacute"
);
classes = (
{
code = "zero one two three four five six seven eight nine parenleft parenright";
name = standard;
},
{
code = "zerosuperior onesuperior twosuperior threesuperior foursuperior fivesuperior sixsuperior sevensuperior eightsuperior ninesuperior parenleftsuperior parenrightsuperior";
name = sups;
},
{
code = "zeroinferior oneinferior twoinferior threeinferior fourinferior fiveinferior sixinferior seveninferior eightinferior nineinferior parenleftinferior parenrightinferior";
name = subs;
},
{
code = "zero.numerator one.numerator two.numerator three.numerator four.numerator five.numerator six.numerator seven.numerator eight.numerator nine.numerator parenleft.numerator parenright.numerator";
name = numerator;
},
{
code = "zero.denominator one.denominator two.denominator three.denominator four.denominator five.denominator six.denominator seven.denominator eight.denominator nine.denominator parenleft.denominator parenright.denominator";
name = denominator;
},
{
code = "zero.otlf one.otlf two.otlf three.otlf four.otlf five.otlf six.otlf seven.otlf eight.otlf nine.otlf parenleft.otlf parenright.otlf";
name = tnum1;
}
);
copyright = "Copyright (c) 2015 by Hubert & Fischer. All rights reserved.";
customParameters = (
{
name = licenseURL;
value = "http://scripts.sil.org/OFL";
},
{
name = license;
value = "This Font Software is licensed under the SIL Open Font License, Version 1.1. This license is available with a FAQ at: http://scripts.sil.org/OFL";
},
{
name = glyphOrder;
value = (
.null,
CR,
space,
cedilla,
circumflex,
commaaccent,
dieresis,
dotaccent,
hungarumlaut,
grave,
macron,
ogonek,
ring,
tilde,
Acute,
Breve,
Caron,
Cedilla,
Circumflex,
commaaccent.cap,
Dieresis,
Dotaccent,
Hungarumlaut,
Grave,
Macron,
Ogonek,
Ring,
Tilde,
A,
Aacute,
Abreve,
Acircumflex,
Agrave,
Adieresis,
Amacron,
Aogonek,
Aring,
Atilde,
AE,
AEacute,
B,
C,
Cacute,
Ccaron,
Ccedilla,
Ccircumflex,
Cdotaccent,
D,
Dcaron,

glyphs = (
{
glyphname = cedilla;
lastChange = "2016-09-09 11:30:03 +0000";
layers = (
{
layerId = UUID0;
paths = (
{
closed = 1;
nodes = (
"174 -220 OFFCURVE",
"207 -183 OFFCURVE",
"217 -135 CURVE SMOOTH",
"228 -87 OFFCURVE",
"199 -50 OFFCURVE",
"160 -50 CURVE SMOOTH",
"145 -50 OFFCURVE",
"129 -53 OFFCURVE",
"120 -58 CURVE",
"180 27 LINE",
"122 27 LINE",
"70 -53 LINE SMOOTH",
"64 -63 OFFCURVE",
"54 -75 OFFCURVE",
"59 -83 CURVE SMOOTH",
"71 -100 LINE SMOOTH",
"83 -116 OFFCURVE",
"100 -96 OFFCURVE",
"132 -96 CURVE SMOOTH",
"155 -96 OFFCURVE",
"172 -110 OFFCURVE",
"167 -134 CURVE SMOOTH",
"162 -159 OFFCURVE",
"139 -174 OFFCURVE",
"116 -174 CURVE SMOOTH",
"69 -174 OFFCURVE",
"68 -142 OFFCURVE",
"51 -156 CURVE SMOOTH",
"35 -169 LINE SMOOTH",
"15 -184 OFFCURVE",
"59 -220 OFFCURVE",
"116 -220 CURVE SMOOTH"
);
}
);
width = 250;
},
{
layerId = "A0D8A2CD-35BA-4362-A7DB-C0E331BFD9A3";
paths = (
{
closed = 1;
nodes = (
"174 -220 OFFCURVE",
"210 -188 OFFCURVE",
"221 -135 CURVE SMOOTH",
"232 -82 OFFCURVE",
"211 -40 OFFCURVE",
"160 -40 CURVE SMOOTH",
"156 -40 OFFCURVE",
"138 -42 OFFCURVE",
"129 -45 CURVE",
"181 27 LINE",
"105 27 LINE",
"59 -42 LINE SMOOTH",
"46 -61 OFFCURVE",
"46 -69 OFFCURVE",
"53 -78 CURVE SMOOTH",
"74 -106 LINE SMOOTH",
"84 -119 OFFCURVE",
"110 -106 OFFCURVE",
"128 -106 CURVE SMOOTH",
"148 -106 OFFCURVE",
"153 -118 OFFCURVE",
"151 -130 CURVE SMOOTH",
"148 -142 OFFCURVE",
"137 -154 OFFCURVE",
"118 -154 CURVE SMOOTH",
"84 -154 OFFCURVE",
"83 -136 OFFCURVE",
"62 -151 CURVE SMOOTH",
"38 -169 LINE SMOOTH",
"10 -189 OFFCURVE",
"61 -220 OFFCURVE",
"114 -220 CURVE SMOOTH"
);
}
);
width = 254;
}
);
unicode = 00B8;
},
{
glyphname = circumflex;
lastChange = "2016-09-09 11:31:09 +0000";
layers = (
{
layerId = UUID0;
paths = (
{
closed = 1;
nodes = (
"76 595 LINE SMOOTH",
"84 595 OFFCURVE",
"88 598 OFFCURVE",
"95 602 CURVE SMOOTH",
"186 662 LINE",
"251 602 LINE SMOOTH",
"255 598 OFFCURVE",
"260 595 OFFCURVE",
"268 595 CURVE SMOOTH",
"288 595 LINE SMOOTH",
"295 595 OFFCURVE",
"302 600 OFFCURVE",
"303 606 CURVE SMOOTH",
"304 611 OFFCURVE",
"303 616 OFFCURVE",
"299 621 CURVE SMOOTH",
"226 711 LINE SMOOTH",
"215 725 OFFCURVE",
"207 725 OFFCURVE",
"197 725 CURVE SMOOTH",
"187 725 LINE SMOOTH",
"177 725 OFFCURVE",
"169 725 OFFCURVE",
"152 711 CURVE SMOOTH",
"40 620 LINE SMOOTH",
"34 615 OFFCURVE",
"31 609 OFFCURVE",
"31 605 CURVE SMOOTH",
"31 599 OFFCURVE",
"35 595 OFFCURVE",
"42 595 CURVE SMOOTH"
);
}
);
width = 304;
},
{
layerId = "A0D8A2CD-35BA-4362-A7DB-C0E331BFD9A3";
paths = (
{
closed = 1;
nodes = (
"118 595 LINE SMOOTH",
"131 595 OFFCURVE",
"144 595 OFFCURVE",
"159 602 CURVE SMOOTH",
"260 644 LINE",
"343 602 LINE SMOOTH",
"356 595 OFFCURVE",
"369 595 OFFCURVE",
"382 595 CURVE SMOOTH",
"440 595 LINE SMOOTH",
"450 595 OFFCURVE",
"457 601 OFFCURVE",
"459 611 CURVE SMOOTH",
"460 616 OFFCURVE",
"459 621 OFFCURVE",
"457 624 CURVE SMOOTH",
"371 746 LINE SMOOTH",
"361 760 OFFCURVE",
"353 765 OFFCURVE",
"338 765 CURVE SMOOTH",
"218 765 LINE SMOOTH",
"203 765 OFFCURVE",
"193 760 OFFCURVE",
"177 746 CURVE SMOOTH",
"39 624 LINE SMOOTH",
"35 621 OFFCURVE",
"32 616 OFFCURVE",
"31 611 CURVE SMOOTH",
"29 601 OFFCURVE",
"34 595 OFFCURVE",
"44 595 CURVE SMOOTH"
);
}
);
width = 460;
}
);
unicode = 02C6;
},
{
glyphname = dieresis;
lastChange = "2016-09-09 11:30:03 +0000";
layers = (
{
layerId = UUID0;
paths = (
{
closed = 1;
nodes = (
"240 627 LINE SMOOTH",
"253 627 OFFCURVE",
"264 636 OFFCURVE",
"267 649 CURVE SMOOTH",
"276 687 LINE SMOOTH",
"279 700 OFFCURVE",
"270 710 OFFCURVE",
"257 710 CURVE SMOOTH",
"219 710 LINE SMOOTH",
"206 710 OFFCURVE",
"195 700 OFFCURVE",
"193 687 CURVE",
"184 649 LINE",
"182 636 OFFCURVE",
"189 627 OFFCURVE",
"202 627 CURVE SMOOTH"
);
},
{
closed = 1;
nodes = (
"87 627 LINE SMOOTH",
"100 627 OFFCURVE",
"111 636 OFFCURVE",
"114 649 CURVE SMOOTH",
"123 687 LINE SMOOTH",
"126 700 OFFCURVE",
"117 710 OFFCURVE",
"104 710 CURVE SMOOTH",
"66 710 LINE SMOOTH",
"53 710 OFFCURVE",
"42 700 OFFCURVE",
"40 687 CURVE",
"31 649 LINE",
"29 636 OFFCURVE",
"36 627 OFFCURVE",
"49 627 CURVE SMOOTH"
);
}
);
width = 277;
},
{
layerId = "A0D8A2CD-35BA-4362-A7DB-C0E331BFD9A3";
paths = (
{
closed = 1;
nodes = (
"412 595 LINE SMOOTH",
"425 595 OFFCURVE",
"437 605 OFFCURVE",
"440 618 CURVE SMOOTH",
"466 742 LINE SMOOTH",
"469 755 OFFCURVE",
"461 765 OFFCURVE",
"448 765 CURVE SMOOTH",
"324 765 LINE SMOOTH",
"311 765 OFFCURVE",
"299 755 OFFCURVE",
"296 742 CURVE SMOOTH",
"270 618 LINE SMOOTH",
"267 605 OFFCURVE",
"275 595 OFFCURVE",
"288 595 CURVE SMOOTH"
);
},
{
closed = 1;
nodes = (
"173 595 LINE SMOOTH",
"186 595 OFFCURVE",
"198 605 OFFCURVE",
"201 618 CURVE SMOOTH",
"227 742 LINE SMOOTH",
"230 755 OFFCURVE",
"222 765 OFFCURVE",
"209 765 CURVE SMOOTH",
"85 765 LINE SMOOTH",
"72 765 OFFCURVE",
"60 755 OFFCURVE",
"57 742 CURVE SMOOTH",
"31 618 LINE SMOOTH",
"28 605 OFFCURVE",
"36 595 OFFCURVE",
"49 595 CURVE SMOOTH"
);
}
);
width = 467;
}
);
unicode = 00A8;
},
{
glyphname = dotaccent;
lastChange = "2016-09-09 11:30:03 +0000";
layers = (
{
layerId = UUID0;
paths = (
{
closed = 1;
nodes = (
"97 617 LINE SMOOTH",
"110 617 OFFCURVE",
"121 626 OFFCURVE",
"124 639 CURVE",
"135 687 LINE",
"138 700 OFFCURVE",
"129 710 OFFCURVE",
"116 710 CURVE SMOOTH",
"68 710 LINE SMOOTH",
"55 710 OFFCURVE",
"45 700 OFFCURVE",
"42 687 CURVE SMOOTH",
"31 639 LINE SMOOTH",
"28 626 OFFCURVE",
"36 617 OFFCURVE",
"49 617 CURVE"
);
}
);
width = 136;
},
{
layerId = "A0D8A2CD-35BA-4362-A7DB-C0E331BFD9A3";
paths = (
{
closed = 1;
nodes = (
"180 595 LINE SMOOTH",
"193 595 OFFCURVE",
"205 605 OFFCURVE",
"208 618 CURVE SMOOTH",
"236 749 LINE SMOOTH",
"238 762 OFFCURVE",
"231 772 OFFCURVE",
"218 772 CURVE SMOOTH",
"87 772 LINE SMOOTH",
"74 772 OFFCURVE",
"61 762 OFFCURVE",
"59 749 CURVE SMOOTH",
"31 618 LINE SMOOTH",
"28 605 OFFCURVE",
"36 595 OFFCURVE",
"49 595 CURVE SMOOTH"
);
}
);
width = 237;
}
);
unicode = 02D9;
},
{
glyphname = hungarumlaut;
lastChange = "2016-09-09 11:31:30 +0000";
layers = (
{
layerId = UUID0;
paths = (
{
closed = 1;
nodes = (
"197 595 LINE SMOOTH",
"210 595 OFFCURVE",
"220 600 OFFCURVE",
"230 609 CURVE SMOOTH",
"321 695 LINE SMOOTH",
"326 700 OFFCURVE",
"328 706 OFFCURVE",
"328 711 CURVE SMOOTH",
"328 719 OFFCURVE",
"323 725 OFFCURVE",
"312 725 CURVE SMOOTH",
"277 725 LINE SMOOTH",
"256 725 OFFCURVE",
"244 719 OFFCURVE",
"236 706 CURVE SMOOTH",
"178 619 LINE SMOOTH",
"175 615 OFFCURVE",
"173 610 OFFCURVE",
"173 606 CURVE SMOOTH",
"173 600 OFFCURVE",
"177 595 OFFCURVE",
"187 595 CURVE SMOOTH"
);
},
{
closed = 1;
nodes = (
"54 595 LINE SMOOTH",
"67 595 OFFCURVE",
"77 600 OFFCURVE",
"87 609 CURVE SMOOTH",
"178 695 LINE SMOOTH",
"183 700 OFFCURVE",
"185 706 OFFCURVE",
"185 711 CURVE SMOOTH",
"185 719 OFFCURVE",
"180 725 OFFCURVE",
"169 725 CURVE SMOOTH",
"134 725 LINE SMOOTH",
"113 725 OFFCURVE",
"101 719 OFFCURVE",
"93 706 CURVE SMOOTH",
"35 619 LINE SMOOTH",
"32 615 OFFCURVE",
"30 610 OFFCURVE",
"30 606 CURVE SMOOTH",
"30 600 OFFCURVE",
"34 595 OFFCURVE",
"44 595 CURVE SMOOTH"
);
}
);
width = 329;
},
{
layerId = "A0D8A2CD-35BA-4362-A7DB-C0E331BFD9A3";
paths = (
{
closed = 1;
nodes = (
"393 595 LINE SMOOTH",
"406 595 OFFCURVE",
"420 600 OFFCURVE",
"430 609 CURVE SMOOTH",
"570 733 LINE SMOOTH",
"574 736 OFFCURVE",
"578 741 OFFCURVE",
"579 746 CURVE SMOOTH",
"582 758 OFFCURVE",
"575 765 OFFCURVE",
"563 765 CURVE SMOOTH",
"416 765 LINE SMOOTH",
"395 765 OFFCURVE",
"384 759 OFFCURVE",
"375 746 CURVE SMOOTH",
"296 626 LINE SMOOTH",
"293 622 OFFCURVE",
"288 616 OFFCURVE",
"287 611 CURVE SMOOTH",
"285 601 OFFCURVE",
"290 595 OFFCURVE",
"300 595 CURVE SMOOTH"
);
},
{
closed = 1;
nodes = (
"137 595 LINE SMOOTH",
"150 595 OFFCURVE",
"164 600 OFFCURVE",
"174 609 CURVE SMOOTH",
"314 733 LINE SMOOTH",
"318 736 OFFCURVE",
"322 741 OFFCURVE",
"323 746 CURVE SMOOTH",
"326 758 OFFCURVE",
"319 765 OFFCURVE",
"307 765 CURVE SMOOTH",
"160 765 LINE SMOOTH",
"139 765 OFFCURVE",
"128 759 OFFCURVE",
"119 746 CURVE SMOOTH",
"40 626 LINE SMOOTH",
"37 622 OFFCURVE",
"32 616 OFFCURVE",
"31 611 CURVE SMOOTH",
"29 601 OFFCURVE",
"34 595 OFFCURVE",
"44 595 CURVE SMOOTH"
);
}
);
width = 580;
}
);
unicode = 02DD;
},
{
glyphname = grave;
lastChange = "2016-09-09 11:31:40 +0000";
layers = (
{
layerId = UUID0;
paths = (
{
closed = 1;
nodes = (
"162 595 LINE SMOOTH",
"172 595 OFFCURVE",
"179 602 OFFCURVE",
"181 610 CURVE SMOOTH",
"182 615 OFFCURVE",
"181 621 OFFCURVE",
"178 626 CURVE SMOOTH",
"128 707 LINE",
"120 720 OFFCURVE",
"115 725 OFFCURVE",
"95 725 CURVE SMOOTH",
"52 725 LINE SMOOTH",
"42 725 OFFCURVE",
"33 717 OFFCURVE",
"31 707 CURVE SMOOTH",
"30 702 OFFCURVE",
"31 696 OFFCURVE",
"36 691 CURVE SMOOTH",
"123 605 LINE SMOOTH",
"132 596 OFFCURVE",
"139 595 OFFCURVE",
"152 595 CURVE"
);
}
);
width = 182;
},
{
layerId = "A0D8A2CD-35BA-4362-A7DB-C0E331BFD9A3";
paths = (
{
closed = 1;
nodes = (
"340 595 LINE SMOOTH",
"350 595 OFFCURVE",
"357 601 OFFCURVE",
"359 611 CURVE SMOOTH",
"360 616 OFFCURVE",
"359 621 OFFCURVE",
"357 624 CURVE SMOOTH",
"283 746 LINE",
"272 763 OFFCURVE",
"265 765 OFFCURVE",
"250 765 CURVE SMOOTH",
"54 765 LINE SMOOTH",
"42 765 OFFCURVE",
"33 757 OFFCURVE",
"31 745 CURVE SMOOTH",
"30 740 OFFCURVE",
"31 736 OFFCURVE",
"33 733 CURVE SMOOTH",
"155 612 LINE SMOOTH",
"164 603 OFFCURVE",
"172 595 OFFCURVE",
"193 595 CURVE SMOOTH"
);
}
);
width = 360;
}
);
unicode = 0060;
},
{
glyphname = macron;
lastChange = "2016-09-09 11:30:02 +0000";
layers = (
{
layerId = UUID0;
paths = (
{
closed = 1;
nodes = (
"248 622 LINE SMOOTH",
"261 622 OFFCURVE",
"272 631 OFFCURVE",
"274 644 CURVE SMOOTH",
"277 658 LINE SMOOTH",
"280 671 OFFCURVE",
"273 680 OFFCURVE",
"260 680 CURVE SMOOTH",
"61 680 LINE SMOOTH",
"48 680 OFFCURVE",
"37 671 OFFCURVE",
"34 658 CURVE SMOOTH",
"31 644 LINE SMOOTH",
"29 631 OFFCURVE",
"36 622 OFFCURVE",
"49 622 CURVE SMOOTH"
);
}
);
width = 278;
},
{
layerId = "A0D8A2CD-35BA-4362-A7DB-C0E331BFD9A3";
paths = (
{
closed = 1;
nodes = (
"376 595 LINE SMOOTH",
"389 595 OFFCURVE",
"401 605 OFFCURVE",
"404 618 CURVE SMOOTH",
"426 722 LINE SMOOTH",
"429 735 OFFCURVE",
"421 745 OFFCURVE",
"408 745 CURVE SMOOTH",
"81 745 LINE SMOOTH",
"68 745 OFFCURVE",
"56 735 OFFCURVE",
"53 722 CURVE SMOOTH",
"31 618 LINE SMOOTH",
"28 605 OFFCURVE",
"36 595 OFFCURVE",
"49 595 CURVE SMOOTH"
);
}
);
width = 427;
}
);
unicode = 00AF;
},
{
glyphname = ogonek;
lastChange = "2016-09-09 11:30:02 +0000";
layers = (
{
layerId = UUID0;
paths = (
{
closed = 1;
nodes = (
"155 -220 LINE SMOOTH",
"169 -220 OFFCURVE",
"175 -216 OFFCURVE",
"179 -203 CURVE SMOOTH",
"184 -185 LINE",
"187 -172 OFFCURVE",
"180 -163 OFFCURVE",
"167 -163 CURVE",
"149 -163 LINE SMOOTH",
"115 -163 OFFCURVE",
"82 -133 OFFCURVE",
"93 -82 CURVE SMOOTH",
"104 -31 OFFCURVE",
"150 0 OFFCURVE",
"194 0 CURVE SMOOTH",
"202 0 LINE SMOOTH",
"215 0 OFFCURVE",
"225 9 OFFCURVE",
"228 22 CURVE SMOOTH",
"231 35 LINE SMOOTH",
"234 48 OFFCURVE",
"227 57 OFFCURVE",
"214 57 CURVE SMOOTH",
"194 57 LINE SMOOTH",
"113 57 OFFCURVE",
"48 3 OFFCURVE",
"33 -82 CURVE SMOOTH",
"18 -167 OFFCURVE",
"78 -220 OFFCURVE",
"149 -220 CURVE SMOOTH"
);
}
);
width = 232;
},
{
layerId = "A0D8A2CD-35BA-4362-A7DB-C0E331BFD9A3";
paths = (
{
closed = 1;
nodes = (
"185 -220 LINE SMOOTH",
"200 -220 OFFCURVE",
"214 -208 OFFCURVE",
"217 -193 CURVE SMOOTH",
"232 -125 LINE SMOOTH",
"235 -110 OFFCURVE",
"226 -98 OFFCURVE",
"211 -98 CURVE SMOOTH",
"201 -98 LINE SMOOTH",
"162 -98 OFFCURVE",
"157 -70 OFFCURVE",
"161 -49 CURVE SMOOTH",
"166 -28 OFFCURVE",
"183 0 OFFCURVE",
"222 0 CURVE SMOOTH",
"232 0 LINE SMOOTH",
"247 0 OFFCURVE",
"261 12 OFFCURVE",
"264 27 CURVE SMOOTH",
"279 95 LINE SMOOTH",
"282 110 OFFCURVE",
"272 122 OFFCURVE",
"257 122 CURVE SMOOTH",
"213 122 LINE SMOOTH",
"102 122 OFFCURVE",
"55 56 OFFCURVE",
"35 -39 CURVE SMOOTH",
"15 -134 OFFCURVE",
"60 -220 OFFCURVE",
"181 -220 CURVE SMOOTH"
);
}
);
width = 280;
}
);
unicode = 02DB;
},
{
glyphname = ring;
lastChange = "2016-09-09 11:30:03 +0000";
layers = (
{
layerId = UUID0;
paths = (
{
closed = 1;
nodes = (
"142 590 OFFCURVE",
"181 620 OFFCURVE",
"191 665 CURVE SMOOTH",
"201 709 OFFCURVE",
"168 740 OFFCURVE",
"124 740 CURVE SMOOTH",
"80 740 OFFCURVE",
"41 709 OFFCURVE",
"31 665 CURVE SMOOTH",
"21 622 OFFCURVE",
"54 590 OFFCURVE",
"98 590 CURVE SMOOTH"
);
},
{
closed = 1;
nodes = (
"85 635 OFFCURVE",
"77 648 OFFCURVE",
"81 665 CURVE SMOOTH",
"85 682 OFFCURVE",
"100 695 OFFCURVE",
"120 695 CURVE SMOOTH",
"139 695 OFFCURVE",
"145 682 OFFCURVE",
"141 665 CURVE SMOOTH",
"137 648 OFFCURVE",
"121 635 OFFCURVE",
"101 635 CURVE SMOOTH"
);
}
);
width = 194;
},
{
layerId = "A0D8A2CD-35BA-4362-A7DB-C0E331BFD9A3";
paths = (
{
closed = 1;
nodes = (
"168 590 OFFCURVE",
"221 630 OFFCURVE",
"233 685 CURVE SMOOTH",
"245 740 OFFCURVE",
"208 780 OFFCURVE",
"153 780 CURVE SMOOTH",
"98 780 OFFCURVE",
"45 740 OFFCURVE",
"33 685 CURVE SMOOTH",
"21 630 OFFCURVE",
"58 590 OFFCURVE",
"113 590 CURVE SMOOTH"
);
},
{
closed = 1;
nodes = (
"110 655 OFFCURVE",
"99 668 OFFCURVE",
"103 685 CURVE SMOOTH",
"107 702 OFFCURVE",
"122 715 OFFCURVE",
"139 715 CURVE SMOOTH",
"156 715 OFFCURVE",
"167 702 OFFCURVE",
"163 685 CURVE SMOOTH",
"159 668 OFFCURVE",
"144 655 OFFCURVE",
"127 655 CURVE SMOOTH"
);
}
);
width = 236;
}
);
unicode = 02DA;
},
{
glyphname = tilde;
lastChange = "2016-09-09 11:28:50 +0000";
layers = (
{
layerId = UUID0;
paths = (
{
closed = 1;
nodes = (
"239 590 OFFCURVE",
"277 626 OFFCURVE",
"282 664 CURVE",
"283 672 OFFCURVE",
"279 680 OFFCURVE",
"269 680 CURVE SMOOTH",
"249 680 LINE SMOOTH",
"227 680 OFFCURVE",
"223 650 OFFCURVE",
"199 650 CURVE SMOOTH",
"170 650 OFFCURVE",
"162 684 OFFCURVE",
"115 684 CURVE SMOOTH",
"74 684 OFFCURVE",
"36 649 OFFCURVE",
"31 611 CURVE SMOOTH",
"30 603 OFFCURVE",
"34 595 OFFCURVE",
"44 595 CURVE SMOOTH",
"64 595 LINE SMOOTH",
"85 595 OFFCURVE",
"92 624 OFFCURVE",
"115 624 CURVE SMOOTH",
"143 624 OFFCURVE",
"153 590 OFFCURVE",
"199 590 CURVE SMOOTH"
);
}
);
width = 283;
},
{
layerId = "A0D8A2CD-35BA-4362-A7DB-C0E331BFD9A3";
paths = (
{
closed = 1;
nodes = (
"416 590 OFFCURVE",
"456 700 OFFCURVE",
"466 746 CURVE SMOOTH",
"468 756 OFFCURVE",
"463 765 OFFCURVE",
"451 765 CURVE SMOOTH",
"367 765 LINE SMOOTH",
"345 765 OFFCURVE",
"341 734 OFFCURVE",
"311 734 CURVE SMOOTH",
"272 734 OFFCURVE",
"250 770 OFFCURVE",
"190 770 CURVE SMOOTH",
"80 770 OFFCURVE",
"41 659 OFFCURVE",
"31 613 CURVE SMOOTH",
"29 603 OFFCURVE",
"36 595 OFFCURVE",
"46 595 CURVE SMOOTH",
"130 595 LINE SMOOTH",
"152 595 OFFCURVE",
"156 626 OFFCURVE",
"187 626 CURVE SMOOTH",
"226 626 OFFCURVE",
"247 590 OFFCURVE",
"307 590 CURVE SMOOTH"
);
}
);
width = 467;
}
);
unicode = 02DC;
},
{
glyphname = Breve;
lastChange = "2016-09-09 11:28:50 +0000";
layers = (
{
layerId = UUID0;
paths = (
{
closed = 1;
nodes = (
"20 799 OFFCURVE",
"46 740 OFFCURVE",
"129 740 CURVE SMOOTH",
"217 740 OFFCURVE",
"250 799 OFFCURVE",
"262 856 CURVE",
"264 866 OFFCURVE",
"259 875 OFFCURVE",
"247 875 CURVE SMOOTH",
"232 875 LINE SMOOTH",
"220 875 OFFCURVE",
"212 866 OFFCURVE",
"209 856 CURVE",
"200 824 OFFCURVE",
"177 790 OFFCURVE",
"131 790 CURVE SMOOTH",
"85 790 OFFCURVE",
"79 824 OFFCURVE",
"85 856 CURVE SMOOTH",
"87 866 OFFCURVE",
"82 875 OFFCURVE",
"70 875 CURVE SMOOTH",
"55 875 LINE",
"43 875 OFFCURVE",
"34 866 OFFCURVE",
"32 856 CURVE SMOOTH"
);
}
);
width = 264;
},
{
layerId = "A0D8A2CD-35BA-4362-A7DB-C0E331BFD9A3";
paths = (
{
closed = 1;
nodes = (
"245 871 OFFCURVE",
"231 846 OFFCURVE",
"199 846 CURVE SMOOTH",
"167 846 OFFCURVE",
"165 871 OFFCURVE",
"171 901 CURVE SMOOTH",
"173 911 OFFCURVE",
"168 920 OFFCURVE",
"156 920 CURVE SMOOTH",
"57 920 LINE SMOOTH",
"45 920 OFFCURVE",
"36 911 OFFCURVE",
"34 901 CURVE SMOOTH",
"15 811 OFFCURVE",
"78 745 OFFCURVE",
"188 745 CURVE SMOOTH",
"318 745 OFFCURVE",
"369 811 OFFCURVE",
"388 901 CURVE SMOOTH",
"390 911 OFFCURVE",
"385 920 OFFCURVE",
"373 920 CURVE SMOOTH",
"274 920 LINE SMOOTH",
"262 920 OFFCURVE",
"253 911 OFFCURVE",
"251 901 CURVE SMOOTH"
);
}
);
width = 389;
}
);
},
{
glyphname = Cedilla;
lastChange = "2016-09-09 11:28:50 +0000";
layers = (
{
layerId = UUID0;
paths = (
{
closed = 1;
nodes = (
"122 27 LINE",
"70 -53 LINE SMOOTH",
"64 -63 OFFCURVE",
"54 -75 OFFCURVE",
"59 -83 CURVE SMOOTH",
"71 -100 LINE SMOOTH",
"83 -116 OFFCURVE",
"100 -96 OFFCURVE",
"132 -96 CURVE SMOOTH",
"155 -96 OFFCURVE",
"172 -110 OFFCURVE",
"167 -134 CURVE SMOOTH",
"162 -159 OFFCURVE",
"139 -174 OFFCURVE",
"116 -174 CURVE SMOOTH",
"69 -174 OFFCURVE",
"68 -142 OFFCURVE",
"51 -156 CURVE SMOOTH",
"35 -169 LINE SMOOTH",
"15 -184 OFFCURVE",
"59 -220 OFFCURVE",
"116 -220 CURVE SMOOTH",
"174 -220 OFFCURVE",
"207 -183 OFFCURVE",
"217 -135 CURVE SMOOTH",
"228 -87 OFFCURVE",
"199 -50 OFFCURVE",
"160 -50 CURVE SMOOTH",
"145 -50 OFFCURVE",
"129 -53 OFFCURVE",
"120 -58 CURVE",
"180 27 LINE"
);
}
);
width = 250;
},
{
layerId = "A0D8A2CD-35BA-4362-A7DB-C0E331BFD9A3";
paths = (
{
closed = 1;
nodes = (
"105 27 LINE",
"59 -42 LINE SMOOTH",
"46 -61 OFFCURVE",
"46 -69 OFFCURVE",
"53 -78 CURVE SMOOTH",
"74 -106 LINE SMOOTH",
"84 -119 OFFCURVE",
"110 -106 OFFCURVE",
"128 -106 CURVE SMOOTH",
"148 -106 OFFCURVE",
"153 -118 OFFCURVE",
"151 -130 CURVE SMOOTH",
"148 -142 OFFCURVE",
"137 -154 OFFCURVE",
"118 -154 CURVE SMOOTH",
"84 -154 OFFCURVE",
"83 -136 OFFCURVE",
"62 -151 CURVE SMOOTH",
"38 -169 LINE SMOOTH",
"10 -189 OFFCURVE",
"61 -220 OFFCURVE",
"114 -220 CURVE SMOOTH",
"174 -220 OFFCURVE",
"210 -188 OFFCURVE",
"221 -135 CURVE SMOOTH",
"232 -82 OFFCURVE",
"211 -40 OFFCURVE",
"160 -40 CURVE SMOOTH",
"156 -40 OFFCURVE",
"138 -42 OFFCURVE",
"129 -45 CURVE",
"181 27 LINE"
);
}
);
width = 254;
}
);
},
{
glyphname = Dieresis;
lastChange = "2016-09-09 11:28:50 +0000";
layers = (
{
layerId = UUID0;
paths = (
{
closed = 1;
nodes = (
"305 810 LINE SMOOTH",
"308 823 OFFCURVE",
"300 833 OFFCURVE",
"287 833 CURVE SMOOTH",
"249 833 LINE SMOOTH",
"236 833 OFFCURVE",
"225 823 OFFCURVE",
"222 810 CURVE SMOOTH",
"214 772 LINE SMOOTH",
"211 759 OFFCURVE",
"218 750 OFFCURVE",
"231 750 CURVE SMOOTH",
"269 750 LINE SMOOTH",
"282 750 OFFCURVE",
"294 759 OFFCURVE",
"297 772 CURVE SMOOTH"
);
},
{
closed = 1;
nodes = (
"122 810 LINE SMOOTH",
"125 823 OFFCURVE",
"117 833 OFFCURVE",
"104 833 CURVE SMOOTH",
"66 833 LINE SMOOTH",
"53 833 OFFCURVE",
"42 823 OFFCURVE",
"39 810 CURVE SMOOTH",
"31 772 LINE SMOOTH",
"28 759 OFFCURVE",
"35 750 OFFCURVE",
"48 750 CURVE SMOOTH",
"86 750 LINE SMOOTH",
"99 750 OFFCURVE",
"111 759 OFFCURVE",
"114 772 CURVE SMOOTH"
);
}
);
width = 306;
},
{
layerId = "A0D8A2CD-35BA-4362-A7DB-C0E331BFD9A3";
paths = (
{
closed = 1;
nodes = (
"354 920 LINE SMOOTH",
"341 920 OFFCURVE",
"329 910 OFFCURVE",
"326 897 CURVE SMOOTH",
"300 773 LINE SMOOTH",
"297 760 OFFCURVE",
"305 750 OFFCURVE",
"318 750 CURVE SMOOTH",
"442 750 LINE SMOOTH",
"455 750 OFFCURVE",
"467 760 OFFCURVE",
"470 773 CURVE SMOOTH",
"496 897 LINE SMOOTH",
"499 910 OFFCURVE",
"491 920 OFFCURVE",
"478 920 CURVE SMOOTH"
);
},
{
closed = 1;
nodes = (
"85 920 LINE SMOOTH",
"72 920 OFFCURVE",
"60 910 OFFCURVE",
"57 897 CURVE SMOOTH",
"31 773 LINE SMOOTH",
"28 760 OFFCURVE",
"36 750 OFFCURVE",
"49 750 CURVE SMOOTH",
"173 750 LINE SMOOTH",
"186 750 OFFCURVE",
"198 760 OFFCURVE",
"201 773 CURVE SMOOTH",
"227 897 LINE SMOOTH",
"230 910 OFFCURVE",
"222 920 OFFCURVE",
"209 920 CURVE SMOOTH"
);
}
);
width = 497;
}
);
unicode = F6CB;
},
{
glyphname = Dotaccent;
lastChange = "2016-09-09 11:28:50 +0000";
layers = (
{
layerId = UUID0;
paths = (
{
closed = 1;
nodes = (
"134 820 LINE",
"137 833 OFFCURVE",
"129 843 OFFCURVE",
"116 843 CURVE SMOOTH",
"68 843 LINE SMOOTH",
"55 843 OFFCURVE",
"44 833 OFFCURVE",
"41 820 CURVE SMOOTH",
"31 772 LINE SMOOTH",
"28 759 OFFCURVE",
"35 750 OFFCURVE",
"48 750 CURVE SMOOTH",
"96 750 LINE",
"109 750 OFFCURVE",
"121 759 OFFCURVE",
"124 772 CURVE"
);
}
);
width = 135;
},
{
layerId = "A0D8A2CD-35BA-4362-A7DB-C0E331BFD9A3";
paths = (
{
closed = 1;
nodes = (
"88 932 LINE",
"75 932 OFFCURVE",
"62 922 OFFCURVE",
"60 909 CURVE SMOOTH",
"31 773 LINE SMOOTH",
"28 760 OFFCURVE",
"36 750 OFFCURVE",
"49 750 CURVE SMOOTH",
"185 750 LINE SMOOTH",
"198 750 OFFCURVE",
"210 760 OFFCURVE",
"213 773 CURVE SMOOTH",
"242 909 LINE SMOOTH",
"244 922 OFFCURVE",
"237 932 OFFCURVE",
"224 932 CURVE SMOOTH"
);
}
);
width = 243;
}
);
},
{
glyphname = Macron;
lastChange = "2016-09-09 11:28:50 +0000";
layers = (
{
layerId = UUID0;
paths = (
{
closed = 1;
nodes = (
"247 750 LINE SMOOTH",
"260 750 OFFCURVE",
"272 759 OFFCURVE",
"274 772 CURVE SMOOTH",
"278 794 LINE",
"280 807 OFFCURVE",
"274 816 OFFCURVE",
"261 816 CURVE SMOOTH",
"62 816 LINE SMOOTH",
"49 816 OFFCURVE",
"37 807 OFFCURVE",
"35 794 CURVE SMOOTH",
"31 772 LINE",
"29 759 OFFCURVE",
"35 750 OFFCURVE",
"48 750 CURVE SMOOTH"
);
}
);
width = 279;
},
{
layerId = "A0D8A2CD-35BA-4362-A7DB-C0E331BFD9A3";
paths = (
{
closed = 1;
nodes = (
"354 900 LINE SMOOTH",
"341 900 OFFCURVE",
"329 890 OFFCURVE",
"326 877 CURVE SMOOTH",
"304 773 LINE SMOOTH",
"301 760 OFFCURVE",
"309 750 OFFCURVE",
"322 750 CURVE SMOOTH",
"699 750 LINE SMOOTH",
"712 750 OFFCURVE",
"724 760 OFFCURVE",
"727 773 CURVE SMOOTH",
"749 877 LINE SMOOTH",
"752 890 OFFCURVE",
"744 900 OFFCURVE",
"731 900 CURVE SMOOTH"
);
}
);
width = 750;
}
);
unicode = F6D0;
},
{
glyphname = Ogonek;
lastChange = "2016-09-09 11:28:50 +0000";
layers = (
{
layerId = UUID0;
paths = (
{
closed = 1;
nodes = (
"155 -220 LINE SMOOTH",
"169 -220 OFFCURVE",
"175 -216 OFFCURVE",
"179 -203 CURVE SMOOTH",
"184 -185 LINE SMOOTH",
"187 -172 OFFCURVE",
"180 -163 OFFCURVE",
"167 -163 CURVE SMOOTH",
"149 -163 LINE SMOOTH",
"115 -163 OFFCURVE",
"82 -133 OFFCURVE",
"93 -82 CURVE SMOOTH",
"104 -31 OFFCURVE",
"150 0 OFFCURVE",
"194 0 CURVE SMOOTH",
"202 0 LINE SMOOTH",
"215 0 OFFCURVE",
"225 9 OFFCURVE",
"228 22 CURVE SMOOTH",
"231 35 LINE SMOOTH",
"234 48 OFFCURVE",
"227 57 OFFCURVE",
"214 57 CURVE SMOOTH",
"194 57 LINE SMOOTH",
"113 57 OFFCURVE",
"48 3 OFFCURVE",
"33 -82 CURVE SMOOTH",
"18 -167 OFFCURVE",
"78 -220 OFFCURVE",
"149 -220 CURVE SMOOTH"
);
}
);
width = 232;
},
{
layerId = "A0D8A2CD-35BA-4362-A7DB-C0E331BFD9A3";
paths = (
{
closed = 1;
nodes = (
"211 -98 LINE SMOOTH",
"226 -98 OFFCURVE",
"235 -110 OFFCURVE",
"232 -125 CURVE SMOOTH",
"217 -193 LINE SMOOTH",
"214 -208 OFFCURVE",
"200 -220 OFFCURVE",
"185 -220 CURVE SMOOTH",
"181 -220 LINE SMOOTH",
"60 -220 OFFCURVE",
"15 -134 OFFCURVE",
"35 -39 CURVE SMOOTH",
"55 56 OFFCURVE",
"112 122 OFFCURVE",
"223 122 CURVE SMOOTH",
"257 122 LINE SMOOTH",
"272 122 OFFCURVE",
"282 110 OFFCURVE",
"279 95 CURVE SMOOTH",
"264 27 LINE SMOOTH",
"261 12 OFFCURVE",
"247 0 OFFCURVE",
"232 0 CURVE SMOOTH",
"222 0 LINE SMOOTH",
"183 0 OFFCURVE",
"166 -28 OFFCURVE",
"161 -49 CURVE SMOOTH",
"157 -70 OFFCURVE",
"162 -98 OFFCURVE",
"201 -98 CURVE SMOOTH"
);
}
);
width = 280;
}
);
},
{
glyphname = Ring;
lastChange = "2016-09-09 11:28:50 +0000";
layers = (
{
layerId = UUID0;
paths = (
{
closed = 1;
nodes = (
"85 832 OFFCURVE",
"100 845 OFFCURVE",
"120 845 CURVE SMOOTH",
"139 845 OFFCURVE",
"145 832 OFFCURVE",
"141 815 CURVE SMOOTH",
"137 798 OFFCURVE",
"121 785 OFFCURVE",
"101 785 CURVE SMOOTH",
"85 785 OFFCURVE",
"77 798 OFFCURVE",
"81 815 CURVE SMOOTH"
);
},
{
closed = 1;
nodes = (
"21 772 OFFCURVE",
"54 740 OFFCURVE",
"98 740 CURVE SMOOTH",
"142 740 OFFCURVE",
"181 770 OFFCURVE",
"191 815 CURVE SMOOTH",
"201 859 OFFCURVE",
"168 890 OFFCURVE",
"124 890 CURVE SMOOTH",
"80 890 OFFCURVE",
"41 859 OFFCURVE",
"31 815 CURVE SMOOTH"
);
}
);
width = 194;
},
{
layerId = "A0D8A2CD-35BA-4362-A7DB-C0E331BFD9A3";
paths = (
{
closed = 1;
nodes = (
"107 852 OFFCURVE",
"122 865 OFFCURVE",
"139 865 CURVE SMOOTH",
"156 865 OFFCURVE",
"167 852 OFFCURVE",
"163 835 CURVE SMOOTH",
"159 818 OFFCURVE",
"144 805 OFFCURVE",
"127 805 CURVE SMOOTH",
"110 805 OFFCURVE",
"99 818 OFFCURVE",
"103 835 CURVE SMOOTH"
);
},
{
closed = 1;
nodes = (
"21 780 OFFCURVE",
"58 740 OFFCURVE",
"113 740 CURVE SMOOTH",
"168 740 OFFCURVE",
"221 780 OFFCURVE",
"233 835 CURVE SMOOTH",
"245 890 OFFCURVE",
"208 930 OFFCURVE",
"153 930 CURVE SMOOTH",
"98 930 OFFCURVE",
"45 890 OFFCURVE",
"33 835 CURVE SMOOTH"
);
}
);
width = 236;
}
);
},
{
glyphname = Tilde;
lastChange = "2016-09-09 11:28:50 +0000";
layers = (
{
layerId = UUID0;
paths = (
{
closed = 1;
nodes = (
"247 745 OFFCURVE",
"288 786 OFFCURVE",
"293 824 CURVE SMOOTH",
"294 832 OFFCURVE",
"290 840 OFFCURVE",
"280 840 CURVE SMOOTH",
"260 840 LINE SMOOTH",
"238 840 OFFCURVE",
"241 810 OFFCURVE",
"207 810 CURVE SMOOTH",
"178 810 OFFCURVE",
"164 844 OFFCURVE",
"117 844 CURVE SMOOTH",
"76 844 OFFCURVE",
"36 804 OFFCURVE",
"31 766 CURVE SMOOTH",
"30 758 OFFCURVE",
"34 750 OFFCURVE",
"44 750 CURVE SMOOTH",
"64 750 LINE SMOOTH",
"85 750 OFFCURVE",
"84 779 OFFCURVE",
"117 779 CURVE SMOOTH",
"145 779 OFFCURVE",
"161 745 OFFCURVE",
"207 745 CURVE SMOOTH"
);
}
);
width = 294;
},
{
layerId = "A0D8A2CD-35BA-4362-A7DB-C0E331BFD9A3";
paths = (
{
closed = 1;
nodes = (
"416 745 OFFCURVE",
"456 855 OFFCURVE",
"466 901 CURVE SMOOTH",
"468 911 OFFCURVE",
"463 920 OFFCURVE",
"451 920 CURVE SMOOTH",
"367 920 LINE SMOOTH",
"345 920 OFFCURVE",
"340 889 OFFCURVE",
"310 889 CURVE SMOOTH",
"271 889 OFFCURVE",
"250 925 OFFCURVE",
"190 925 CURVE SMOOTH",
"80 925 OFFCURVE",
"41 814 OFFCURVE",
"31 768 CURVE SMOOTH",
"29 758 OFFCURVE",
"36 750 OFFCURVE",
"46 750 CURVE SMOOTH",
"130 750 LINE SMOOTH",
"152 750 OFFCURVE",
"156 781 OFFCURVE",
"187 781 CURVE SMOOTH",
"226 781 OFFCURVE",
"247 745 OFFCURVE",
"307 745 CURVE SMOOTH"
);
}
);
width = 467;
}
);
},
{
glyphname = A;
lastChange = "2016-09-09 11:28:50 +0000";
layers = (
{
layerId = UUID0;
paths = (
{
closed = 1;
nodes = (
"5 0 LINE SMOOTH",
"14 0 OFFCURVE",
"24 5 OFFCURVE",
"30 15 CURVE SMOOTH",
"128 175 LINE",
"481 175 LINE",
"511 21 LINE SMOOTH",
"514 6 OFFCURVE",
"522 0 OFFCURVE",
"534 0 CURVE SMOOTH",
"555 0 LINE SMOOTH",
"568 0 OFFCURVE",
"577 11 OFFCURVE",
"573 31 CURVE",
"458 680 LINE SMOOTH",
"456 693 OFFCURVE",
"449 700 OFFCURVE",
"433 700 CURVE SMOOTH",
"391 700 LINE SMOOTH",
"375 700 OFFCURVE",
"366 693 OFFCURVE",
"358 680 CURVE SMOOTH",
"-33 31 LINE",
"-41 17 OFFCURVE",
"-34 0 OFFCURVE",
"-17 0 CURVE SMOOTH"
);
},
{
closed = 1;
nodes = (
"401 629 LINE",
"471 235 LINE",
"164 235 LINE"
);
}
);
width = 653;
},
{
layerId = "A0D8A2CD-35BA-4362-A7DB-C0E331BFD9A3";
paths = (
{
closed = 1;
nodes = (
"155 0 LINE SMOOTH",
"181 0 OFFCURVE",
"192 14 OFFCURVE",
"199 25 CURVE SMOOTH",
"237 91 LINE",
"452 91 LINE",
"462 25 LINE SMOOTH",
"463 14 OFFCURVE",
"470 0 OFFCURVE",
"496 0 CURVE SMOOTH",
"676 0 LINE SMOOTH",
"691 0 OFFCURVE",
"705 11 OFFCURVE",
"703 29 CURVE",
"615 667 LINE",
"613 682 OFFCURVE",
"604 700 OFFCURVE",
"577 700 CURVE SMOOTH",
"355 700 LINE SMOOTH",
"328 700 OFFCURVE",
"311 681 OFFCURVE",
"303 667 CURVE",
"-55 29 LINE SMOOTH",
"-63 15 OFFCURVE",
"-55 0 OFFCURVE",
"-40 0 CURVE SMOOTH"
);
},
{
closed = 1;
nodes = (
"425 472 LINE",
"442 286 LINE",
"329 286 LINE"
);
}
);
width = 761;
}
);
leftKerningGroup = A;
rightKerningGroup = A;
unicode = 0041;
},
{
glyphname = Aogonek;
lastChange = "2016-09-09 11:25:18 +0000";
layers = (
{
hints = (
{
horizontal = 1;
place = "{-370, 0}";
type = Tag;
name = hr00;
}
);
layerId = UUID0;
paths = (
{
closed = 1;
nodes = (
"496 -220 LINE SMOOTH",
"509 -220 OFFCURVE",
"520 -211 OFFCURVE",
"523 -198 CURVE SMOOTH",
"526 -185 LINE SMOOTH",
"529 -172 OFFCURVE",
"522 -163 OFFCURVE",
"509 -163 CURVE SMOOTH",
"494 -163 LINE SMOOTH",
"450 -163 OFFCURVE",
"424 -133 OFFCURVE",
"435 -82 CURVE SMOOTH",
"446 -31 OFFCURVE",
"484 0 OFFCURVE",
"528 0 CURVE SMOOTH",
"557 0 LINE SMOOTH",
"568 0 OFFCURVE",
"579 9 OFFCURVE",
"581 20 CURVE SMOOTH",
"582 22 OFFCURVE",
"582 28 OFFCURVE",
"582 31 CURVE SMOOTH",
"467 680 LINE SMOOTH",
"465 693 OFFCURVE",
"458 700 OFFCURVE",
"442 700 CURVE SMOOTH",
"408 700 LINE SMOOTH",
"392 700 OFFCURVE",
"383 693 OFFCURVE",
"375 680 CURVE SMOOTH",
"-16 31 LINE SMOOTH",
"-18 28 OFFCURVE",
"-20 22 OFFCURVE",
"-21 20 CURVE SMOOTH",
"-23 9 OFFCURVE",
"-16 0 OFFCURVE",
"-5 0 CURVE SMOOTH",
"15 0 LINE SMOOTH",
"28 0 OFFCURVE",
"37 10 OFFCURVE",
"40 15 CURVE SMOOTH",
"136 175 LINE",
"490 175 LINE",
"510 63 LINE",
"510 60 OFFCURVE",
"511 58 OFFCURVE",
"511 55 CURVE",
"443 45 OFFCURVE",
"391 -6 OFFCURVE",
"375 -82 CURVE SMOOTH",
"357 -167 OFFCURVE",
"396 -220 OFFCURVE",
"477 -220 CURVE SMOOTH"
);
},
{
closed = 1;
nodes = (
"410 629 LINE",
"479 235 LINE",
"173 235 LINE"
);
}
);
width = 650;
},
{
guideLines = (
{
position = "{350, -220}";
}
);
layerId = "A0D8A2CD-35BA-4362-A7DB-C0E331BFD9A3";
paths = (
{
closed = 1;
nodes = (
"622 -220 LINE SMOOTH",
"637 -220 OFFCURVE",
"652 -208 OFFCURVE",
"655 -193 CURVE SMOOTH",
"670 -125 LINE SMOOTH",
"673 -110 OFFCURVE",
"663 -98 OFFCURVE",
"648 -98 CURVE SMOOTH",
"638 -98 LINE SMOOTH",
"599 -98 OFFCURVE",
"594 -70 OFFCURVE",
"599 -49 CURVE SMOOTH",
"603 -29 OFFCURVE",
"619 -2 OFFCURVE",
"653 0 CURVE",
"684 0 LINE SMOOTH",
"696 0 OFFCURVE",
"708 10 OFFCURVE",
"711 22 CURVE SMOOTH",
"711 24 OFFCURVE",
"712 26 OFFCURVE",
"711 29 CURVE SMOOTH",
"624 667 LINE",
"623 682 OFFCURVE",
"613 700 OFFCURVE",
"586 700 CURVE SMOOTH",
"369 700 LINE SMOOTH",
"342 700 OFFCURVE",
"324 682 OFFCURVE",
"317 667 CURVE",
"-42 29 LINE SMOOTH",
"-43 26 OFFCURVE",
"-44 24 OFFCURVE",
"-44 22 CURVE SMOOTH",
"-47 10 OFFCURVE",
"-39 0 OFFCURVE",
"-27 0 CURVE SMOOTH",
"158 0 LINE SMOOTH",
"184 0 OFFCURVE",
"196 14 OFFCURVE",
"203 25 CURVE SMOOTH",
"241 91 LINE",
"456 91 LINE",
"466 25 LINE SMOOTH",
"466 15 OFFCURVE",
"471 3 OFFCURVE",
"488 0 CURVE",
"482 -15 OFFCURVE",
"477 -31 OFFCURVE",
"473 -49 CURVE SMOOTH",
"453 -144 OFFCURVE",
"487 -220 OFFCURVE",
"608 -220 CURVE SMOOTH"
);
},
{
closed = 1;
nodes = (
"429 472 LINE",
"446 286 LINE",
"333 286 LINE"
);
}
);
width = 755;
}
);
leftKerningGroup = A;
rightKerningGroup = A;
unicode = 0104;
},
{
glyphname = AE;
lastChange = "2016-09-09 11:34:35 +0000";
layers = (
{
anchors = (
{
name = bottom;
position = "{417, 0}";
},
{
name = top;
position = "{596, 700}";
}
);
layerId = UUID0;
paths = (
{
closed = 1;
nodes = (
"11 0 LINE",
"20 0 OFFCURVE",
"30 5 OFFCURVE",
"36 15 CURVE SMOOTH",
"134 175 LINE",
"421 175 LINE",
"388 22 LINE",
"385 9 OFFCURVE",
"393 0 OFFCURVE",
"406 0 CURVE",
"804 0 LINE",
"818 0 OFFCURVE",
"828 9 OFFCURVE",
"831 22 CURVE",
"834 37 LINE",
"837 51 OFFCURVE",
"830 60 OFFCURVE",
"816 60 CURVE",
"459 60 LINE",
"516 325 LINE",
"843 325 LINE",
"857 325 OFFCURVE",
"867 334 OFFCURVE",
"870 347 CURVE",
"873 362 LINE",
"876 376 OFFCURVE",
"869 385 OFFCURVE",
"855 385 CURVE",
"528 385 LINE",
"583 640 LINE",
"932 640 LINE",
"946 640 OFFCURVE",
"956 649 OFFCURVE",
"959 662 CURVE",
"962 677 LINE",
"965 691 OFFCURVE",
"958 700 OFFCURVE",
"944 700 CURVE",
"394 700 LINE",
"385 700 OFFCURVE",
"374 697 OFFCURVE",
"364 681 CURVE",
"-24 36 LINE",
"-31 24 OFFCURVE",
"-35 0 OFFCURVE",
"-9 0 CURVE SMOOTH"
);
},
{
closed = 1;
nodes = (
"409 633 LINE",
"518 633 LINE",
"433 235 LINE",
"170 235 LINE"
);
}
);
width = 943;
},
{
anchors = (
{
name = bottom;
position = "{453, 0}";
},
{
name = top;
position = "{602, 700}";
}
);
layerId = "A0D8A2CD-35BA-4362-A7DB-C0E331BFD9A3";
paths = (
{
closed = 1;
nodes = (
"160 0 LINE SMOOTH",
"186 0 OFFCURVE",
"197 14 OFFCURVE",
"204 25 CURVE SMOOTH",
"242 91 LINE",
"391 91 LINE",
"377 27 LINE SMOOTH",
"374 12 OFFCURVE",
"384 0 OFFCURVE",
"399 0 CURVE SMOOTH",
"890 0 LINE SMOOTH",
"905 0 OFFCURVE",
"919 12 OFFCURVE",
"922 27 CURVE SMOOTH",
"952 168 LINE SMOOTH",
"955 183 OFFCURVE",
"946 195 OFFCURVE",
"931 195 CURVE SMOOTH",
"653 195 LINE",
"666 258 LINE",
"914 258 LINE SMOOTH",
"929 258 OFFCURVE",
"944 270 OFFCURVE",
"947 285 CURVE SMOOTH",
"975 415 LINE SMOOTH",
"978 430 OFFCURVE",
"968 442 OFFCURVE",
"953 442 CURVE SMOOTH",
"705 442 LINE",
"719 505 LINE",
"989 505 LINE SMOOTH",
"1004 505 OFFCURVE",
"1018 517 OFFCURVE",
"1022 532 CURVE",
"1052 673 LINE SMOOTH",
"1055 688 OFFCURVE",
"1045 700 OFFCURVE",
"1030 700 CURVE SMOOTH",
"360 700 LINE SMOOTH",
"333 700 OFFCURVE",
"315 682 OFFCURVE",
"308 667 CURVE",
"-50 29 LINE SMOOTH",
"-59 16 OFFCURVE",
"-50 0 OFFCURVE",
"-35 0 CURVE SMOOTH"
);
},
{
closed = 1;
nodes = (
"447 505 LINE",
"479 505 LINE",
"432 286 LINE",
"334 286 LINE"
);
}
);
width = 1016;
}
);
leftKerningGroup = AE;
rightKerningGroup = E;
unicode = 00C6;
},
{
glyphname = B;
lastChange = "2016-09-09 11:28:50 +0000";
layers = (
{
layerId = UUID0;
paths = (
{
closed = 1;
nodes = (
"323 0 LINE SMOOTH",
"479 0 OFFCURVE",
"550 97 OFFCURVE",
"572 198 CURVE",
"589 282 OFFCURVE",
"553 337 OFFCURVE",
"506 369 CURVE",
"550 386 OFFCURVE",
"606 426 OFFCURVE",
"626 521 CURVE SMOOTH",
"646 616 OFFCURVE",
"588 700 OFFCURVE",
"463 700 CURVE SMOOTH",
"202 700 LINE SMOOTH",
"189 700 OFFCURVE",
"178 691 OFFCURVE",
"175 677 CURVE SMOOTH",
"36 22 LINE SMOOTH",
"33 9 OFFCURVE",
"41 0 OFFCURVE",
"54 0 CURVE SMOOTH"
);
},
{
closed = 1;
nodes = (
"166 336 LINE",
"383 336 LINE SMOOTH",
"497 336 OFFCURVE",
"526 279 OFFCURVE",
"509 198 CURVE SMOOTH",
"492 118 OFFCURVE",
"417 60 OFFCURVE",
"323 60 CURVE SMOOTH",
"107 60 LINE"
);
},
{
closed = 1;
nodes = (
"231 640 LINE",
"448 640 LINE SMOOTH",
"544 640 OFFCURVE",
"580 600 OFFCURVE",
"563 521 CURVE SMOOTH",
"546 442 OFFCURVE",
"475 396 OFFCURVE",
"381 396 CURVE SMOOTH",
"179 396 LINE"
);
}
);
width = 657;
},
{
layerId = "A0D8A2CD-35BA-4362-A7DB-C0E331BFD9A3";
paths = (
{
closed = 1;
nodes = (
"381 0 LINE SMOOTH",
"561 0 OFFCURVE",
"657 70 OFFCURVE",
"689 220 CURVE SMOOTH",
"703 286 OFFCURVE",
"672 344 OFFCURVE",
"625 365 CURVE",
"660 381 OFFCURVE",
"718 426 OFFCURVE",
"732 490 CURVE SMOOTH",
"761 630 OFFCURVE",
"660 700 OFFCURVE",
"479 700 CURVE SMOOTH",
"167 700 LINE SMOOTH",
"152 700 OFFCURVE",
"138 688 OFFCURVE",
"135 673 CURVE SMOOTH",
"-3 27 LINE SMOOTH",
"-6 12 OFFCURVE",
"4 0 OFFCURVE",
"19 0 CURVE SMOOTH"
);
},
{
closed = 1;
nodes = (
"299 270 LINE",
"392 270 LINE SMOOTH",
"422 270 OFFCURVE",
"433 245 OFFCURVE",
"427 221 CURVE SMOOTH",
"423 199 OFFCURVE",
"404 172 OFFCURVE",
"371 172 CURVE SMOOTH",
"278 172 LINE"
);
},
{
closed = 1;
nodes = (
"354 528 LINE",
"438 528 LINE SMOOTH",
"467 528 OFFCURVE",
"473 503 OFFCURVE",
"469 482 CURVE SMOOTH",
"464 461 OFFCURVE",
"447 437 OFFCURVE",
"418 437 CURVE SMOOTH",
"334 437 LINE"
);
}
);
width = 733;
}
);
leftKerningGroup = I;
unicode = 0042;
},
{
glyphname = C;
lastChange = "2016-09-09 11:28:50 +0000";
layers = (
{
layerId = UUID0;
paths = (
{
closed = 1;
nodes = (
"196 585 OFFCURVE",
"291 650 OFFCURVE",
"413 650 CURVE SMOOTH",
"520 650 OFFCURVE",
"590 608 OFFCURVE",
"578 495 CURVE SMOOTH",
"576 479 OFFCURVE",
"588 474 OFFCURVE",
"599 474 CURVE SMOOTH",
"622 474 LINE SMOOTH",
"634 474 OFFCURVE",
"639 482 OFFCURVE",
"641 494 CURVE SMOOTH",
"658 595 OFFCURVE",
"603 710 OFFCURVE",
"413 710 CURVE SMOOTH",
"231 710 OFFCURVE",
"136 595 OFFCURVE",
"97 439 CURVE SMOOTH",
"83 382 OFFCURVE",
"68 315 OFFCURVE",
"59 261 CURVE SMOOTH",
"32 105 OFFCURVE",
"92 -10 OFFCURVE",
"274 -10 CURVE SMOOTH",
"474 -10 OFFCURVE",
"550 112 OFFCURVE",
"579 206 CURVE SMOOTH",
"583 218 OFFCURVE",
"575 226 OFFCURVE",
"563 226 CURVE SMOOTH",
"540 226 LINE SMOOTH",
"529 226 OFFCURVE",
"521 221 OFFCURVE",
"515 205 CURVE",
"464 86 OFFCURVE",
"381 50 OFFCURVE",
"274 50 CURVE SMOOTH",
"152 50 OFFCURVE",
"96 115 OFFCURVE",
"123 266 CURVE SMOOTH",
"133 323 OFFCURVE",
"145 379 OFFCURVE",
"159 434 CURVE SMOOTH"
);
}
);
width = 650;
},
{
layerId = "A0D8A2CD-35BA-4362-A7DB-C0E331BFD9A3";
paths = (
{
closed = 1;
nodes = (
"342 495 OFFCURVE",
"374 515 OFFCURVE",
"418 515 CURVE SMOOTH",
"452 515 OFFCURVE",
"476 504 OFFCURVE",
"481 461 CURVE",
"485 439 OFFCURVE",
"490 432 OFFCURVE",
"512 432 CURVE SMOOTH",
"716 432 LINE SMOOTH",
"728 432 OFFCURVE",
"740 442 OFFCURVE",
"743 454 CURVE SMOOTH",
"779 636 OFFCURVE",
"600 710 OFFCURVE",
"440 710 CURVE SMOOTH",
"243 710 OFFCURVE",
"115 625 OFFCURVE",
"68 439 CURVE SMOOTH",
"54 382 OFFCURVE",
"39 315 OFFCURVE",
"30 261 CURVE SMOOTH",
"-3 70 OFFCURVE",
"145 -10 OFFCURVE",
"327 -10 CURVE SMOOTH",
"507 -10 OFFCURVE",
"657 64 OFFCURVE",
"699 246 CURVE",
"701 258 OFFCURVE",
"693 268 OFFCURVE",
"681 268 CURVE SMOOTH",
"477 268 LINE SMOOTH",
"455 268 OFFCURVE",
"446 262 OFFCURVE",
"434 239 CURVE SMOOTH",
"413 199 OFFCURVE",
"382 185 OFFCURVE",
"348 185 CURVE SMOOTH",
"304 185 OFFCURVE",
"280 205 OFFCURVE",
"291 266 CURVE SMOOTH",
"301 323 OFFCURVE",
"313 379 OFFCURVE",
"327 434 CURVE SMOOTH"
);
}
);
width = 731;
}
);
leftKerningGroup = O;
rightKerningGroup = C;
unicode = 0043;
},
{
glyphname = Ccedilla;
lastChange = "2016-09-09 11:24:12 +0000";
layers = (
{
guideLines = (
{
position = "{-150, -174}";
},
{
position = "{-150, -220}";
},
{
position = "{-150, -96}";
},
{
position = "{-150, -50}";
},
{
position = "{-150, -135}";
},
{
angle = 90;
position = "{181, 0}";
},
{
angle = 90;
position = "{192, 0}";
}
);
hints = (
{
horizontal = 1;
place = "{284, 0}";
type = Tag;
name = hr00;
}
);
layerId = UUID0;
paths = (
{
closed = 1;
nodes = (
"295 -221 OFFCURVE",
"335 -180 OFFCURVE",
"345 -132 CURVE SMOOTH",
"355 -84 OFFCURVE",
"331 -50 OFFCURVE",
"287 -50 CURVE SMOOTH",
"272 -50 OFFCURVE",
"256 -53 OFFCURVE",
"247 -58 CURVE",
"280 -10 LINE",
"470 -10 OFFCURVE",
"568 111 OFFCURVE",
"593 206 CURVE SMOOTH",
"597 218 OFFCURVE",
"588 226 OFFCURVE",
"576 226 CURVE",
"556 226 LINE",
"545 226 OFFCURVE",
"536 221 OFFCURVE",
"530 205 CURVE SMOOTH",
"478 86 OFFCURVE",
"400 50 OFFCURVE",
"293 50 CURVE SMOOTH",
"171 50 OFFCURVE",
"110 115 OFFCURVE",
"137 266 CURVE SMOOTH",
"147 323 OFFCURVE",
"159 379 OFFCURVE",
"172 434 CURVE SMOOTH",
"210 585 OFFCURVE",
"298 650 OFFCURVE",
"420 650 CURVE SMOOTH",
"527 650 OFFCURVE",
"591 614 OFFCURVE",
"591 495 CURVE SMOOTH",
"591 479 OFFCURVE",
"598 474 OFFCURVE",
"609 474 CURVE",
"629 474 LINE",
"641 474 OFFCURVE",
"653 482 OFFCURVE",
"654 494 CURVE SMOOTH",
"669 589 OFFCURVE",
"623 710 OFFCURVE",
"433 710 CURVE SMOOTH",
"251 710 OFFCURVE",
"150 595 OFFCURVE",
"111 439 CURVE SMOOTH",
"96 382 OFFCURVE",
"82 315 OFFCURVE",
"73 261 CURVE SMOOTH",
"48 121 OFFCURVE",
"87 15 OFFCURVE",
"227 -6 CURVE",
"197 -53 LINE",
"191 -63 OFFCURVE",
"180 -75 OFFCURVE",
"186 -83 CURVE",
"198 -100 LINE",
"210 -116 OFFCURVE",
"227 -96 OFFCURVE",
"259 -96 CURVE SMOOTH",
"282 -96 OFFCURVE",
"299 -110 OFFCURVE",
"294 -134 CURVE SMOOTH",
"288 -159 OFFCURVE",
"265 -174 OFFCURVE",
"242 -174 CURVE SMOOTH",
"198 -174 OFFCURVE",
"198 -140 OFFCURVE",
"178 -156 CURVE",
"161 -169 LINE",
"142 -184 OFFCURVE",
"176 -219 OFFCURVE",
"232 -220 CURVE SMOOTH"
);
}
);
width = 651;
},
{
guideLines = (
{
position = "{350, -220}";
},
{
angle = 90;
position = "{1069, 0}";
}
);
hints = (
{
horizontal = 1;
place = "{-2147483648, 0}";
type = Tag;
name = hr00;
}
);
layerId = "A0D8A2CD-35BA-4362-A7DB-C0E331BFD9A3";
paths = (
{
closed = 1;
nodes = (
"330 -220 OFFCURVE",
"377 -183 OFFCURVE",
"389 -130 CURVE SMOOTH",
"400 -77 OFFCURVE",
"378 -40 OFFCURVE",
"327 -40 CURVE SMOOTH",
"323 -40 OFFCURVE",
"304 -42 OFFCURVE",
"296 -45 CURVE",
"321 -10 LINE",
"491 -10 OFFCURVE",
"671 64 OFFCURVE",
"712 246 CURVE SMOOTH",
"715 258 OFFCURVE",
"707 268 OFFCURVE",
"695 268 CURVE",
"491 268 LINE",
"469 268 OFFCURVE",
"460 262 OFFCURVE",
"448 239 CURVE SMOOTH",
"427 199 OFFCURVE",
"396 185 OFFCURVE",
"362 185 CURVE SMOOTH",
"318 185 OFFCURVE",
"294 205 OFFCURVE",
"305 266 CURVE SMOOTH",
"315 323 OFFCURVE",
"327 379 OFFCURVE",
"340 434 CURVE SMOOTH",
"355 495 OFFCURVE",
"388 515 OFFCURVE",
"432 515 CURVE SMOOTH",
"466 515 OFFCURVE",
"489 504 OFFCURVE",
"495 461 CURVE SMOOTH",
"499 439 OFFCURVE",
"504 432 OFFCURVE",
"526 432 CURVE",
"730 432 LINE",
"742 432 OFFCURVE",
"754 442 OFFCURVE",
"757 454 CURVE SMOOTH",
"792 636 OFFCURVE",
"644 710 OFFCURVE",
"474 710 CURVE SMOOTH",
"287 710 OFFCURVE",
"129 625 OFFCURVE",
"82 439 CURVE SMOOTH",
"67 382 OFFCURVE",
"53 315 OFFCURVE",
"44 261 CURVE SMOOTH",
"15 91 OFFCURVE",
"104 10 OFFCURVE",
"259 -6 CURVE",
"229 -52 LINE",
"216 -71 OFFCURVE",
"217 -76 OFFCURVE",
"224 -85 CURVE",
"241 -106 LINE",
"251 -119 OFFCURVE",
"277 -106 OFFCURVE",
"295 -106 CURVE SMOOTH",
"315 -106 OFFCURVE",
"320 -118 OFFCURVE",
"318 -130 CURVE SMOOTH",
"315 -142 OFFCURVE",
"303 -154 OFFCURVE",
"284 -154 CURVE SMOOTH",
"250 -154 OFFCURVE",
"249 -136 OFFCURVE",
"229 -151 CURVE",
"204 -169 LINE",
"177 -189 OFFCURVE",
"217 -220 OFFCURVE",
"270 -220 CURVE SMOOTH"
);
}
);
width = 733;
}
);
leftKerningGroup = O;
rightKerningGroup = C;
unicode = 00C7;
userData = {
com.typemytype.robofont.guides = (
{
angle = 0;
isGlobal = 0;
magnetic = 5;
x = 0;
y = "-174";
},
{
angle = 0;
isGlobal = 0;
magnetic = 5;
x = 0;
y = "-220";
},
{
angle = 0;
isGlobal = 0;
magnetic = 5;
x = 0;
y = "-96";
},
{
angle = 0;
isGlobal = 0;
magnetic = 5;
x = 0;
y = "-50";
},
{
angle = 0;
isGlobal = 0;
magnetic = 5;
x = 0;
y = "-135";
},
{
angle = 90;
isGlobal = 0;
magnetic = 5;
x = 331;
y = 0;
},
{
angle = 90;
isGlobal = 0;
magnetic = 5;
x = 342;
y = 0;
}
);
};
},
{
glyphname = D;
lastChange = "2016-09-09 11:28:50 +0000";
layers = (
{
layerId = UUID0;
paths = (
{
closed = 1;
nodes = (
"202 700 LINE",
"189 700 OFFCURVE",
"178 691 OFFCURVE",
"175 677 CURVE SMOOTH",
"36 22 LINE SMOOTH",
"33 9 OFFCURVE",
"41 0 OFFCURVE",
"54 0 CURVE SMOOTH",
"282 0 LINE SMOOTH",
"481 0 OFFCURVE",
"559 87 OFFCURVE",
"602 271 CURVE SMOOTH",
"616 331 OFFCURVE",
"624 370 OFFCURVE",
"636 430 CURVE SMOOTH",
"670 604 OFFCURVE",
"587 700 OFFCURVE",
"405 700 CURVE"
);
},
{
closed = 1;
nodes = (
"560 365 OFFCURVE",
"554 336 OFFCURVE",
"540 276 CURVE SMOOTH",
"504 120 OFFCURVE",
"438 60 OFFCURVE",
"279 60 CURVE SMOOTH",
"107 60 LINE",
"231 640 LINE",
"398 640 LINE SMOOTH",
"558 640 OFFCURVE",
"600 571 OFFCURVE",
"572 425 CURVE SMOOTH"
);
}
);
width = 677;
},
{
layerId = "A0D8A2CD-35BA-4362-A7DB-C0E331BFD9A3";
paths = (
{
closed = 1;
nodes = (
"167 700 LINE SMOOTH",
"152 700 OFFCURVE",
"138 688 OFFCURVE",
"135 673 CURVE SMOOTH",
"-3 27 LINE SMOOTH",
"-6 12 OFFCURVE",
"4 0 OFFCURVE",
"19 0 CURVE SMOOTH",
"332 0 LINE SMOOTH",
"543 0 OFFCURVE",
"651 87 OFFCURVE",
"699 276 CURVE SMOOTH",
"713 330 OFFCURVE",
"721 368 OFFCURVE",
"731 425 CURVE SMOOTH",
"762 604 OFFCURVE",
"602 700 OFFCURVE",
"435 700 CURVE"
);
},
{
closed = 1;
nodes = (
"468 370 OFFCURVE",
"460 333 OFFCURVE",
"445 276 CURVE SMOOTH",
"430 220 OFFCURVE",
"392 195 OFFCURVE",
"348 195 CURVE SMOOTH",
"283 195 LINE",
"349 505 LINE",
"409 505 LINE SMOOTH",
"454 505 OFFCURVE",
"486 481 OFFCURVE",
"477 425 CURVE SMOOTH"
);
}
);
width = 739;
}
);
leftKerningGroup = I;
rightKerningGroup = D;
unicode = 0044;
},
{
glyphname = Dcroat;
lastChange = "2016-09-09 11:28:50 +0000";
layers = (
{
layerId = UUID0;
paths = (
{
closed = 1;
nodes = (
"289 0 LINE SMOOTH",
"488 0 OFFCURVE",
"566 87 OFFCURVE",
"609 271 CURVE SMOOTH",
"623 331 OFFCURVE",
"631 370 OFFCURVE",
"643 430 CURVE SMOOTH",
"677 604 OFFCURVE",
"594 700 OFFCURVE",
"412 700 CURVE SMOOTH",
"209 700 LINE SMOOTH",
"196 700 OFFCURVE",
"185 691 OFFCURVE",
"182 677 CURVE",
"120 382 LINE",
"57 382 LINE SMOOTH",
"44 382 OFFCURVE",
"32 373 OFFCURVE",
"30 360 CURVE SMOOTH",
"27 344 LINE SMOOTH",
"25 331 OFFCURVE",
"31 322 OFFCURVE",
"44 322 CURVE SMOOTH",
"107 322 LINE",
"43 22 LINE SMOOTH",
"40 9 OFFCURVE",
"48 0 OFFCURVE",
"61 0 CURVE SMOOTH"
);
},
{
closed = 1;
nodes = (
"170 322 LINE",
"320 322 LINE SMOOTH",
"333 322 OFFCURVE",
"345 331 OFFCURVE",
"347 344 CURVE SMOOTH",
"350 360 LINE SMOOTH",
"352 373 OFFCURVE",
"346 382 OFFCURVE",
"333 382 CURVE SMOOTH",
"183 382 LINE",
"238 640 LINE",
"405 640 LINE SMOOTH",
"565 640 OFFCURVE",
"607 571 OFFCURVE",
"579 425 CURVE SMOOTH",
"567 365 OFFCURVE",
"561 336 OFFCURVE",
"547 276 CURVE SMOOTH",
"511 120 OFFCURVE",
"445 60 OFFCURVE",
"286 60 CURVE SMOOTH",
"114 60 LINE"
);
}
);
width = 684;
},
{
layerId = "A0D8A2CD-35BA-4362-A7DB-C0E331BFD9A3";
paths = (
{
closed = 1;
nodes = (
"354 0 LINE",
"565 0 OFFCURVE",
"673 87 OFFCURVE",
"721 276 CURVE SMOOTH",
"735 330 OFFCURVE",
"743 368 OFFCURVE",
"753 425 CURVE SMOOTH",
"784 604 OFFCURVE",
"624 700 OFFCURVE",
"457 700 CURVE",
"189 700 LINE",
"174 700 OFFCURVE",
"160 688 OFFCURVE",
"157 673 CURVE",
"105 430 LINE",
"67 430 LINE",
"52 430 OFFCURVE",
"37 418 OFFCURVE",
"34 403 CURVE",
"13 302 LINE",
"10 287 OFFCURVE",
"19 275 OFFCURVE",
"34 275 CURVE",
"72 275 LINE",
"19 27 LINE",
"16 12 OFFCURVE",
"26 0 OFFCURVE",
"41 0 CURVE"
);
},
{
closed = 1;
nodes = (
"322 275 LINE",
"378 275 LINE",
"393 275 OFFCURVE",
"408 287 OFFCURVE",
"411 302 CURVE",
"432 403 LINE",
"435 418 OFFCURVE",
"426 430 OFFCURVE",
"411 430 CURVE",
"355 430 LINE",
"371 505 LINE",
"431 505 LINE",
"476 505 OFFCURVE",
"508 481 OFFCURVE",
"499 425 CURVE SMOOTH",
"490 370 OFFCURVE",
"482 333 OFFCURVE",
"467 276 CURVE SMOOTH",
"452 220 OFFCURVE",
"414 195 OFFCURVE",
"370 195 CURVE",
"305 195 LINE"
);
}
);
width = 761;
}
);
leftKerningGroup = I;
rightKerningGroup = D;
unicode = 0110;
},
{
glyphname = E;
lastChange = "2016-09-09 11:28:50 +0000";
layers = (
{
layerId = UUID0;
paths = (
{
closed = 1;
nodes = (
"452 0 LINE SMOOTH",
"466 0 OFFCURVE",
"476 9 OFFCURVE",
"479 22 CURVE SMOOTH",
"482 37 LINE SMOOTH",
"485 51 OFFCURVE",
"478 60 OFFCURVE",
"464 60 CURVE SMOOTH",
"107 60 LINE",
"164 325 LINE",
"491 325 LINE SMOOTH",
"505 325 OFFCURVE",
"515 334 OFFCURVE",
"518 347 CURVE SMOOTH",
"521 362 LINE SMOOTH",
"524 376 OFFCURVE",
"517 385 OFFCURVE",
"503 385 CURVE SMOOTH",
"176 385 LINE",
"231 640 LINE",
"580 640 LINE SMOOTH",
"594 640 OFFCURVE",
"604 649 OFFCURVE",
"607 662 CURVE SMOOTH",
"610 677 LINE SMOOTH",
"613 691 OFFCURVE",
"606 700 OFFCURVE",
"592 700 CURVE SMOOTH",
"202 700 LINE SMOOTH",
"189 700 OFFCURVE",
"178 691 OFFCURVE",
"175 677 CURVE SMOOTH",
"36 22 LINE SMOOTH",
"33 9 OFFCURVE",
"41 0 OFFCURVE",
"54 0 CURVE SMOOTH"
);
}
);
width = 591;
},
{
layerId = "A0D8A2CD-35BA-4362-A7DB-C0E331BFD9A3";
paths = (
{
closed = 1;
nodes = (
"540 0 LINE SMOOTH",
"555 0 OFFCURVE",
"569 12 OFFCURVE",
"572 27 CURVE SMOOTH",
"602 168 LINE SMOOTH",
"605 183 OFFCURVE",
"596 195 OFFCURVE",
"581 195 CURVE SMOOTH",
"273 195 LINE",
"286 258 LINE",
"564 258 LINE SMOOTH",
"579 258 OFFCURVE",
"594 270 OFFCURVE",
"597 285 CURVE SMOOTH",
"625 415 LINE SMOOTH",
"628 430 OFFCURVE",
"618 442 OFFCURVE",
"603 442 CURVE SMOOTH",
"325 442 LINE",
"339 505 LINE",
"639 505 LINE SMOOTH",
"654 505 OFFCURVE",
"668 517 OFFCURVE",
"672 532 CURVE SMOOTH",
"702 673 LINE SMOOTH",
"705 688 OFFCURVE",
"695 700 OFFCURVE",
"680 700 CURVE SMOOTH",
"167 700 LINE SMOOTH",
"152 700 OFFCURVE",
"138 688 OFFCURVE",
"135 673 CURVE SMOOTH",
"-3 27 LINE SMOOTH",
"-6 12 OFFCURVE",
"4 0 OFFCURVE",
"19 0 CURVE SMOOTH"
);
}
);
width = 666;
}
);
leftKerningGroup = I;
rightKerningGroup = E;
unicode = 0045;
},
{
glyphname = Eogonek;
lastChange = "2016-09-09 11:28:50 +0000";
layers = (
{
layerId = UUID0;
paths = (
{
closed = 1;
nodes = (
"406 -220 LINE SMOOTH",
"419 -220 OFFCURVE",
"430 -211 OFFCURVE",
"432 -198 CURVE SMOOTH",
"435 -185 LINE SMOOTH",
"438 -172 OFFCURVE",
"431 -163 OFFCURVE",
"418 -163 CURVE SMOOTH",
"403 -163 LINE SMOOTH",
"359 -163 OFFCURVE",
"333 -133 OFFCURVE",
"344 -82 CURVE SMOOTH",
"354 -33 OFFCURVE",
"390 -3 OFFCURVE",
"431 0 CURVE",
"452 0 LINE SMOOTH",
"466 0 OFFCURVE",
"476 9 OFFCURVE",
"479 22 CURVE SMOOTH",
"482 37 LINE SMOOTH",
"485 51 OFFCURVE",
"478 60 OFFCURVE",
"464 60 CURVE SMOOTH",
"107 60 LINE",
"164 325 LINE",
"491 325 LINE SMOOTH",
"505 325 OFFCURVE",
"515 334 OFFCURVE",
"518 347 CURVE SMOOTH",
"521 362 LINE SMOOTH",
"524 376 OFFCURVE",
"517 385 OFFCURVE",
"503 385 CURVE SMOOTH",
"176 385 LINE",
"231 640 LINE",
"580 640 LINE SMOOTH",
"594 640 OFFCURVE",
"604 649 OFFCURVE",
"607 662 CURVE SMOOTH",
"610 677 LINE SMOOTH",
"613 691 OFFCURVE",
"606 700 OFFCURVE",
"592 700 CURVE SMOOTH",
"202 700 LINE SMOOTH",
"189 700 OFFCURVE",
"178 691 OFFCURVE",
"175 677 CURVE SMOOTH",
"36 22 LINE SMOOTH",
"33 9 OFFCURVE",
"41 0 OFFCURVE",
"54 0 CURVE SMOOTH",
"323 0 LINE",
"304 -22 OFFCURVE",
"291 -50 OFFCURVE",
"284 -82 CURVE SMOOTH",
"266 -167 OFFCURVE",
"306 -220 OFFCURVE",
"387 -220 CURVE SMOOTH"
);
}
);
width = 591;
},
{
layerId = "A0D8A2CD-35BA-4362-A7DB-C0E331BFD9A3";
paths = (
{
closed = 1;
nodes = (
"493 -220 LINE",
"508 -220 OFFCURVE",
"522 -208 OFFCURVE",
"525 -193 CURVE",
"540 -125 LINE",
"543 -110 OFFCURVE",
"534 -98 OFFCURVE",
"519 -98 CURVE",
"509 -98 LINE",
"470 -98 OFFCURVE",
"465 -70 OFFCURVE",
"469 -49 CURVE SMOOTH",
"473 -29 OFFCURVE",
"489 -2 OFFCURVE",
"524 0 CURVE",
"540 0 LINE",
"555 0 OFFCURVE",
"569 12 OFFCURVE",
"572 27 CURVE",
"602 168 LINE",
"605 183 OFFCURVE",
"596 195 OFFCURVE",
"581 195 CURVE",
"273 195 LINE",
"286 258 LINE",
"564 258 LINE",
"579 258 OFFCURVE",
"594 270 OFFCURVE",
"597 285 CURVE",
"625 415 LINE",
"628 430 OFFCURVE",
"618 442 OFFCURVE",
"603 442 CURVE",
"325 442 LINE",
"339 505 LINE",
"639 505 LINE",
"654 505 OFFCURVE",
"668 517 OFFCURVE",
"672 532 CURVE",
"702 673 LINE",
"705 688 OFFCURVE",
"695 700 OFFCURVE",
"680 700 CURVE",
"167 700 LINE",
"152 700 OFFCURVE",
"138 688 OFFCURVE",
"135 673 CURVE",
"-3 27 LINE",
"-6 12 OFFCURVE",
"4 0 OFFCURVE",
"19 0 CURVE",
"354 0 LINE",
"349 -12 OFFCURVE",
"346 -25 OFFCURVE",
"343 -39 CURVE SMOOTH",
"323 -134 OFFCURVE",
"368 -220 OFFCURVE",
"489 -220 CURVE"
);
}
);
width = 666;
}
);
leftKerningGroup = I;
rightKerningGroup = E;
unicode = 0118;
},
{
glyphname = F;
lastChange = "2016-09-09 11:28:50 +0000";
layers = (
{
layerId = UUID0;
paths = (
{
closed = 1;
nodes = (
"202 700 LINE",
"189 700 OFFCURVE",
"178 691 OFFCURVE",
"175 677 CURVE SMOOTH",
"36 22 LINE SMOOTH",
"33 9 OFFCURVE",
"41 0 OFFCURVE",
"54 0 CURVE SMOOTH",
"72 0 LINE SMOOTH",
"86 0 OFFCURVE",
"96 9 OFFCURVE",
"99 22 CURVE SMOOTH",
"161 311 LINE",
"486 311 LINE SMOOTH",
"500 311 OFFCURVE",
"511 320 OFFCURVE",
"513 333 CURVE SMOOTH",
"516 348 LINE SMOOTH",
"519 362 OFFCURVE",
"512 371 OFFCURVE",
"498 371 CURVE SMOOTH",
"173 371 LINE",
"231 640 LINE",
"576 640 LINE SMOOTH",
"590 640 OFFCURVE",
"600 649 OFFCURVE",
"603 662 CURVE SMOOTH",
"606 677 LINE SMOOTH",
"609 691 OFFCURVE",
"602 700 OFFCURVE",
"588 700 CURVE SMOOTH"
);
}
);
width = 573;
},
{
layerId = "A0D8A2CD-35BA-4362-A7DB-C0E331BFD9A3";
paths = (
{
closed = 1;
nodes = (
"167 700 LINE SMOOTH",
"152 700 OFFCURVE",
"138 688 OFFCURVE",
"135 673 CURVE SMOOTH",
"-3 27 LINE SMOOTH",
"-6 12 OFFCURVE",
"4 0 OFFCURVE",
"19 0 CURVE SMOOTH",
"210 0 LINE SMOOTH",
"225 0 OFFCURVE",
"239 12 OFFCURVE",
"242 27 CURVE SMOOTH",
"282 215 LINE",
"548 215 LINE SMOOTH",
"563 215 OFFCURVE",
"578 227 OFFCURVE",
"581 242 CURVE SMOOTH",
"613 393 LINE SMOOTH",
"616 408 OFFCURVE",
"607 420 OFFCURVE",
"592 420 CURVE SMOOTH",
"326 420 LINE",
"342 494 LINE",
"628 494 LINE SMOOTH",
"643 494 OFFCURVE",
"657 506 OFFCURVE",
"660 521 CURVE SMOOTH",
"693 673 LINE SMOOTH",
"696 688 OFFCURVE",
"686 700 OFFCURVE",
"671 700 CURVE SMOOTH"
);
}
);
width = 646;
}
);
leftKerningGroup = I;
unicode = 0046;
},
{
glyphname = G;
lastChange = "2016-09-09 11:22:50 +0000";
layers = (
{
guideLines = (
{
position = "{-150, -10}";
},
{
position = "{-150, 260}";
},
{
position = "{-150, 440}";
},
{
angle = 90;
position = "{184, 0}";
},
{
angle = 90;
position = "{-17, 0}";
},
{
angle = 90;
position = "{454, 0}";
},
{
angle = 90;
position = "{-83, 0}";
}
);
hints = (
{
horizontal = 1;
place = "{500, 0}";
type = Tag;
name = hr00;
}
);
layerId = UUID0;
paths = (
{
closed = 1;
nodes = (
"455 -10 OFFCURVE",
"576 100 OFFCURVE",
"610 260 CURVE SMOOTH",
"629 348 LINE SMOOTH",
"632 362 OFFCURVE",
"625 371 OFFCURVE",
"611 371 CURVE SMOOTH",
"397 371 LINE SMOOTH",
"384 371 OFFCURVE",
"373 362 OFFCURVE",
"370 348 CURVE SMOOTH",
"367 334 LINE SMOOTH",
"364 320 OFFCURVE",
"371 311 OFFCURVE",
"384 311 CURVE SMOOTH",
"558 311 LINE",
"547 260 LINE SMOOTH",
"517 115 OFFCURVE",
"414 50 OFFCURVE",
"296 50 CURVE SMOOTH",
"177 50 OFFCURVE",
"110 110 OFFCURVE",
"136 260 CURVE SMOOTH",
"147 320 OFFCURVE",
"160 380 OFFCURVE",
"175 440 CURVE SMOOTH",
"212 590 OFFCURVE",
"304 650 OFFCURVE",
"423 650 CURVE SMOOTH",
"542 650 OFFCURVE",
"586 587 OFFCURVE",
"593 525 CURVE SMOOTH",
"595 510 OFFCURVE",
"598 505 OFFCURVE",
"610 505 CURVE SMOOTH",
"632 505 LINE SMOOTH",
"645 505 OFFCURVE",
"655 513 OFFCURVE",
"657 525 CURVE SMOOTH",
"666 582 OFFCURVE",
"621 710 OFFCURVE",
"436 710 CURVE SMOOTH",
"265 710 OFFCURVE",
"151 602 OFFCURVE",
"113 445 CURVE SMOOTH",
"98 385 OFFCURVE",
"83 315 OFFCURVE",
"72 255 CURVE SMOOTH",
"44 99 OFFCURVE",
"111 -10 OFFCURVE",
"283 -10 CURVE SMOOTH"
);
}
);
width = 664;
},
{
guideLines = (
{
position = "{350, 710}";
},
{
position = "{350, -10}";
},
{
position = "{350, 440}";
},
{
position = "{350, 270}";
},
{
angle = 90;
position = "{734, 0}";
},
{
angle = 90;
position = "{1078, 0}";
}
);
hints = (
{
horizontal = 1;
place = "{-2147483648, 0}";
type = Tag;
name = hr01;
}
);
layerId = "A0D8A2CD-35BA-4362-A7DB-C0E331BFD9A3";
paths = (
{
closed = 1;
nodes = (
"525 -10 OFFCURVE",
"687 85 OFFCURVE",
"726 265 CURVE SMOOTH",
"753 395 LINE SMOOTH",
"756 410 OFFCURVE",
"747 422 OFFCURVE",
"732 422 CURVE SMOOTH",
"457 422 LINE SMOOTH",
"442 422 OFFCURVE",
"427 410 OFFCURVE",
"424 395 CURVE SMOOTH",
"401 284 LINE SMOOTH",
"397 269 OFFCURVE",
"407 257 OFFCURVE",
"422 257 CURVE SMOOTH",
"469 257 LINE",
"469 256 LINE",
"458 205 OFFCURVE",
"419 185 OFFCURVE",
"369 185 CURVE SMOOTH",
"320 185 OFFCURVE",
"295 210 OFFCURVE",
"306 270 CURVE",
"316 327 OFFCURVE",
"328 385 OFFCURVE",
"342 440 CURVE",
"354 490 OFFCURVE",
"386 515 OFFCURVE",
"435 515 CURVE SMOOTH",
"484 515 OFFCURVE",
"493 486 OFFCURVE",
"498 476 CURVE SMOOTH",
"503 469 OFFCURVE",
"510 465 OFFCURVE",
"525 465 CURVE SMOOTH",
"746 465 LINE SMOOTH",
"758 465 OFFCURVE",
"770 475 OFFCURVE",
"773 487 CURVE SMOOTH",
"795 608 OFFCURVE",
"687 710 OFFCURVE",
"476 710 CURVE SMOOTH",
"279 710 OFFCURVE",
"127 622 OFFCURVE",
"83 445 CURVE",
"69 388 OFFCURVE",
"54 319 OFFCURVE",
"45 265 CURVE SMOOTH",
"13 79 OFFCURVE",
"121 -10 OFFCURVE",
"323 -10 CURVE SMOOTH"
);
}
);
width = 753;
}
);
leftKerningGroup = O;
rightKerningGroup = G;
unicode = 0047;
userData = {
com.typemytype.robofont.guides = (
{
angle = 0;
isGlobal = 0;
magnetic = 5;
x = 0;
y = "-10";
},
{
angle = 0;
isGlobal = 0;
magnetic = 5;
x = 0;
y = 260;
},
{
angle = 0;
isGlobal = 0;
magnetic = 5;
x = 0;
y = 440;
},
{
angle = 90;
isGlobal = 0;
magnetic = 5;
x = 334;
y = 0;
},
{
angle = 90;
isGlobal = 0;
magnetic = 5;
x = 133;
y = 0;
},
{
angle = 90;
isGlobal = 0;
magnetic = 5;
x = 604;
y = 0;
},
{
angle = 90;
isGlobal = 0;
magnetic = 5;
x = 67;
y = 0;
}
);
};
},
{
glyphname = H;
lastChange = "2016-09-09 11:28:50 +0000";
layers = (
{
layerId = UUID0;
paths = (
{
closed = 1;
nodes = (
"651 700 LINE",
"638 700 OFFCURVE",
"627 691 OFFCURVE",
"624 677 CURVE SMOOTH",
"562 385 LINE",
"176 385 LINE",
"238 677 LINE SMOOTH",
"241 691 OFFCURVE",
"234 700 OFFCURVE",
"220 700 CURVE SMOOTH",
"202 700 LINE SMOOTH",
"189 700 OFFCURVE",
"178 691 OFFCURVE",
"175 677 CURVE SMOOTH",
"36 22 LINE SMOOTH",
"33 9 OFFCURVE",
"41 0 OFFCURVE",
"54 0 CURVE SMOOTH",
"72 0 LINE SMOOTH",
"86 0 OFFCURVE",
"96 9 OFFCURVE",
"99 22 CURVE SMOOTH",
"164 325 LINE",
"550 325 LINE",
"485 22 LINE SMOOTH",
"482 9 OFFCURVE",
"490 0 OFFCURVE",
"503 0 CURVE SMOOTH",
"521 0 LINE SMOOTH",
"535 0 OFFCURVE",
"545 9 OFFCURVE",
"548 22 CURVE SMOOTH",
"687 677 LINE SMOOTH",
"690 691 OFFCURVE",
"683 700 OFFCURVE",
"669 700 CURVE SMOOTH"
);
}
);
width = 701;
},
{
layerId = "A0D8A2CD-35BA-4362-A7DB-C0E331BFD9A3";
paths = (
{
closed = 1;
nodes = (
"579 700 LINE SMOOTH",
"564 700 OFFCURVE",
"550 688 OFFCURVE",
"547 673 CURVE SMOOTH",
"502 463 LINE",
"340 463 LINE",
"385 673 LINE SMOOTH",
"388 688 OFFCURVE",
"378 700 OFFCURVE",
"363 700 CURVE SMOOTH",
"167 700 LINE SMOOTH",
"152 700 OFFCURVE",
"138 688 OFFCURVE",
"135 673 CURVE SMOOTH",
"-3 27 LINE SMOOTH",
"-6 11 OFFCURVE",
"4 0 OFFCURVE",
"19 0 CURVE SMOOTH",
"215 0 LINE SMOOTH",
"230 0 OFFCURVE",
"244 12 OFFCURVE",
"247 27 CURVE SMOOTH",
"293 243 LINE",
"455 243 LINE",
"409 27 LINE SMOOTH",
"406 12 OFFCURVE",
"416 0 OFFCURVE",
"431 0 CURVE SMOOTH",
"627 0 LINE SMOOTH",
"642 0 OFFCURVE",
"656 12 OFFCURVE",
"659 27 CURVE SMOOTH",
"797 673 LINE SMOOTH",
"800 688 OFFCURVE",
"790 700 OFFCURVE",
"775 700 CURVE SMOOTH"
);
}
);
width = 771;
}
);
leftKerningGroup = I;
rightKerningGroup = I;
unicode = 0048;
},
{
glyphname = Hbar;
lastChange = "2016-09-09 11:28:50 +0000";
layers = (
{
background = {
components = (
{
name = H;
}
);
};
components = (
{
name = H;
}
);
layerId = UUID0;
paths = (
{
closed = 1;
nodes = (
"714 511 LINE SMOOTH",
"728 511 OFFCURVE",
"739 520 OFFCURVE",
"742 533 CURVE SMOOTH",
"745 548 LINE SMOOTH",
"748 562 OFFCURVE",
"741 571 OFFCURVE",
"727 571 CURVE SMOOTH",
"100 571 LINE SMOOTH",
"87 571 OFFCURVE",
"76 562 OFFCURVE",
"73 548 CURVE SMOOTH",
"70 533 LINE SMOOTH",
"67 520 OFFCURVE",
"74 511 OFFCURVE",
"87 511 CURVE SMOOTH"
);
}
);
width = 710;
},
{
background = {
paths = (
{
closed = 1;
nodes = (
"725 521 LINE SMOOTH",
"740 521 OFFCURVE",
"755 533 OFFCURVE",
"758 548 CURVE SMOOTH",
"772 616 LINE SMOOTH",
"775 631 OFFCURVE",
"766 643 OFFCURVE",
"751 643 CURVE SMOOTH",
"157 643 LINE SMOOTH",
"142 643 OFFCURVE",
"127 631 OFFCURVE",
"124 616 CURVE SMOOTH",
"110 548 LINE SMOOTH",
"107 533 OFFCURVE",
"116 521 OFFCURVE",
"131 521 CURVE SMOOTH"
);
}
);
};
components = (
{
name = H;
}
);
layerId = "A0D8A2CD-35BA-4362-A7DB-C0E331BFD9A3";
paths = (
{
closed = 1;
nodes = (
"725 521 LINE SMOOTH",
"740 521 OFFCURVE",
"755 533 OFFCURVE",
"758 548 CURVE SMOOTH",
"772 616 LINE SMOOTH",
"775 631 OFFCURVE",
"766 643 OFFCURVE",
"751 643 CURVE SMOOTH",
"157 643 LINE SMOOTH",
"142 643 OFFCURVE",
"127 631 OFFCURVE",
"124 616 CURVE SMOOTH",
"110 548 LINE SMOOTH",
"107 533 OFFCURVE",
"116 521 OFFCURVE",
"131 521 CURVE SMOOTH"
);
}
);
width = 771;
}
);
leftKerningGroup = I;
rightKerningGroup = I;
unicode = 0126;
},
{
glyphname = I;
lastChange = "2016-09-09 11:28:50 +0000";
layers = (
{
layerId = UUID0;
paths = (
{
closed = 1;
nodes = (
"239 678 LINE",
"241 691 OFFCURVE",
"234 700 OFFCURVE",
"221 700 CURVE SMOOTH",
"202 700 LINE SMOOTH",
"189 700 OFFCURVE",
"178 691 OFFCURVE",
"176 678 CURVE",
"35 22 LINE SMOOTH",
"32 9 OFFCURVE",
"40 0 OFFCURVE",
"53 0 CURVE SMOOTH",
"73 0 LINE SMOOTH",
"86 0 OFFCURVE",
"96 9 OFFCURVE",
"99 22 CURVE SMOOTH"
);
}
);
width = 252;
},
{
layerId = "A0D8A2CD-35BA-4362-A7DB-C0E331BFD9A3";
paths = (
{
closed = 1;
nodes = (
"223 0 LINE SMOOTH",
"238 0 OFFCURVE",
"252 12 OFFCURVE",
"255 27 CURVE SMOOTH",
"393 673 LINE SMOOTH",
"396 688 OFFCURVE",
"386 700 OFFCURVE",
"371 700 CURVE SMOOTH",
"167 700 LINE SMOOTH",
"152 700 OFFCURVE",
"138 688 OFFCURVE",
"135 673 CURVE SMOOTH",
"-3 27 LINE SMOOTH",
"-6 12 OFFCURVE",
"4 0 OFFCURVE",
"19 0 CURVE SMOOTH"
);
}
);
width = 367;
}
);
leftKerningGroup = I;
rightKerningGroup = I;
unicode = 0049;
},
{
glyphname = Iogonek;
lastChange = "2016-09-09 11:25:25 +0000";
layers = (
{
guideLines = (
{
angle = 90;
position = "{-40, 0}";
}
);
hints = (
{
horizontal = 1;
place = "{-150, 0}";
type = Tag;
name = hr01;
}
);
layerId = UUID0;
paths = (
{
closed = 1;
nodes = (
"57 -220 LINE SMOOTH",
"70 -220 OFFCURVE",
"81 -211 OFFCURVE",
"84 -198 CURVE SMOOTH",
"87 -185 LINE SMOOTH",
"90 -172 OFFCURVE",
"83 -163 OFFCURVE",
"70 -163 CURVE SMOOTH",
"55 -163 LINE SMOOTH",
"11 -163 OFFCURVE",
"-15 -133 OFFCURVE",
"-4 -82 CURVE SMOOTH",
"7 -31 OFFCURVE",
"45 0 OFFCURVE",
"89 0 CURVE SMOOTH",
"104 0 LINE SMOOTH",
"117 0 OFFCURVE",
"128 9 OFFCURVE",
"131 22 CURVE SMOOTH",
"270 678 LINE SMOOTH",
"273 691 OFFCURVE",
"266 700 OFFCURVE",
"253 700 CURVE SMOOTH",
"234 700 LINE SMOOTH",
"221 700 OFFCURVE",
"210 691 OFFCURVE",
"207 678 CURVE SMOOTH",
"79 74 LINE",
"78 71 OFFCURVE",
"77 67 OFFCURVE",
"77 64 CURVE",
"75 55 LINE",
"5 46 OFFCURVE",
"-48 -5 OFFCURVE",
"-64 -82 CURVE SMOOTH",
"-82 -167 OFFCURVE",
"-43 -220 OFFCURVE",
"38 -220 CURVE SMOOTH"
);
}
);
width = 269;
},
{
hints = (
{
horizontal = 1;
place = "{-2147483648, 0}";
type = Tag;
name = hr01;
}
);
layerId = "A0D8A2CD-35BA-4362-A7DB-C0E331BFD9A3";
paths = (
{
closed = 1;
nodes = (
"190 -222 LINE SMOOTH",
"205 -222 OFFCURVE",
"220 -210 OFFCURVE",
"223 -195 CURVE SMOOTH",
"237 -127 LINE SMOOTH",
"240 -112 OFFCURVE",
"231 -100 OFFCURVE",
"216 -100 CURVE SMOOTH",
"206 -100 LINE",
"167 -100 OFFCURVE",
"162 -71 OFFCURVE",
"167 -50 CURVE SMOOTH",
"171 -29 OFFCURVE",
"188 0 OFFCURVE",
"227 0 CURVE SMOOTH",
"237 0 LINE SMOOTH",
"252 0 OFFCURVE",
"267 12 OFFCURVE",
"270 27 CURVE SMOOTH",
"407 673 LINE SMOOTH",
"410 688 OFFCURVE",
"401 700 OFFCURVE",
"386 700 CURVE SMOOTH",
"182 700 LINE SMOOTH",
"167 700 OFFCURVE",
"152 688 OFFCURVE",
"149 673 CURVE SMOOTH",
"12 27 LINE SMOOTH",
"9 12 OFFCURVE",
"18 0 OFFCURVE",
"33 0 CURVE SMOOTH",
"56 0 LINE",
"50 -16 OFFCURVE",
"44 -32 OFFCURVE",
"41 -50 CURVE SMOOTH",
"20 -145 OFFCURVE",
"55 -222 OFFCURVE",
"176 -222 CURVE SMOOTH"
);
}
);
width = 368;
}
);
leftKerningGroup = I;
rightKerningGroup = I;
unicode = 012E;
userData = {
com.typemytype.robofont.guides = (
{
angle = 90;
isGlobal = 0;
magnetic = 5;
x = 110;
y = 0;
}
);
};
},
{
glyphname = J;
lastChange = "2016-09-09 11:28:50 +0000";
layers = (
{
layerId = UUID0;
paths = (
{
closed = 1;
nodes = (
"606 677 LINE SMOOTH",
"609 691 OFFCURVE",
"602 700 OFFCURVE",
"588 700 CURVE SMOOTH",
"179 700 LINE SMOOTH",
"166 700 OFFCURVE",
"155 691 OFFCURVE",
"153 678 CURVE",
"149 662 LINE SMOOTH",
"146 649 OFFCURVE",
"154 640 OFFCURVE",
"167 640 CURVE SMOOTH",
"535 640 LINE",
"453 256 LINE SMOOTH",
"427 135 OFFCURVE",
"358 50 OFFCURVE",
"226 50 CURVE SMOOTH",
"129 50 OFFCURVE",
"68 91 OFFCURVE",
"82 195 CURVE SMOOTH",
"84 207 OFFCURVE",
"77 216 OFFCURVE",
"64 216 CURVE SMOOTH",
"42 216 LINE SMOOTH",
"28 216 OFFCURVE",
"21 206 OFFCURVE",
"19 194 CURVE SMOOTH",
"0 52 OFFCURVE",
"106 -10 OFFCURVE",
"226 -10 CURVE SMOOTH",
"403 -10 OFFCURVE",
"484 99 OFFCURVE",
"517 255 CURVE"
);
}
);
width = 614;
},
{
layerId = "A0D8A2CD-35BA-4362-A7DB-C0E331BFD9A3";
paths = (
{
closed = 1;
nodes = (
"730 673 LINE SMOOTH",
"733 688 OFFCURVE",
"723 700 OFFCURVE",
"708 700 CURVE SMOOTH",
"179 700 LINE SMOOTH",
"164 700 OFFCURVE",
"150 688 OFFCURVE",
"147 673 CURVE SMOOTH",
"115 524 LINE SMOOTH",
"112 509 OFFCURVE",
"121 497 OFFCURVE",
"136 497 CURVE SMOOTH",
"433 497 LINE",
"384 266 LINE SMOOTH",
"371 205 OFFCURVE",
"344 185 OFFCURVE",
"308 185 CURVE SMOOTH",
"275 185 OFFCURVE",
"266 198 OFFCURVE",
"258 225 CURVE SMOOTH",
"253 247 OFFCURVE",
"246 257 OFFCURVE",
"224 257 CURVE SMOOTH",
"20 257 LINE SMOOTH",
"8 257 OFFCURVE",
"-4 247 OFFCURVE",
"-7 235 CURVE SMOOTH",
"-37 78 OFFCURVE",
"143 -10 OFFCURVE",
"288 -10 CURVE SMOOTH",
"490 -10 OFFCURVE",
"602 73 OFFCURVE",
"641 258 CURVE SMOOTH"
);
}
);
width = 698;
}
);
leftKerningGroup = J;
rightKerningGroup = U;
unicode = 004A;
},
{
glyphname = K;
lastChange = "2016-09-09 11:28:50 +0000";
layers = (
{
layerId = UUID0;
paths = (
{
closed = 1;
nodes = (
"74 0 LINE",
"88 0 OFFCURVE",
"96 9 OFFCURVE",
"99 22 CURVE",
"162 318 LINE",
"422 15 LINE SMOOTH",
"426 10 OFFCURVE",
"434 0 OFFCURVE",
"455 0 CURVE",
"473 0 LINE",
"488 0 OFFCURVE",
"501 17 OFFCURVE",
"487 34 CURVE SMOOTH",
"203 365 LINE",
"588 666 LINE SMOOTH",
"600 675 OFFCURVE",
"594 700 OFFCURVE",
"574 700 CURVE",
"556 700 LINE",
"533 700 OFFCURVE",
"521 689 OFFCURVE",
"516 685 CURVE",
"186 427 LINE",
"238 677 LINE",
"241 691 OFFCURVE",
"234 700 OFFCURVE",
"220 700 CURVE",
"200 700 LINE SMOOTH",
"187 700 OFFCURVE",
"178 691 OFFCURVE",
"175 677 CURVE SMOOTH",
"36 22 LINE",
"33 9 OFFCURVE",
"41 0 OFFCURVE",
"54 0 CURVE"
);
}
);
width = 562;
},
{
layerId = "A0D8A2CD-35BA-4362-A7DB-C0E331BFD9A3";
paths = (
{
closed = 1;
nodes = (
"210 0 LINE SMOOTH",
"225 0 OFFCURVE",
"239 12 OFFCURVE",
"242 27 CURVE SMOOTH",
"288 241 LINE",
"373 23 LINE",
"378 10 OFFCURVE",
"389 0 OFFCURVE",
"410 0 CURVE SMOOTH",
"623 0 LINE SMOOTH",
"638 0 OFFCURVE",
"657 15 OFFCURVE",
"649 33 CURVE SMOOTH",
"517 344 LINE",
"776 667 LINE SMOOTH",
"787 680 OFFCURVE",
"782 700 OFFCURVE",
"764 700 CURVE SMOOTH",
"538 700 LINE SMOOTH",
"516 700 OFFCURVE",
"502 689 OFFCURVE",
"494 678 CURVE",
"337 475 LINE",
"380 673 LINE SMOOTH",
"383 688 OFFCURVE",
"373 700 OFFCURVE",
"358 700 CURVE SMOOTH",
"167 700 LINE SMOOTH",
"152 700 OFFCURVE",
"138 688 OFFCURVE",
"135 673 CURVE SMOOTH",
"-3 27 LINE SMOOTH",
"-6 12 OFFCURVE",
"4 0 OFFCURVE",
"19 0 CURVE SMOOTH"
);
}
);
width = 712;
}
);
leftKerningGroup = I;
rightKerningGroup = K;
unicode = 004B;
},
{
glyphname = L;
lastChange = "2016-09-09 11:28:50 +0000";
layers = (
{
layerId = UUID0;
paths = (
{
closed = 1;
nodes = (
"440 0 LINE SMOOTH",
"454 0 OFFCURVE",
"464 9 OFFCURVE",
"467 22 CURVE SMOOTH",
"470 37 LINE SMOOTH",
"473 51 OFFCURVE",
"466 60 OFFCURVE",
"452 60 CURVE SMOOTH",
"107 60 LINE",
"239 678 LINE",
"241 691 OFFCURVE",
"234 700 OFFCURVE",
"221 700 CURVE SMOOTH",
"202 700 LINE SMOOTH",
"189 700 OFFCURVE",
"178 691 OFFCURVE",
"176 678 CURVE",
"36 22 LINE SMOOTH",
"33 9 OFFCURVE",
"41 0 OFFCURVE",
"54 0 CURVE SMOOTH"
);
}
);
width = 540;
},
{
layerId = "A0D8A2CD-35BA-4362-A7DB-C0E331BFD9A3";
paths = (
{
closed = 1;
nodes = (
"523 0 LINE SMOOTH",
"538 0 OFFCURVE",
"552 12 OFFCURVE",
"555 27 CURVE SMOOTH",
"587 178 LINE SMOOTH",
"591 193 OFFCURVE",
"581 205 OFFCURVE",
"566 205 CURVE SMOOTH",
"289 205 LINE",
"389 673 LINE SMOOTH",
"392 688 OFFCURVE",
"382 700 OFFCURVE",
"367 700 CURVE SMOOTH",
"167 700 LINE SMOOTH",
"152 700 OFFCURVE",
"138 688 OFFCURVE",
"135 673 CURVE SMOOTH",
"-3 27 LINE SMOOTH",
"-6 12 OFFCURVE",
"4 0 OFFCURVE",
"19 0 CURVE SMOOTH"
);
}
);
width = 623;
}
);
leftKerningGroup = I;
rightKerningGroup = L;
unicode = 004C;
},
{
glyphname = Lcaron;
lastChange = "2016-09-09 11:30:33 +0000";
layers = (
{
components = (
{
name = L;
},
{
name = commaaccentcomb.case;
transform = "{1, 0, 0, 1, 284, 760}";
}
);
layerId = UUID0;
width = 540;
},
{
components = (
{
name = commaaccentcomb.case;
transform = "{1, 0, 0, 1, 389, 760}";
}
);
layerId = "A0D8A2CD-35BA-4362-A7DB-C0E331BFD9A3";
paths = (
{
closed = 1;
nodes = (
"523 0 LINE SMOOTH",
"538 0 OFFCURVE",
"552 12 OFFCURVE",
"555 27 CURVE SMOOTH",
"587 178 LINE SMOOTH",
"591 193 OFFCURVE",
"581 205 OFFCURVE",
"566 205 CURVE SMOOTH",
"289 205 LINE",
"389 673 LINE SMOOTH",
"392 688 OFFCURVE",
"382 700 OFFCURVE",
"367 700 CURVE SMOOTH",
"167 700 LINE SMOOTH",
"152 700 OFFCURVE",
"138 688 OFFCURVE",
"135 673 CURVE SMOOTH",
"-3 27 LINE SMOOTH",
"-6 12 OFFCURVE",
"4 0 OFFCURVE",
"19 0 CURVE SMOOTH"
);
}
);
width = 630;
}
);
leftKerningGroup = I;
rightKerningGroup = L;
unicode = 013D;
},
{
glyphname = Ldot;
lastChange = "2016-09-09 11:28:50 +0000";
layers = (
{
components = (
{
name = L;
},
{
name = dotaccent;
transform = "{1, 0, 0, 1, 272, -304}";
}
);
layerId = UUID0;
width = 540;
},
{
components = (
{
name = L;
}
);
layerId = "A0D8A2CD-35BA-4362-A7DB-C0E331BFD9A3";
paths = (
{
closed = 1;
nodes = (
"526 309 LINE SMOOTH",
"539 309 OFFCURVE",
"551 319 OFFCURVE",
"554 332 CURVE SMOOTH",
"583 468 LINE SMOOTH",
"586 481 OFFCURVE",
"578 491 OFFCURVE",
"565 491 CURVE SMOOTH",
"429 491 LINE SMOOTH",
"416 491 OFFCURVE",
"404 481 OFFCURVE",
"401 468 CURVE SMOOTH",
"372 332 LINE SMOOTH",
"369 319 OFFCURVE",
"377 309 OFFCURVE",
"390 309 CURVE SMOOTH"
);
}
);
width = 623;
}
);
leftKerningGroup = I;
rightKerningGroup = L;
unicode = 013F;
},
{
glyphname = Lslash;
lastChange = "2016-09-09 11:28:50 +0000";
layers = (
{
layerId = UUID0;
paths = (
{
closed = 1;
nodes = (
"449 0 LINE SMOOTH",
"462 0 OFFCURVE",
"472 9 OFFCURVE",
"475 22 CURVE SMOOTH",
"479 38 LINE SMOOTH",
"481 51 OFFCURVE",
"474 60 OFFCURVE",
"461 60 CURVE SMOOTH",
"115 60 LINE",
"170 317 LINE",
"338 377 LINE SMOOTH",
"355 383 OFFCURVE",
"362 387 OFFCURVE",
"365 402 CURVE SMOOTH",
"369 421 LINE SMOOTH",
"372 433 OFFCURVE",
"365 439 OFFCURVE",
"354 439 CURVE SMOOTH",
"350 439 OFFCURVE",
"346 438 OFFCURVE",
"340 436 CURVE SMOOTH",
"183 380 LINE",
"247 678 LINE SMOOTH",
"249 691 OFFCURVE",
"242 700 OFFCURVE",
"229 700 CURVE SMOOTH",
"210 700 LINE SMOOTH",
"197 700 OFFCURVE",
"186 691 OFFCURVE",
"184 678 CURVE SMOOTH",
"115 355 LINE",
"41 329 LINE SMOOTH",
"24 323 OFFCURVE",
"17 319 OFFCURVE",
"14 304 CURVE SMOOTH",
"10 285 LINE SMOOTH",
"8 273 OFFCURVE",
"14 267 OFFCURVE",
"25 267 CURVE SMOOTH",
"29 267 OFFCURVE",
"33 268 OFFCURVE",
"39 270 CURVE SMOOTH",
"102 292 LINE",
"44 22 LINE SMOOTH",
"41 9 OFFCURVE",
"49 0 OFFCURVE",
"62 0 CURVE SMOOTH"
);
}
);
width = 548;
},
{
layerId = "A0D8A2CD-35BA-4362-A7DB-C0E331BFD9A3";
paths = (
{
closed = 1;
nodes = (
"531 0 LINE SMOOTH",
"546 0 OFFCURVE",
"560 12 OFFCURVE",
"563 27 CURVE SMOOTH",
"595 178 LINE SMOOTH",
"599 193 OFFCURVE",
"589 205 OFFCURVE",
"574 205 CURVE SMOOTH",
"297 205 LINE",
"323 325 LINE",
"491 386 LINE SMOOTH",
"508 392 OFFCURVE",
"516 401 OFFCURVE",
"520 419 CURVE SMOOTH",
"543 527 LINE SMOOTH",
"545 539 OFFCURVE",
"538 548 OFFCURVE",
"526 548 CURVE SMOOTH",
"524 548 OFFCURVE",
"520 547 OFFCURVE",
"514 545 CURVE SMOOTH",
"357 488 LINE",
"397 673 LINE SMOOTH",
"400 688 OFFCURVE",
"390 700 OFFCURVE",
"375 700 CURVE SMOOTH",
"175 700 LINE SMOOTH",
"160 700 OFFCURVE",
"146 688 OFFCURVE",
"143 673 CURVE SMOOTH",
"82 388 LINE",
"52 377 LINE SMOOTH",
"34 371 OFFCURVE",
"26 362 OFFCURVE",
"23 344 CURVE SMOOTH",
"0 236 LINE SMOOTH",
"-3 224 OFFCURVE",
"4 215 OFFCURVE",
"16 215 CURVE SMOOTH",
"18 215 OFFCURVE",
"22 216 OFFCURVE",
"28 218 CURVE SMOOTH",
"47 225 LINE",
"5 27 LINE SMOOTH",
"2 12 OFFCURVE",
"12 0 OFFCURVE",
"27 0 CURVE SMOOTH"
);
}
);
width = 631;
}
);
leftKerningGroup = I;
rightKerningGroup = L;
unicode = 0141;
},
{
glyphname = M;
lastChange = "2016-09-09 11:28:50 +0000";
layers = (
{
layerId = UUID0;
paths = (
{
closed = 1;
nodes = (
"74 0 LINE SMOOTH",
"87 0 OFFCURVE",
"97 8 OFFCURVE",
"100 22 CURVE SMOOTH",
"217 574 LINE",
"333 188 LINE",
"337 175 OFFCURVE",
"344 168 OFFCURVE",
"360 168 CURVE",
"381 168 LINE",
"397 168 OFFCURVE",
"407 176 OFFCURVE",
"416 188 CURVE SMOOTH",
"678 548 LINE",
"566 22 LINE",
"563 9 OFFCURVE",
"571 0 OFFCURVE",
"584 0 CURVE SMOOTH",
"603 0 LINE SMOOTH",
"617 0 OFFCURVE",
"627 9 OFFCURVE",
"630 22 CURVE SMOOTH",
"769 677 LINE SMOOTH",
"772 691 OFFCURVE",
"765 700 OFFCURVE",
"751 700 CURVE SMOOTH",
"726 700 LINE SMOOTH",
"713 700 OFFCURVE",
"706 691 OFFCURVE",
"703 687 CURVE",
"381 245 LINE",
"248 687 LINE SMOOTH",
"247 691 OFFCURVE",
"242 700 OFFCURVE",
"229 700 CURVE SMOOTH",
"203 700 LINE SMOOTH",
"189 700 OFFCURVE",
"178 691 OFFCURVE",
"175 677 CURVE SMOOTH",
"36 22 LINE SMOOTH",
"33 9 OFFCURVE",
"41 0 OFFCURVE",
"55 0 CURVE SMOOTH"
);
}
);
width = 783;
},
{
layerId = "A0D8A2CD-35BA-4362-A7DB-C0E331BFD9A3";
paths = (
{
closed = 1;
nodes = (
"200 0 LINE SMOOTH",
"215 0 OFFCURVE",
"229 12 OFFCURVE",
"232 27 CURVE SMOOTH",
"290 301 LINE",
"334 193 LINE SMOOTH",
"338 182 OFFCURVE",
"345 168 OFFCURVE",
"365 168 CURVE SMOOTH",
"435 168 LINE SMOOTH",
"455 168 OFFCURVE",
"468 182 OFFCURVE",
"478 193 CURVE SMOOTH",
"566 301 LINE",
"508 27 LINE SMOOTH",
"505 12 OFFCURVE",
"515 0 OFFCURVE",
"530 0 CURVE SMOOTH",
"711 0 LINE SMOOTH",
"726 0 OFFCURVE",
"740 12 OFFCURVE",
"743 27 CURVE SMOOTH",
"881 673 LINE SMOOTH",
"884 688 OFFCURVE",
"874 700 OFFCURVE",
"859 700 CURVE SMOOTH",
"701 700 LINE SMOOTH",
"674 700 OFFCURVE",
"658 680 OFFCURVE",
"653 673 CURVE SMOOTH",
"457 433 LINE",
"363 673 LINE SMOOTH",
"360 680 OFFCURVE",
"352 700 OFFCURVE",
"325 700 CURVE SMOOTH",
"167 700 LINE SMOOTH",
"152 700 OFFCURVE",
"138 688 OFFCURVE",
"135 673 CURVE SMOOTH",
"-3 27 LINE SMOOTH",
"-6 12 OFFCURVE",
"4 0 OFFCURVE",
"19 0 CURVE SMOOTH"
);
}
);
width = 855;
}
);
leftKerningGroup = I;
rightKerningGroup = I;
unicode = 004D;
},
{
glyphname = N;
lastChange = "2016-09-09 11:28:50 +0000";
layers = (
{
layerId = UUID0;
paths = (
{
closed = 1;
nodes = (
"73 0 LINE SMOOTH",
"87 0 OFFCURVE",
"97 9 OFFCURVE",
"100 22 CURVE SMOOTH",
"219 581 LINE",
"469 12 LINE SMOOTH",
"471 7 OFFCURVE",
"475 0 OFFCURVE",
"488 0 CURVE",
"508 0 LINE",
"521 0 OFFCURVE",
"531 9 OFFCURVE",
"534 23 CURVE",
"673 677 LINE",
"676 691 OFFCURVE",
"669 700 OFFCURVE",
"655 700 CURVE",
"637 700 LINE",
"624 700 OFFCURVE",
"613 691 OFFCURVE",
"610 677 CURVE",
"491 117 LINE",
"240 688 LINE SMOOTH",
"238 693 OFFCURVE",
"234 700 OFFCURVE",
"221 700 CURVE SMOOTH",
"201 700 LINE SMOOTH",
"188 700 OFFCURVE",
"178 691 OFFCURVE",
"175 677 CURVE",
"36 22 LINE SMOOTH",
"33 9 OFFCURVE",
"41 0 OFFCURVE",
"54 0 CURVE SMOOTH"
);
}
);
width = 687;
},
{
layerId = "A0D8A2CD-35BA-4362-A7DB-C0E331BFD9A3";
paths = (
{
closed = 1;
nodes = (
"200 0 LINE SMOOTH",
"215 0 OFFCURVE",
"229 12 OFFCURVE",
"232 27 CURVE SMOOTH",
"286 278 LINE",
"400 23 LINE SMOOTH",
"403 17 OFFCURVE",
"410 0 OFFCURVE",
"437 0 CURVE SMOOTH",
"595 0 LINE SMOOTH",
"610 0 OFFCURVE",
"624 12 OFFCURVE",
"627 27 CURVE SMOOTH",
"765 673 LINE SMOOTH",
"768 688 OFFCURVE",
"758 700 OFFCURVE",
"743 700 CURVE SMOOTH",
"562 700 LINE SMOOTH",
"547 700 OFFCURVE",
"533 688 OFFCURVE",
"530 673 CURVE SMOOTH",
"472 400 LINE",
"361 677 LINE SMOOTH",
"359 684 OFFCURVE",
"352 700 OFFCURVE",
"325 700 CURVE SMOOTH",
"167 700 LINE SMOOTH",
"152 700 OFFCURVE",
"138 688 OFFCURVE",
"135 673 CURVE SMOOTH",
"-3 27 LINE SMOOTH",
"-6 12 OFFCURVE",
"4 0 OFFCURVE",
"19 0 CURVE SMOOTH"
);
}
);
width = 739;
}
);
leftKerningGroup = I;
rightKerningGroup = I;
unicode = 004E;
},
{
glyphname = O;
lastChange = "2016-09-09 11:28:50 +0000";
layers = (
{
layerId = UUID0;
paths = (
{
closed = 1;
nodes = (
"254 710 OFFCURVE",
"140 620 OFFCURVE",
"96 434 CURVE SMOOTH",
"81 374 OFFCURVE",
"71 326 OFFCURVE",
"60 266 CURVE SMOOTH",
"25 77 OFFCURVE",
"116 -10 OFFCURVE",
"272 -10 CURVE SMOOTH",
"428 -10 OFFCURVE",
"543 77 OFFCURVE",
"588 266 CURVE SMOOTH",
"603 326 OFFCURVE",
"613 374 OFFCURVE",
"624 434 CURVE SMOOTH",
"658 620 OFFCURVE",
"568 710 OFFCURVE",
"412 710 CURVE SMOOTH"
);
},
{
closed = 1;
nodes = (
"535 650 OFFCURVE",
"588 585 OFFCURVE",
"560 429 CURVE SMOOTH",
"549 369 OFFCURVE",
"541 331 OFFCURVE",
"526 271 CURVE SMOOTH",
"488 115 OFFCURVE",
"391 50 OFFCURVE",
"272 50 CURVE SMOOTH",
"148 50 OFFCURVE",
"96 115 OFFCURVE",
"124 271 CURVE SMOOTH",
"135 331 OFFCURVE",
"143 369 OFFCURVE",
"158 429 CURVE SMOOTH",
"196 585 OFFCURVE",
"291 650 OFFCURVE",
"412 650 CURVE SMOOTH"
);
}
);
width = 662;
},
{
layerId = "A0D8A2CD-35BA-4362-A7DB-C0E331BFD9A3";
paths = (
{
closed = 1;
nodes = (
"765 611 OFFCURVE",
"615 710 OFFCURVE",
"439 710 CURVE SMOOTH",
"223 710 OFFCURVE",
"111 611 OFFCURVE",
"67 436 CURVE SMOOTH",
"53 379 OFFCURVE",
"39 314 OFFCURVE",
"30 260 CURVE SMOOTH",
"0 81 OFFCURVE",
"150 -10 OFFCURVE",
"326 -10 CURVE SMOOTH",
"542 -10 OFFCURVE",
"652 81 OFFCURVE",
"698 260 CURVE SMOOTH",
"711 314 OFFCURVE",
"725 379 OFFCURVE",
"735 436 CURVE SMOOTH"
);
},
{
closed = 1;
nodes = (
"301 323 OFFCURVE",
"313 379 OFFCURVE",
"327 434 CURVE SMOOTH",
"341 490 OFFCURVE",
"375 515 OFFCURVE",
"418 515 CURVE SMOOTH",
"461 515 OFFCURVE",
"485 490 OFFCURVE",
"475 434 CURVE SMOOTH",
"465 379 OFFCURVE",
"453 323 OFFCURVE",
"439 266 CURVE SMOOTH",
"425 210 OFFCURVE",
"392 185 OFFCURVE",
"348 185 CURVE SMOOTH",
"304 185 OFFCURVE",
"281 210 OFFCURVE",
"291 266 CURVE SMOOTH"
);
}
);
width = 742;
}
);
leftKerningGroup = O;
rightKerningGroup = O;
unicode = 004F;
},
{
glyphname = Oslash;
lastChange = "2016-09-09 11:24:12 +0000";
layers = (
{
guideLines = (
{
position = "{-150, 145}";
},
{
angle = 90;
position = "{201, 0}";
},
{
angle = 90;
position = "{529, 0}";
},
{
angle = 90;
position = "{-65, 0}";
},
{
angle = 90;
position = "{-130, 0}";
}
);
hints = (
{
horizontal = 1;
place = "{560, 0}";
type = Tag;
name = hr00;
}
);
layerId = UUID0;
paths = (
{
closed = 1;
nodes = (
"457 -10 OFFCURVE",
"569 77 OFFCURVE",
"614 266 CURVE SMOOTH",
"628 323 OFFCURVE",
"638 370 OFFCURVE",
"648 427 CURVE",
"693 443 LINE SMOOTH",
"711 449 OFFCURVE",
"717 453 OFFCURVE",
"721 468 CURVE SMOOTH",
"725 487 LINE SMOOTH",
"727 499 OFFCURVE",
"721 505 OFFCURVE",
"710 505 CURVE SMOOTH",
"706 505 OFFCURVE",
"701 504 OFFCURVE",
"696 502 CURVE SMOOTH",
"656 488 LINE",
"666 637 OFFCURVE",
"584 710 OFFCURVE",
"444 710 CURVE SMOOTH",
"288 710 OFFCURVE",
"166 620 OFFCURVE",
"121 434 CURVE SMOOTH",
"108 380 OFFCURVE",
"98 336 OFFCURVE",
"89 284 CURVE",
"41 267 LINE SMOOTH",
"24 261 OFFCURVE",
"17 257 OFFCURVE",
"14 242 CURVE SMOOTH",
"10 223 LINE SMOOTH",
"7 211 OFFCURVE",
"14 205 OFFCURVE",
"25 205 CURVE SMOOTH",
"29 205 OFFCURVE",
"33 206 OFFCURVE",
"38 208 CURVE SMOOTH",
"79 222 LINE",
"63 63 OFFCURVE",
"138 -10 OFFCURVE",
"291 -10 CURVE SMOOTH"
);
},
{
closed = 1;
nodes = (
"196 50 OFFCURVE",
"129 108 OFFCURVE",
"145 246 CURVE",
"581 403 LINE",
"572 357 OFFCURVE",
"564 322 OFFCURVE",
"552 271 CURVE SMOOTH",
"514 115 OFFCURVE",
"418 50 OFFCURVE",
"304 50 CURVE SMOOTH"
);
},
{
closed = 1;
nodes = (
"163 349 OFFCURVE",
"172 383 OFFCURVE",
"183 429 CURVE SMOOTH",
"222 585 OFFCURVE",
"318 650 OFFCURVE",
"431 650 CURVE SMOOTH",
"535 650 OFFCURVE",
"602 595 OFFCURVE",
"590 464 CURVE",
"156 309 LINE"
);
}
);
width = 682;
},
{
hints = (
{
horizontal = 1;
place = "{-2147483648, 0}";
type = Tag;
name = hr00;
}
);
layerId = "A0D8A2CD-35BA-4362-A7DB-C0E331BFD9A3";
paths = (
{
closed = 1;
nodes = (
"538 -10 OFFCURVE",
"687 81 OFFCURVE",
"733 260 CURVE",
"744 305 OFFCURVE",
"757 359 OFFCURVE",
"766 409 CURVE",
"788 417 LINE",
"805 423 OFFCURVE",
"813 432 OFFCURVE",
"817 450 CURVE",
"840 558 LINE",
"842 570 OFFCURVE",
"835 579 OFFCURVE",
"823 579 CURVE SMOOTH",
"821 579 OFFCURVE",
"817 578 OFFCURVE",
"812 576 CURVE",
"766 559 LINE",
"736 656 OFFCURVE",
"638 710 OFFCURVE",
"495 710 CURVE SMOOTH",
"299 710 OFFCURVE",
"147 611 OFFCURVE",
"103 436 CURVE SMOOTH",
"92 395 OFFCURVE",
"83 351 OFFCURVE",
"74 309 CURVE",
"49 300 LINE",
"32 294 OFFCURVE",
"24 285 OFFCURVE",
"20 267 CURVE",
"-3 159 LINE",
"-6 147 OFFCURVE",
"2 138 OFFCURVE",
"14 138 CURVE SMOOTH",
"16 138 OFFCURVE",
"20 139 OFFCURVE",
"25 141 CURVE",
"65 155 LINE",
"87 45 OFFCURVE",
"188 -10 OFFCURVE",
"342 -10 CURVE SMOOTH"
);
},
{
closed = 1;
nodes = (
"344 185 OFFCURVE",
"322 205 OFFCURVE",
"324 249 CURVE",
"484 307 LINE",
"481 293 OFFCURVE",
"478 280 OFFCURVE",
"475 266 CURVE SMOOTH",
"461 210 OFFCURVE",
"428 185 OFFCURVE",
"384 185 CURVE SMOOTH"
);
},
{
closed = 1;
nodes = (
"358 418 OFFCURVE",
"360 426 OFFCURVE",
"362 434 CURVE",
"376 490 OFFCURVE",
"411 515 OFFCURVE",
"454 515 CURVE SMOOTH",
"487 515 OFFCURVE",
"508 500 OFFCURVE",
"511 467 CURVE",
"357 411 LINE"
);
}
);
width = 780;
}
);
leftKerningGroup = O;
rightKerningGroup = O;
unicode = 00D8;
userData = {
com.typemytype.robofont.guides = (
{
angle = 0;
isGlobal = 0;
magnetic = 5;
x = 0;
y = 145;
},
{
angle = 90;
isGlobal = 0;
magnetic = 5;
x = 351;
y = 0;
},
{
angle = 90;
isGlobal = 0;
magnetic = 5;
x = 679;
y = 0;
},
{
angle = 90;
isGlobal = 0;
magnetic = 5;
x = 85;
y = 0;
},
{
angle = 90;
isGlobal = 0;
magnetic = 5;
x = 20;
y = 0;
}
);
};
},
{
glyphname = OE;
lastChange = "2016-09-09 11:28:50 +0000";
layers = (
{
layerId = UUID0;
paths = (
{
closed = 1;
nodes = (
"759 0 LINE",
"773 0 OFFCURVE",
"783 9 OFFCURVE",
"786 22 CURVE",
"789 37 LINE",
"792 51 OFFCURVE",
"785 60 OFFCURVE",
"771 60 CURVE",
"454 60 LINE",
"511 325 LINE",
"798 325 LINE",
"812 325 OFFCURVE",
"822 334 OFFCURVE",
"825 347 CURVE",
"828 362 LINE",
"831 376 OFFCURVE",
"824 385 OFFCURVE",
"810 385 CURVE",
"523 385 LINE",
"578 640 LINE",
"887 640 LINE",
"901 640 OFFCURVE",
"911 649 OFFCURVE",
"914 662 CURVE",
"917 677 LINE",
"920 691 OFFCURVE",
"913 700 OFFCURVE",
"899 700 CURVE",
"417 700 LINE",
"218 700 OFFCURVE",
"140 613 OFFCURVE",
"97 429 CURVE SMOOTH",
"83 369 OFFCURVE",
"75 330 OFFCURVE",
"63 270 CURVE SMOOTH",
"29 96 OFFCURVE",
"112 0 OFFCURVE",
"294 0 CURVE"
);
},
{
closed = 1;
nodes = (
"141 60 OFFCURVE",
"99 129 OFFCURVE",
"127 275 CURVE SMOOTH",
"139 335 OFFCURVE",
"145 364 OFFCURVE",
"159 424 CURVE SMOOTH",
"195 580 OFFCURVE",
"261 640 OFFCURVE",
"420 640 CURVE",
"515 640 LINE",
"391 60 LINE",
"301 60 LINE"
);
}
);
width = 897;
},
{
layerId = "A0D8A2CD-35BA-4362-A7DB-C0E331BFD9A3";
paths = (
{
closed = 1;
nodes = (
"875 0 LINE",
"890 0 OFFCURVE",
"904 12 OFFCURVE",
"907 27 CURVE",
"937 168 LINE",
"940 183 OFFCURVE",
"931 195 OFFCURVE",
"916 195 CURVE",
"628 195 LINE",
"641 258 LINE",
"899 258 LINE",
"914 258 OFFCURVE",
"929 270 OFFCURVE",
"932 285 CURVE",
"960 415 LINE",
"963 430 OFFCURVE",
"953 442 OFFCURVE",
"938 442 CURVE",
"680 442 LINE",
"694 505 LINE",
"974 505 LINE",
"989 505 OFFCURVE",
"1003 517 OFFCURVE",
"1007 532 CURVE",
"1037 673 LINE",
"1040 688 OFFCURVE",
"1030 700 OFFCURVE",
"1015 700 CURVE",
"435 700 LINE",
"228 700 OFFCURVE",
"108 604 OFFCURVE",
"63 425 CURVE SMOOTH",
"49 368 OFFCURVE",
"41 330 OFFCURVE",
"31 276 CURVE SMOOTH",
"-1 87 OFFCURVE",
"151 0 OFFCURVE",
"322 0 CURVE"
);
},
{
closed = 1;
nodes = (
"304 195 OFFCURVE",
"276 220 OFFCURVE",
"285 276 CURVE SMOOTH",
"294 333 OFFCURVE",
"302 370 OFFCURVE",
"317 425 CURVE SMOOTH",
"332 481 OFFCURVE",
"374 505 OFFCURVE",
"419 505 CURVE",
"455 505 LINE",
"389 195 LINE",
"348 195 LINE"
);
}
);
width = 1001;
}
);
leftKerningGroup = O;
rightKerningGroup = E;
unicode = 0152;
},
{
glyphname = P;
lastChange = "2016-09-09 11:28:50 +0000";
layers = (
{
layerId = UUID0;
paths = (
{
closed = 1;
nodes = (
"202 700 LINE SMOOTH",
"189 700 OFFCURVE",
"178 691 OFFCURVE",
"175 677 CURVE SMOOTH",
"36 22 LINE SMOOTH",
"33 9 OFFCURVE",
"41 0 OFFCURVE",
"54 0 CURVE SMOOTH",
"72 0 LINE SMOOTH",
"86 0 OFFCURVE",
"96 9 OFFCURVE",
"99 22 CURVE SMOOTH",
"155 286 LINE",
"363 286 LINE SMOOTH",
"506 286 OFFCURVE",
"602 357 OFFCURVE",
"631 493 CURVE SMOOTH",
"660 629 OFFCURVE",
"587 700 OFFCURVE",
"440 700 CURVE SMOOTH"
);
},
{
closed = 1;
nodes = (
"231 640 LINE",
"433 640 LINE SMOOTH",
"569 640 OFFCURVE",
"588 588 OFFCURVE",
"568 493 CURVE SMOOTH",
"548 398 OFFCURVE",
"467 346 OFFCURVE",
"358 346 CURVE SMOOTH",
"168 346 LINE"
);
}
);
width = 629;
},
{
layerId = "A0D8A2CD-35BA-4362-A7DB-C0E331BFD9A3";
paths = (
{
closed = 1;
nodes = (
"167 700 LINE SMOOTH",
"152 700 OFFCURVE",
"138 688 OFFCURVE",
"135 673 CURVE SMOOTH",
"-3 27 LINE SMOOTH",
"-6 12 OFFCURVE",
"4 0 OFFCURVE",
"19 0 CURVE SMOOTH",
"225 0 LINE SMOOTH",
"240 0 OFFCURVE",
"254 12 OFFCURVE",
"257 27 CURVE SMOOTH",
"298 218 LINE",
"388 218 LINE SMOOTH",
"579 218 OFFCURVE",
"684 289 OFFCURVE",
"719 455 CURVE SMOOTH",
"754 621 OFFCURVE",
"621 700 OFFCURVE",
"450 700 CURVE SMOOTH"
);
},
{
closed = 1;
nodes = (
"356 514 LINE",
"426 514 LINE SMOOTH",
"462 514 OFFCURVE",
"465 482 OFFCURVE",
"460 457 CURVE SMOOTH",
"451 418 OFFCURVE",
"423 403 OFFCURVE",
"402 403 CURVE SMOOTH",
"332 403 LINE"
);
}
);
width = 705;
}
);
leftKerningGroup = I;
unicode = 0050;
},
{
glyphname = Q;
lastChange = "2016-09-09 11:22:50 +0000";
layers = (
{
guideLines = (
{
position = "{-150, 710}";
},
{
position = "{-150, -10}";
},
{
position = "{-150, -56}";
},
{
angle = 90;
position = "{-68, 0}";
},
{
angle = 90;
position = "{600, 0}";
},
{
angle = 90;
position = "{430, 0}";
}
);
hints = (
{
horizontal = 1;
place = "{560, 0}";
type = Tag;
name = hr00;
}
);
layerId = UUID0;
paths = (
{
closed = 1;
nodes = (
"506 -65 LINE",
"517 -65 OFFCURVE",
"528 -56 OFFCURVE",
"531 -45 CURVE SMOOTH",
"532 -39 OFFCURVE",
"531 -36 OFFCURVE",
"530 -34 CURVE",
"485 56 LINE",
"541 101 OFFCURVE",
"580 171 OFFCURVE",
"603 266 CURVE SMOOTH",
"618 326 OFFCURVE",
"628 374 OFFCURVE",
"638 434 CURVE SMOOTH",
"673 620 OFFCURVE",
"589 710 OFFCURVE",
"433 710 CURVE SMOOTH",
"277 710 OFFCURVE",
"155 620 OFFCURVE",
"110 434 CURVE SMOOTH",
"96 374 OFFCURVE",
"86 326 OFFCURVE",
"75 266 CURVE SMOOTH",
"40 77 OFFCURVE",
"114 -10 OFFCURVE",
"280 -10 CURVE SMOOTH",
"335 -10 OFFCURVE",
"383 0 OFFCURVE",
"426 19 CURVE",
"457 -42 LINE",
"462 -50 OFFCURVE",
"469 -65 OFFCURVE",
"484 -65 CURVE"
);
},
{
closed = 1;
nodes = (
"179 50 OFFCURVE",
"111 115 OFFCURVE",
"139 271 CURVE SMOOTH",
"150 331 OFFCURVE",
"158 369 OFFCURVE",
"172 429 CURVE SMOOTH",
"211 585 OFFCURVE",
"307 650 OFFCURVE",
"420 650 CURVE SMOOTH",
"533 650 OFFCURVE",
"603 585 OFFCURVE",
"574 429 CURVE SMOOTH",
"564 369 OFFCURVE",
"556 331 OFFCURVE",
"541 271 CURVE SMOOTH",
"503 115 OFFCURVE",
"407 50 OFFCURVE",
"293 50 CURVE SMOOTH"
);
}
);
width = 662;
},
{
guideLines = (
{
position = "{350, 710}";
},
{
position = "{350, -10}";
},
{
position = "{350, -42}";
},
{
angle = 90;
position = "{397, 0}";
},
{
angle = 90;
position = "{1065, 0}";
}
);
hints = (
{
horizontal = 1;
place = "{-2147483648, 0}";
type = Tag;
name = hr01;
}
);
layerId = "A0D8A2CD-35BA-4362-A7DB-C0E331BFD9A3";
paths = (
{
closed = 1;
nodes = (
"631 -65 LINE",
"643 -65 OFFCURVE",
"656 -55 OFFCURVE",
"656 -43 CURVE SMOOTH",
"657 -40 OFFCURVE",
"656 -36 OFFCURVE",
"655 -34 CURVE",
"600 79 LINE",
"652 123 OFFCURVE",
"690 184 OFFCURVE",
"710 260 CURVE SMOOTH",
"724 314 OFFCURVE",
"738 379 OFFCURVE",
"748 436 CURVE SMOOTH",
"778 611 OFFCURVE",
"668 710 OFFCURVE",
"472 710 CURVE SMOOTH",
"276 710 OFFCURVE",
"124 611 OFFCURVE",
"80 436 CURVE SMOOTH",
"66 379 OFFCURVE",
"52 314 OFFCURVE",
"42 260 CURVE SMOOTH",
"12 81 OFFCURVE",
"123 -10 OFFCURVE",
"319 -10 CURVE SMOOTH",
"339 -10 OFFCURVE",
"359 -9 OFFCURVE",
"378 -7 CURVE",
"398 -42 LINE",
"403 -50 OFFCURVE",
"410 -65 OFFCURVE",
"435 -65 CURVE"
);
},
{
closed = 1;
nodes = (
"317 185 OFFCURVE",
"294 210 OFFCURVE",
"304 266 CURVE SMOOTH",
"314 323 OFFCURVE",
"326 379 OFFCURVE",
"339 434 CURVE SMOOTH",
"353 490 OFFCURVE",
"388 515 OFFCURVE",
"431 515 CURVE SMOOTH",
"474 515 OFFCURVE",
"497 490 OFFCURVE",
"487 434 CURVE SMOOTH",
"478 379 OFFCURVE",
"466 323 OFFCURVE",
"452 266 CURVE SMOOTH",
"438 210 OFFCURVE",
"405 185 OFFCURVE",
"361 185 CURVE SMOOTH"
);
}
);
width = 742;
}
);
leftKerningGroup = O;
rightKerningGroup = O;
unicode = 0051;
userData = {
com.typemytype.robofont.guides = (
{
angle = 0;
isGlobal = 0;
magnetic = 5;
x = 0;
y = 710;
},
{
angle = 0;
isGlobal = 0;
magnetic = 5;
x = 0;
y = "-10";
},
{
angle = 0;
isGlobal = 0;
magnetic = 5;
x = 0;
y = "-56";
},
{
angle = 90;
isGlobal = 0;
magnetic = 5;
x = 82;
y = 0;
},
{
angle = 90;
isGlobal = 0;
magnetic = 5;
x = 750;
y = 0;
},
{
angle = 90;
isGlobal = 0;
magnetic = 5;
x = 580;
y = 0;
}
);
};
},
{
glyphname = R;
lastChange = "2016-09-09 11:22:50 +0000";
layers = (
{
guideLines = (
{
position = "{-150, 691}";
},
{
position = "{-150, 9}";
},
{
angle = 90;
position = "{466, 0}";
},
{
angle = 90;
position = "{424, 0}";
},
{
angle = 90;
position = "{-56, 0}";
},
{
angle = 90;
position = "{-11, 0}";
}
);
hints = (
{
horizontal = 1;
place = "{450, 0}";
type = Tag;
name = hr00;
}
);
layerId = UUID0;
paths = (
{
closed = 1;
nodes = (
"85 0 LINE SMOOTH",
"99 0 OFFCURVE",
"110 9 OFFCURVE",
"113 22 CURVE SMOOTH",
"171 296 LINE",
"377 296 LINE",
"479 27 LINE SMOOTH",
"484 13 OFFCURVE",
"489 0 OFFCURVE",
"511 0 CURVE SMOOTH",
"523 0 LINE SMOOTH",
"534 0 OFFCURVE",
"545 9 OFFCURVE",
"547 20 CURVE SMOOTH",
"548 24 OFFCURVE",
"548 27 OFFCURVE",
"547 31 CURVE SMOOTH",
"444 305 LINE",
"544 327 OFFCURVE",
"613 391 OFFCURVE",
"636 498 CURVE SMOOTH",
"665 634 OFFCURVE",
"589 700 OFFCURVE",
"449 700 CURVE SMOOTH",
"216 700 LINE SMOOTH",
"203 700 OFFCURVE",
"192 691 OFFCURVE",
"189 677 CURVE SMOOTH",
"50 22 LINE SMOOTH",
"47 9 OFFCURVE",
"54 0 OFFCURVE",
"67 0 CURVE SMOOTH"
);
},
{
closed = 1;
nodes = (
"244 640 LINE",
"431 640 LINE SMOOTH",
"547 640 OFFCURVE",
"593 593 OFFCURVE",
"573 498 CURVE SMOOTH",
"553 403 OFFCURVE",
"487 356 OFFCURVE",
"371 356 CURVE SMOOTH",
"184 356 LINE"
);
}
);
width = 640;
},
{
guideLines = (
{
angle = 90;
position = "{738, 0}";
},
{
angle = 90;
position = "{1044, 0}";
}
);
hints = (
{
horizontal = 1;
place = "{-2147483648, 0}";
type = Tag;
name = hr00;
}
);
layerId = "A0D8A2CD-35BA-4362-A7DB-C0E331BFD9A3";
paths = (
{
closed = 1;
nodes = (
"229 0 LINE SMOOTH",
"244 0 OFFCURVE",
"259 12 OFFCURVE",
"262 27 CURVE SMOOTH",
"303 218 LINE",
"344 218 LINE",
"389 27 LINE SMOOTH",
"391 18 OFFCURVE",
"399 0 OFFCURVE",
"426 0 CURVE SMOOTH",
"631 0 LINE SMOOTH",
"643 0 OFFCURVE",
"655 10 OFFCURVE",
"658 22 CURVE SMOOTH",
"659 27 OFFCURVE",
"658 29 OFFCURVE",
"657 33 CURVE SMOOTH",
"583 261 LINE",
"654 301 OFFCURVE",
"713 367 OFFCURVE",
"732 457 CURVE SMOOTH",
"764 608 OFFCURVE",
"670 700 OFFCURVE",
"478 700 CURVE SMOOTH",
"182 700 LINE SMOOTH",
"167 700 OFFCURVE",
"152 688 OFFCURVE",
"149 673 CURVE SMOOTH",
"12 27 LINE SMOOTH",
"9 12 OFFCURVE",
"18 0 OFFCURVE",
"33 0 CURVE SMOOTH"
);
},
{
closed = 1;
nodes = (
"365 514 LINE",
"438 514 LINE SMOOTH",
"471 514 OFFCURVE",
"478 485 OFFCURVE",
"473 459 CURVE SMOOTH",
"467 432 OFFCURVE",
"447 408 OFFCURVE",
"416 408 CURVE SMOOTH",
"343 408 LINE"
);
}
);
width = 722;
}
);
leftKerningGroup = I;
rightKerningGroup = R;
unicode = 0052;
userData = {
com.typemytype.robofont.guides = (
{
angle = 0;
isGlobal = 0;
magnetic = 5;
x = 0;
y = 691;
},
{
angle = 0;
isGlobal = 0;
magnetic = 5;
x = 0;
y = 9;
},
{
angle = 90;
isGlobal = 0;
magnetic = 5;
x = 616;
y = 0;
},
{
angle = 90;
isGlobal = 0;
magnetic = 5;
x = 574;
y = 0;
},
{
angle = 90;
isGlobal = 0;
magnetic = 5;
x = 94;
y = 0;
},
{
angle = 90;
isGlobal = 0;
magnetic = 5;
x = 139;
y = 0;
}
);
};
},
{
glyphname = S;
lastChange = "2016-09-09 11:28:50 +0000";
layers = (
{
layerId = UUID0;
paths = (
{
closed = 1;
nodes = (
"231 710 OFFCURVE",
"141 639 OFFCURVE",
"119 538 CURVE SMOOTH",
"96 428 OFFCURVE",
"147 379 OFFCURVE",
"280 333 CURVE SMOOTH",
"419 285 OFFCURVE",
"483 260 OFFCURVE",
"466 181 CURVE SMOOTH",
"449 101 OFFCURVE",
"374 50 OFFCURVE",
"244 50 CURVE SMOOTH",
"124 50 OFFCURVE",
"79 114 OFFCURVE",
"83 170 CURVE",
"83 181 OFFCURVE",
"78 190 OFFCURVE",
"65 190 CURVE SMOOTH",
"41 190 LINE SMOOTH",
"29 190 OFFCURVE",
"21 181 OFFCURVE",
"20 170 CURVE SMOOTH",
"9 75 OFFCURVE",
"82 -10 OFFCURVE",
"244 -10 CURVE SMOOTH",
"399 -10 OFFCURVE",
"501 52 OFFCURVE",
"527 173 CURVE SMOOTH",
"550 283 OFFCURVE",
"489 329 OFFCURVE",
"350 377 CURVE SMOOTH",
"216 423 OFFCURVE",
"162 450 OFFCURVE",
"179 530 CURVE SMOOTH",
"197 612 OFFCURVE",
"280 650 OFFCURVE",
"379 650 CURVE SMOOTH",
"467 650 OFFCURVE",
"527 601 OFFCURVE",
"521 535 CURVE SMOOTH",
"520 519 OFFCURVE",
"532 515 OFFCURVE",
"539 515 CURVE SMOOTH",
"563 515 LINE SMOOTH",
"577 515 OFFCURVE",
"582 525 OFFCURVE",
"584 535 CURVE SMOOTH",
"598 612 OFFCURVE",
"537 710 OFFCURVE",
"379 710 CURVE SMOOTH"
);
}
);
width = 602;
},
{
layerId = "A0D8A2CD-35BA-4362-A7DB-C0E331BFD9A3";
paths = (
{
closed = 1;
nodes = (
"225 710 OFFCURVE",
"104 630 OFFCURVE",
"76 494 CURVE SMOOTH",
"47 361 OFFCURVE",
"131 281 OFFCURVE",
"285 260 CURVE SMOOTH",
"381 247 OFFCURVE",
"409 237 OFFCURVE",
"404 213 CURVE SMOOTH",
"400 195 OFFCURVE",
"368 185 OFFCURVE",
"323 185 CURVE SMOOTH",
"290 185 OFFCURVE",
"270 193 OFFCURVE",
"254 208 CURVE SMOOTH",
"242 219 OFFCURVE",
"235 225 OFFCURVE",
"214 225 CURVE SMOOTH",
"24 225 LINE SMOOTH",
"12 225 OFFCURVE",
"0 215 OFFCURVE",
"-2 203 CURVE SMOOTH",
"-23 92 OFFCURVE",
"80 -10 OFFCURVE",
"301 -10 CURVE SMOOTH",
"510 -10 OFFCURVE",
"632 66 OFFCURVE",
"663 212 CURVE SMOOTH",
"690 342 OFFCURVE",
"629 419 OFFCURVE",
"434 444 CURVE SMOOTH",
"346 455 OFFCURVE",
"328 468 OFFCURVE",
"332 487 CURVE SMOOTH",
"336 504 OFFCURVE",
"352 515 OFFCURVE",
"386 515 CURVE SMOOTH",
"414 515 OFFCURVE",
"429 503 OFFCURVE",
"435 497 CURVE SMOOTH",
"445 486 OFFCURVE",
"453 481 OFFCURVE",
"472 481 CURVE SMOOTH",
"672 481 LINE SMOOTH",
"683 481 OFFCURVE",
"695 491 OFFCURVE",
"697 503 CURVE SMOOTH",
"713 590 OFFCURVE",
"587 710 OFFCURVE",
"407 710 CURVE SMOOTH"
);
}
);
width = 698;
}
);
leftKerningGroup = S;
rightKerningGroup = S;
unicode = 0053;
},
{
glyphname = Scedilla;
lastChange = "2016-09-09 11:25:33 +0000";
layers = (
{
guideLines = (
{
angle = 90;
position = "{156, 0}";
}
);
hints = (
{
horizontal = 1;
place = "{560, 0}";
type = Tag;
name = hr00;
}
);
layerId = UUID0;
paths = (
{
closed = 1;
nodes = (
"268 -221 OFFCURVE",
"308 -180 OFFCURVE",
"318 -132 CURVE SMOOTH",
"328 -84 OFFCURVE",
"304 -50 OFFCURVE",
"260 -50 CURVE SMOOTH",
"245 -50 OFFCURVE",
"229 -53 OFFCURVE",
"220 -58 CURVE",
"253 -10 LINE",
"408 -10 OFFCURVE",
"519 60 OFFCURVE",
"545 181 CURVE SMOOTH",
"568 291 OFFCURVE",
"505 329 OFFCURVE",
"365 377 CURVE SMOOTH",
"232 423 OFFCURVE",
"178 450 OFFCURVE",
"195 530 CURVE SMOOTH",
"212 612 OFFCURVE",
"289 650 OFFCURVE",
"388 650 CURVE SMOOTH",
"486 650 OFFCURVE",
"543 601 OFFCURVE",
"537 535 CURVE SMOOTH",
"536 519 OFFCURVE",
"548 515 OFFCURVE",
"555 515 CURVE",
"575 515 LINE",
"589 515 OFFCURVE",
"598 525 OFFCURVE",
"600 535 CURVE SMOOTH",
"613 612 OFFCURVE",
"559 710 OFFCURVE",
"401 710 CURVE SMOOTH",
"253 710 OFFCURVE",
"153 631 OFFCURVE",
"132 530 CURVE SMOOTH",
"108 420 OFFCURVE",
"163 379 OFFCURVE",
"296 333 CURVE SMOOTH",
"435 285 OFFCURVE",
"498 260 OFFCURVE",
"482 181 CURVE SMOOTH",
"465 101 OFFCURVE",
"396 50 OFFCURVE",
"266 50 CURVE SMOOTH",
"136 50 OFFCURVE",
"94 114 OFFCURVE",
"98 170 CURVE SMOOTH",
"99 181 OFFCURVE",
"94 190 OFFCURVE",
"81 190 CURVE",
"61 190 LINE",
"49 190 OFFCURVE",
"38 181 OFFCURVE",
"35 170 CURVE SMOOTH",
"20 89 OFFCURVE",
"75 10 OFFCURVE",
"200 -6 CURVE",
"170 -53 LINE",
"164 -63 OFFCURVE",
"153 -75 OFFCURVE",
"159 -83 CURVE",
"171 -100 LINE",
"183 -116 OFFCURVE",
"200 -96 OFFCURVE",
"232 -96 CURVE SMOOTH",
"255 -96 OFFCURVE",
"272 -110 OFFCURVE",
"267 -134 CURVE SMOOTH",
"261 -159 OFFCURVE",
"238 -174 OFFCURVE",
"215 -174 CURVE SMOOTH",
"171 -174 OFFCURVE",
"171 -140 OFFCURVE",
"151 -156 CURVE",
"134 -169 LINE",
"115 -184 OFFCURVE",
"149 -219 OFFCURVE",
"205 -220 CURVE SMOOTH"
);
}
);
width = 605;
},
{
hints = (
{
horizontal = 1;
place = "{-2147483648, 0}";
type = Tag;
name = hr01;
}
);
layerId = "A0D8A2CD-35BA-4362-A7DB-C0E331BFD9A3";
paths = (
{
closed = 1;
nodes = (
"309 -220 OFFCURVE",
"356 -183 OFFCURVE",
"368 -130 CURVE SMOOTH",
"379 -77 OFFCURVE",
"357 -40 OFFCURVE",
"306 -40 CURVE SMOOTH",
"302 -40 OFFCURVE",
"283 -42 OFFCURVE",
"275 -45 CURVE",
"300 -10 LINE",
"488 -8 OFFCURVE",
"647 81 OFFCURVE",
"678 226 CURVE SMOOTH",
"706 356 OFFCURVE",
"643 419 OFFCURVE",
"449 444 CURVE SMOOTH",
"361 455 OFFCURVE",
"343 468 OFFCURVE",
"347 487 CURVE SMOOTH",
"350 504 OFFCURVE",
"367 515 OFFCURVE",
"401 515 CURVE SMOOTH",
"429 515 OFFCURVE",
"444 503 OFFCURVE",
"450 497 CURVE SMOOTH",
"460 486 OFFCURVE",
"467 481 OFFCURVE",
"486 481 CURVE",
"686 481 LINE",
"697 481 OFFCURVE",
"710 491 OFFCURVE",
"712 503 CURVE SMOOTH",
"728 590 OFFCURVE",
"642 710 OFFCURVE",
"442 710 CURVE SMOOTH",
"260 710 OFFCURVE",
"117 616 OFFCURVE",
"88 480 CURVE SMOOTH",
"60 347 OFFCURVE",
"146 281 OFFCURVE",
"299 260 CURVE SMOOTH",
"396 247 OFFCURVE",
"424 237 OFFCURVE",
"418 213 CURVE SMOOTH",
"415 195 OFFCURVE",
"383 185 OFFCURVE",
"338 185 CURVE SMOOTH",
"305 185 OFFCURVE",
"284 193 OFFCURVE",
"268 208 CURVE SMOOTH",
"257 219 OFFCURVE",
"250 225 OFFCURVE",
"229 225 CURVE",
"39 225 LINE",
"27 225 OFFCURVE",
"15 215 OFFCURVE",
"12 203 CURVE SMOOTH",
"-7 102 OFFCURVE",
"60 9 OFFCURVE",
"238 -7 CURVE",
"208 -52 LINE",
"195 -71 OFFCURVE",
"196 -76 OFFCURVE",
"203 -85 CURVE",
"220 -106 LINE",
"230 -119 OFFCURVE",
"256 -106 OFFCURVE",
"274 -106 CURVE SMOOTH",
"294 -106 OFFCURVE",
"299 -118 OFFCURVE",
"297 -130 CURVE SMOOTH",
"294 -142 OFFCURVE",
"282 -154 OFFCURVE",
"263 -154 CURVE SMOOTH",
"229 -154 OFFCURVE",
"228 -136 OFFCURVE",
"208 -151 CURVE",
"183 -169 LINE",
"156 -189 OFFCURVE",
"196 -220 OFFCURVE",
"249 -220 CURVE SMOOTH"
);
}
);
width = 697;
}
);
leftKerningGroup = S;
rightKerningGroup = S;
unicode = 015E;
userData = {
com.typemytype.robofont.guides = (
{
angle = 90;
isGlobal = 0;
magnetic = 5;
x = 306;
y = 0;
}
);
};
},
{
glyphname = T;
lastChange = "2016-09-09 11:28:50 +0000";
layers = (
{
layerId = UUID0;
paths = (
{
closed = 1;
nodes = (
"131 700 LINE SMOOTH",
"118 700 OFFCURVE",
"107 691 OFFCURVE",
"104 677 CURVE SMOOTH",
"101 662 LINE SMOOTH",
"98 649 OFFCURVE",
"106 640 OFFCURVE",
"119 640 CURVE SMOOTH",
"317 640 LINE",
"185 22 LINE",
"182 9 OFFCURVE",
"190 0 OFFCURVE",
"203 0 CURVE SMOOTH",
"221 0 LINE SMOOTH",
"235 0 OFFCURVE",
"245 9 OFFCURVE",
"248 22 CURVE",
"380 640 LINE",
"577 640 LINE",
"591 640 OFFCURVE",
"601 649 OFFCURVE",
"604 662 CURVE",
"607 677 LINE SMOOTH",
"610 691 OFFCURVE",
"603 700 OFFCURVE",
"589 700 CURVE SMOOTH"
);
}
);
width = 551;
},
{
layerId = "A0D8A2CD-35BA-4362-A7DB-C0E331BFD9A3";
paths = (
{
closed = 1;
nodes = (
"129 700 LINE SMOOTH",
"114 700 OFFCURVE",
"100 688 OFFCURVE",
"97 673 CURVE SMOOTH",
"62 512 LINE SMOOTH",
"59 497 OFFCURVE",
"69 485 OFFCURVE",
"84 485 CURVE SMOOTH",
"250 485 LINE",
"152 27 LINE SMOOTH",
"149 12 OFFCURVE",
"159 0 OFFCURVE",
"174 0 CURVE SMOOTH",
"374 0 LINE SMOOTH",
"389 0 OFFCURVE",
"403 12 OFFCURVE",
"406 27 CURVE SMOOTH",
"504 485 LINE",
"670 485 LINE SMOOTH",
"685 485 OFFCURVE",
"699 497 OFFCURVE",
"702 512 CURVE SMOOTH",
"737 673 LINE SMOOTH",
"740 688 OFFCURVE",
"730 700 OFFCURVE",
"715 700 CURVE SMOOTH"
);
}
);
width = 673;
}
);
leftKerningGroup = T;
rightKerningGroup = T;
unicode = 0054;
},
{
glyphname = Tbar;
lastChange = "2016-09-09 11:28:50 +0000";
layers = (
{
layerId = UUID0;
paths = (
{
closed = 1;
nodes = (
"227 0 LINE SMOOTH",
"241 0 OFFCURVE",
"251 9 OFFCURVE",
"254 22 CURVE SMOOTH",
"324 350 LINE",
"441 350 LINE",
"455 350 OFFCURVE",
"466 359 OFFCURVE",
"469 372 CURVE SMOOTH",
"472 387 LINE SMOOTH",
"475 401 OFFCURVE",
"468 410 OFFCURVE",
"454 410 CURVE SMOOTH",
"337 410 LINE",
"386 640 LINE",
"583 640 LINE SMOOTH",
"597 640 OFFCURVE",
"607 649 OFFCURVE",
"610 662 CURVE SMOOTH",
"613 677 LINE SMOOTH",
"616 691 OFFCURVE",
"609 700 OFFCURVE",
"595 700 CURVE SMOOTH",
"137 700 LINE SMOOTH",
"124 700 OFFCURVE",
"113 691 OFFCURVE",
"110 677 CURVE SMOOTH",
"107 662 LINE SMOOTH",
"104 649 OFFCURVE",
"112 640 OFFCURVE",
"125 640 CURVE SMOOTH",
"323 640 LINE",
"274 410 LINE",
"156 410 LINE SMOOTH",
"143 410 OFFCURVE",
"132 401 OFFCURVE",
"129 387 CURVE",
"126 372 LINE",
"123 359 OFFCURVE",
"130 350 OFFCURVE",
"143 350 CURVE",
"261 350 LINE",
"191 22 LINE SMOOTH",
"188 9 OFFCURVE",
"196 0 OFFCURVE",
"209 0 CURVE SMOOTH"
);
}
);
width = 564;
},
{
layerId = "A0D8A2CD-35BA-4362-A7DB-C0E331BFD9A3";
paths = (
{
closed = 1;
nodes = (
"377 0 LINE SMOOTH",
"392 0 OFFCURVE",
"406 12 OFFCURVE",
"409 27 CURVE SMOOTH",
"458 258 LINE",
"548 258 LINE SMOOTH",
"563 258 OFFCURVE",
"578 270 OFFCURVE",
"581 285 CURVE SMOOTH",
"596 356 LINE SMOOTH",
"599 371 OFFCURVE",
"590 383 OFFCURVE",
"575 383 CURVE SMOOTH",
"485 383 LINE",
"507 485 LINE",
"673 485 LINE SMOOTH",
"688 485 OFFCURVE",
"702 497 OFFCURVE",
"705 512 CURVE SMOOTH",
"740 673 LINE SMOOTH",
"743 688 OFFCURVE",
"733 700 OFFCURVE",
"718 700 CURVE SMOOTH",
"132 700 LINE SMOOTH",
"117 700 OFFCURVE",
"103 688 OFFCURVE",
"100 673 CURVE SMOOTH",
"65 512 LINE SMOOTH",
"62 497 OFFCURVE",
"72 485 OFFCURVE",
"87 485 CURVE SMOOTH",
"253 485 LINE",
"231 383 LINE",
"141 383 LINE SMOOTH",
"126 383 OFFCURVE",
"111 371 OFFCURVE",
"108 356 CURVE SMOOTH",
"93 285 LINE SMOOTH",
"90 270 OFFCURVE",
"99 258 OFFCURVE",
"114 258 CURVE SMOOTH",
"204 258 LINE",
"155 27 LINE SMOOTH",
"152 12 OFFCURVE",
"162 0 OFFCURVE",
"177 0 CURVE SMOOTH"
);
}
);
width = 680;
}
);
leftKerningGroup = T;
rightKerningGroup = T;
unicode = 0166;
},
{
glyphname = U;
lastChange = "2016-09-09 11:28:50 +0000";
layers = (
{
layerId = UUID0;
paths = (
{
closed = 1;
nodes = (
"459 -10 OFFCURVE",
"557 77 OFFCURVE",
"598 271 CURVE SMOOTH",
"684 677 LINE SMOOTH",
"687 691 OFFCURVE",
"680 700 OFFCURVE",
"667 700 CURVE SMOOTH",
"649 700 LINE SMOOTH",
"635 700 OFFCURVE",
"624 691 OFFCURVE",
"621 677 CURVE SMOOTH",
"534 268 LINE SMOOTH",
"502 118 OFFCURVE",
"415 50 OFFCURVE",
"286 50 CURVE SMOOTH",
"151 50 OFFCURVE",
"113 118 OFFCURVE",
"145 268 CURVE SMOOTH",
"232 677 LINE SMOOTH",
"235 691 OFFCURVE",
"228 700 OFFCURVE",
"214 700 CURVE SMOOTH",
"196 700 LINE SMOOTH",
"183 700 OFFCURVE",
"172 691 OFFCURVE",
"169 677 CURVE SMOOTH",
"83 271 LINE",
"42 77 OFFCURVE",
"114 -10 OFFCURVE",
"286 -10 CURVE SMOOTH"
);
}
);
width = 691;
},
{
layerId = "A0D8A2CD-35BA-4362-A7DB-C0E331BFD9A3";
paths = (
{
closed = 1;
nodes = (
"537 -10 OFFCURVE",
"648 75 OFFCURVE",
"689 264 CURVE SMOOTH",
"776 673 LINE SMOOTH",
"779 688 OFFCURVE",
"769 700 OFFCURVE",
"754 700 CURVE SMOOTH",
"558 700 LINE SMOOTH",
"543 700 OFFCURVE",
"529 688 OFFCURVE",
"526 673 CURVE SMOOTH",
"439 268 LINE SMOOTH",
"429 218 OFFCURVE",
"398 191 OFFCURVE",
"349 191 CURVE SMOOTH",
"300 191 OFFCURVE",
"281 218 OFFCURVE",
"291 268 CURVE SMOOTH",
"378 673 LINE SMOOTH",
"381 688 OFFCURVE",
"371 700 OFFCURVE",
"356 700 CURVE SMOOTH",
"160 700 LINE SMOOTH",
"145 700 OFFCURVE",
"131 688 OFFCURVE",
"128 673 CURVE SMOOTH",
"41 264 LINE SMOOTH",
"0 75 OFFCURVE",
"155 -10 OFFCURVE",
"327 -10 CURVE SMOOTH"
);
}
);
width = 745;
}
);
leftKerningGroup = U;
rightKerningGroup = U;
unicode = 0055;
},
{
glyphname = Uogonek;
lastChange = "2016-09-09 11:28:50 +0000";
layers = (
{
layerId = UUID0;
paths = (
{
closed = 1;
nodes = (
"318 -220 LINE",
"332 -220 OFFCURVE",
"338 -216 OFFCURVE",
"342 -203 CURVE",
"347 -185 LINE",
"350 -172 OFFCURVE",
"343 -163 OFFCURVE",
"330 -163 CURVE",
"312 -163 LINE",
"278 -163 OFFCURVE",
"245 -133 OFFCURVE",
"256 -82 CURVE SMOOTH",
"266 -36 OFFCURVE",
"301 -9 OFFCURVE",
"335 -7 CURVE",
"458 1 OFFCURVE",
"565 76 OFFCURVE",
"598 271 CURVE",
"684 677 LINE",
"687 691 OFFCURVE",
"680 700 OFFCURVE",
"667 700 CURVE",
"649 700 LINE",
"635 700 OFFCURVE",
"624 691 OFFCURVE",
"621 677 CURVE",
"534 268 LINE",
"502 118 OFFCURVE",
"415 50 OFFCURVE",
"286 50 CURVE SMOOTH",
"151 50 OFFCURVE",
"113 118 OFFCURVE",
"145 268 CURVE",
"232 677 LINE",
"235 691 OFFCURVE",
"228 700 OFFCURVE",
"214 700 CURVE",
"196 700 LINE",
"183 700 OFFCURVE",
"172 691 OFFCURVE",
"169 677 CURVE",
"83 271 LINE",
"47 100 OFFCURVE",
"98 12 OFFCURVE",
"229 -6 CURVE",
"213 -26 OFFCURVE",
"201 -50 OFFCURVE",
"196 -82 CURVE SMOOTH",
"181 -167 OFFCURVE",
"241 -220 OFFCURVE",
"312 -220 CURVE"
);
}
);
width = 692;
},
{
layerId = "A0D8A2CD-35BA-4362-A7DB-C0E331BFD9A3";
paths = (
{
closed = 1;
nodes = (
"361 -220 LINE",
"376 -220 OFFCURVE",
"390 -208 OFFCURVE",
"393 -193 CURVE",
"408 -125 LINE",
"411 -110 OFFCURVE",
"402 -98 OFFCURVE",
"387 -98 CURVE",
"377 -98 LINE",
"338 -98 OFFCURVE",
"333 -70 OFFCURVE",
"337 -49 CURVE SMOOTH",
"342 -28 OFFCURVE",
"356 -11 OFFCURVE",
"395 -7 CURVE SMOOTH",
"561 10 OFFCURVE",
"652 96 OFFCURVE",
"689 264 CURVE",
"776 673 LINE",
"779 688 OFFCURVE",
"769 700 OFFCURVE",
"754 700 CURVE",
"558 700 LINE",
"543 700 OFFCURVE",
"529 688 OFFCURVE",
"526 673 CURVE",
"439 268 LINE",
"429 218 OFFCURVE",
"398 191 OFFCURVE",
"349 191 CURVE SMOOTH",
"300 191 OFFCURVE",
"281 218 OFFCURVE",
"291 268 CURVE",
"378 673 LINE",
"381 688 OFFCURVE",
"371 700 OFFCURVE",
"356 700 CURVE",
"160 700 LINE",
"145 700 OFFCURVE",
"131 688 OFFCURVE",
"128 673 CURVE",
"41 264 LINE",
"8 114 OFFCURVE",
"98 30 OFFCURVE",
"222 1 CURVE",
"218 -11 OFFCURVE",
"214 -25 OFFCURVE",
"211 -39 CURVE SMOOTH",
"191 -134 OFFCURVE",
"236 -220 OFFCURVE",
"357 -220 CURVE"
);
}
);
width = 744;
}
);
leftKerningGroup = U;
rightKerningGroup = U;
unicode = 0172;
},
{
glyphname = V;
lastChange = "2016-09-09 11:28:50 +0000";
layers = (
{
layerId = UUID0;
paths = (
{
closed = 1;
nodes = (
"267 73 LINE",
"178 685 LINE",
"177 693 OFFCURVE",
"172 700 OFFCURVE",
"159 700 CURVE SMOOTH",
"137 700 LINE",
"124 700 OFFCURVE",
"115 692 OFFCURVE",
"117 676 CURVE",
"212 24 LINE SMOOTH",
"214 8 OFFCURVE",
"223 0 OFFCURVE",
"241 0 CURVE SMOOTH",
"272 0 LINE SMOOTH",
"290 0 OFFCURVE",
"301 8 OFFCURVE",
"311 24 CURVE",
"679 668 LINE SMOOTH",
"687 682 OFFCURVE",
"683 700 OFFCURVE",
"667 700 CURVE SMOOTH",
"637 700 LINE SMOOTH",
"624 700 OFFCURVE",
"619 691 OFFCURVE",
"616 685 CURVE"
);
}
);
width = 639;
},
{
layerId = "A0D8A2CD-35BA-4362-A7DB-C0E331BFD9A3";
paths = (
{
closed = 1;
nodes = (
"354 295 LINE",
"528 667 LINE",
"535 682 OFFCURVE",
"553 700 OFFCURVE",
"580 700 CURVE SMOOTH",
"776 700 LINE SMOOTH",
"792 700 OFFCURVE",
"798 685 OFFCURVE",
"791 671 CURVE SMOOTH",
"468 33 LINE SMOOTH",
"460 18 OFFCURVE",
"443 0 OFFCURVE",
"416 0 CURVE SMOOTH",
"185 0 LINE SMOOTH",
"158 0 OFFCURVE",
"147 18 OFFCURVE",
"147 33 CURVE SMOOTH",
"94 671 LINE SMOOTH",
"93 689 OFFCURVE",
"106 700 OFFCURVE",
"121 700 CURVE SMOOTH",
"300 700 LINE SMOOTH",
"327 700 OFFCURVE",
"337 682 OFFCURVE",
"338 667 CURVE SMOOTH"
);
}
);
width = 726;
}
);
unicode = 0056;
},
{
glyphname = W;
lastChange = "2016-09-09 11:28:50 +0000";
layers = (
{
layerId = UUID0;
paths = (
{
closed = 1;
nodes = (
"164 0 LINE SMOOTH",
"180 0 OFFCURVE",
"191 8 OFFCURVE",
"200 24 CURVE SMOOTH",
"419 444 LINE",
"462 24 LINE",
"463 8 OFFCURVE",
"472 0 OFFCURVE",
"488 0 CURVE SMOOTH",
"509 0 LINE SMOOTH",
"525 0 OFFCURVE",
"534 7 OFFCURVE",
"542 24 CURVE",
"814 674 LINE SMOOTH",
"820 688 OFFCURVE",
"819 700 OFFCURVE",
"800 700 CURVE SMOOTH",
"778 700 LINE SMOOTH",
"765 700 OFFCURVE",
"757 695 OFFCURVE",
"753 685 CURVE SMOOTH",
"515 116 LINE",
"473 522 LINE SMOOTH",
"472 534 OFFCURVE",
"465 545 OFFCURVE",
"447 545 CURVE SMOOTH",
"426 545 LINE SMOOTH",
"408 545 OFFCURVE",
"396 534 OFFCURVE",
"390 522 CURVE SMOOTH",
"183 126 LINE",
"183 680 LINE SMOOTH",
"183 690 OFFCURVE",
"176 700 OFFCURVE",
"163 700 CURVE SMOOTH",
"144 700 LINE SMOOTH",
"131 700 OFFCURVE",
"123 691 OFFCURVE",
"123 680 CURVE SMOOTH",
"123 24 LINE SMOOTH",
"123 7 OFFCURVE",
"130 0 OFFCURVE",
"146 0 CURVE SMOOTH"
);
}
);
width = 776;
},
{
layerId = "A0D8A2CD-35BA-4362-A7DB-C0E331BFD9A3";
paths = (
{
closed = 1;
nodes = (
"247 0 LINE SMOOTH",
"274 0 OFFCURVE",
"289 19 OFFCURVE",
"293 27 CURVE SMOOTH",
"404 232 LINE",
"457 27 LINE SMOOTH",
"459 19 OFFCURVE",
"466 0 OFFCURVE",
"493 0 CURVE SMOOTH",
"636 0 LINE SMOOTH",
"663 0 OFFCURVE",
"684 20 OFFCURVE",
"690 38 CURVE",
"907 675 LINE SMOOTH",
"911 687 OFFCURVE",
"904 700 OFFCURVE",
"891 700 CURVE SMOOTH",
"700 700 LINE SMOOTH",
"677 700 OFFCURVE",
"664 693 OFFCURVE",
"658 673 CURVE SMOOTH",
"564 392 LINE",
"549 516 LINE SMOOTH",
"548 525 OFFCURVE",
"545 545 OFFCURVE",
"521 545 CURVE SMOOTH",
"419 545 LINE SMOOTH",
"395 545 OFFCURVE",
"384 525 OFFCURVE",
"379 516 CURVE SMOOTH",
"312 391 LINE",
"338 673 LINE SMOOTH",
"340 693 OFFCURVE",
"331 700 OFFCURVE",
"308 700 CURVE SMOOTH",
"127 700 LINE SMOOTH",
"114 700 OFFCURVE",
"100 688 OFFCURVE",
"99 675 CURVE SMOOTH",
"66 38 LINE",
"64 20 OFFCURVE",
"77 0 OFFCURVE",
"104 0 CURVE SMOOTH"
);
}
);
width = 855;
}
);
leftKerningGroup = W;
rightKerningGroup = W;
unicode = 0057;
},
{
glyphname = X;
lastChange = "2016-09-09 11:28:50 +0000";
layers = (
{
layerId = UUID0;
paths = (
{
closed = 1;
nodes = (
"185 685 LINE SMOOTH",
"182 691 OFFCURVE",
"178 700 OFFCURVE",
"157 700 CURVE SMOOTH",
"141 700 LINE SMOOTH",
"126 700 OFFCURVE",
"116 684 OFFCURVE",
"124 669 CURVE SMOOTH",
"280 360 LINE",
"-25 33 LINE SMOOTH",
"-37 20 OFFCURVE",
"-26 0 OFFCURVE",
"-10 0 CURVE SMOOTH",
"8 0 LINE SMOOTH",
"29 0 OFFCURVE",
"35 9 OFFCURVE",
"41 15 CURVE SMOOTH",
"310 302 LINE",
"457 15 LINE SMOOTH",
"460 9 OFFCURVE",
"465 0 OFFCURVE",
"485 0 CURVE SMOOTH",
"501 0 LINE SMOOTH",
"515 0 OFFCURVE",
"526 15 OFFCURVE",
"519 29 CURVE SMOOTH",
"356 347 LINE",
"649 667 LINE SMOOTH",
"661 681 OFFCURVE",
"650 700 OFFCURVE",
"634 700 CURVE SMOOTH",
"617 700 LINE SMOOTH",
"594 700 OFFCURVE",
"589 691 OFFCURVE",
"583 685 CURVE SMOOTH",
"327 405 LINE"
);
}
);
width = 610;
},
{
layerId = "A0D8A2CD-35BA-4362-A7DB-C0E331BFD9A3";
paths = (
{
closed = 1;
nodes = (
"806 667 LINE",
"817 679 OFFCURVE",
"813 700 OFFCURVE",
"794 700 CURVE",
"577 700 LINE",
"551 700 OFFCURVE",
"536 682 OFFCURVE",
"530 675 CURVE",
"419 543 LINE",
"354 675 LINE",
"351 682 OFFCURVE",
"343 700 OFFCURVE",
"317 700 CURVE",
"120 700 LINE",
"98 700 OFFCURVE",
"87 682 OFFCURVE",
"94 667 CURVE",
"246 361 LINE",
"-51 33 LINE",
"-63 20 OFFCURVE",
"-56 0 OFFCURVE",
"-39 0 CURVE",
"199 0 LINE",
"225 0 OFFCURVE",
"240 18 OFFCURVE",
"244 23 CURVE",
"353 144 LINE",
"414 23 LINE",
"416 18 OFFCURVE",
"425 0 OFFCURVE",
"451 0 CURVE",
"647 0 LINE",
"670 0 OFFCURVE",
"680 18 OFFCURVE",
"673 33 CURVE",
"525 331 LINE"
);
}
);
width = 738;
}
);
unicode = 0058;
},
{
glyphname = Y;
lastChange = "2016-09-09 11:28:50 +0000";
layers = (
{
layerId = UUID0;
paths = (
{
closed = 1;
nodes = (
"259 0 LINE SMOOTH",
"273 0 OFFCURVE",
"283 9 OFFCURVE",
"286 22 CURVE SMOOTH",
"339 267 LINE",
"668 667 LINE",
"680 681 OFFCURVE",
"682 700 OFFCURVE",
"659 700 CURVE SMOOTH",
"628 700 LINE SMOOTH",
"619 700 OFFCURVE",
"610 695 OFFCURVE",
"602 685 CURVE SMOOTH",
"315 335 LINE",
"176 685 LINE SMOOTH",
"172 695 OFFCURVE",
"165 700 OFFCURVE",
"156 700 CURVE SMOOTH",
"139 700 LINE",
"121 700 OFFCURVE",
"110 681 OFFCURVE",
"116 667 CURVE",
"275 267 LINE",
"224 22 LINE SMOOTH",
"221 9 OFFCURVE",
"229 0 OFFCURVE",
"242 0 CURVE SMOOTH"
);
}
);
width = 629;
},
{
layerId = "A0D8A2CD-35BA-4362-A7DB-C0E331BFD9A3";
paths = (
{
closed = 1;
nodes = (
"390 0 LINE SMOOTH",
"405 0 OFFCURVE",
"419 12 OFFCURVE",
"422 27 CURVE SMOOTH",
"464 224 LINE",
"784 669 LINE SMOOTH",
"793 681 OFFCURVE",
"788 700 OFFCURVE",
"770 700 CURVE SMOOTH",
"572 700 LINE SMOOTH",
"545 700 OFFCURVE",
"529 681 OFFCURVE",
"525 675 CURVE SMOOTH",
"382 474 LINE",
"325 675 LINE SMOOTH",
"323 681 OFFCURVE",
"315 700 OFFCURVE",
"288 700 CURVE SMOOTH",
"110 700 LINE SMOOTH",
"92 700 OFFCURVE",
"79 685 OFFCURVE",
"84 669 CURVE SMOOTH",
"214 224 LINE",
"172 27 LINE SMOOTH",
"169 12 OFFCURVE",
"179 0 OFFCURVE",
"194 0 CURVE SMOOTH"
);
}
);
width = 709;
}
);
leftKerningGroup = Y;
rightKerningGroup = Y;
unicode = 0059;
},
{
glyphname = Z;
lastChange = "2016-09-09 11:28:50 +0000";
layers = (
{
layerId = UUID0;
paths = (
{
closed = 1;
nodes = (
"74 60 LINE",
"581 621 LINE SMOOTH",
"589 630 OFFCURVE",
"599 640 OFFCURVE",
"602 657 CURVE SMOOTH",
"606 677 LINE SMOOTH",
"609 691 OFFCURVE",
"602 700 OFFCURVE",
"588 700 CURVE SMOOTH",
"157 700 LINE SMOOTH",
"144 700 OFFCURVE",
"133 691 OFFCURVE",
"130 677 CURVE SMOOTH",
"127 662 LINE SMOOTH",
"124 649 OFFCURVE",
"132 640 OFFCURVE",
"145 640 CURVE SMOOTH",
"515 640 LINE",
"9 80 LINE SMOOTH",
"3 74 OFFCURVE",
"-9 63 OFFCURVE",
"-13 43 CURVE SMOOTH",
"-18 23 LINE SMOOTH",
"-21 9 OFFCURVE",
"-13 0 OFFCURVE",
"0 0 CURVE SMOOTH",
"450 0 LINE SMOOTH",
"464 0 OFFCURVE",
"474 9 OFFCURVE",
"477 22 CURVE SMOOTH",
"480 37 LINE SMOOTH",
"483 51 OFFCURVE",
"476 60 OFFCURVE",
"462 60 CURVE SMOOTH"
);
}
);
width = 574;
},
{
layerId = "A0D8A2CD-35BA-4362-A7DB-C0E331BFD9A3";
paths = (
{
closed = 1;
nodes = (
"359 205 LINE",
"676 498 LINE SMOOTH",
"685 507 OFFCURVE",
"693 517 OFFCURVE",
"696 531 CURVE SMOOTH",
"727 673 LINE SMOOTH",
"730 688 OFFCURVE",
"720 700 OFFCURVE",
"705 700 CURVE SMOOTH",
"157 700 LINE SMOOTH",
"142 700 OFFCURVE",
"128 688 OFFCURVE",
"125 673 CURVE SMOOTH",
"93 524 LINE SMOOTH",
"90 509 OFFCURVE",
"99 497 OFFCURVE",
"114 497 CURVE SMOOTH",
"362 497 LINE",
"30 206 LINE SMOOTH",
"24 201 OFFCURVE",
"12 190 OFFCURVE",
"8 171 CURVE SMOOTH",
"-23 27 LINE SMOOTH",
"-26 12 OFFCURVE",
"-16 0 OFFCURVE",
"-1 0 CURVE SMOOTH",
"570 0 LINE SMOOTH",
"585 0 OFFCURVE",
"599 12 OFFCURVE",
"602 27 CURVE SMOOTH",
"634 178 LINE",
"638 193 OFFCURVE",
"628 205 OFFCURVE",
"613 205 CURVE SMOOTH"
);
}
);
width = 692;
}
);
leftKerningGroup = Z;
rightKerningGroup = Z;
unicode = 005A;
},
{
glyphname = a;
lastChange = "2016-09-09 11:28:50 +0000";
layers = (
{
layerId = UUID0;
paths = (
{
closed = 1;
nodes = (
"149 530 OFFCURVE",
"83 404 OFFCURVE",
"53 288 CURVE SMOOTH",
"48 268 OFFCURVE",
"44 252 OFFCURVE",
"41 232 CURVE SMOOTH",
"23 115 OFFCURVE",
"52 -10 OFFCURVE",
"207 -10 CURVE SMOOTH",
"295 -10 OFFCURVE",
"336 24 OFFCURVE",
"378 69 CURVE",
"368 22 LINE SMOOTH",
"365 9 OFFCURVE",
"373 0 OFFCURVE",
"386 0 CURVE SMOOTH",
"403 0 LINE SMOOTH",
"416 0 OFFCURVE",
"426 9 OFFCURVE",
"429 22 CURVE SMOOTH",
"530 498 LINE SMOOTH",
"533 511 OFFCURVE",
"525 520 OFFCURVE",
"512 520 CURVE SMOOTH",
"495 520 LINE SMOOTH",
"482 520 OFFCURVE",
"472 511 OFFCURVE",
"469 498 CURVE SMOOTH",
"459 451 LINE",
"436 495 OFFCURVE",
"398 530 OFFCURVE",
"310 530 CURVE SMOOTH"
);
},
{
closed = 1;
nodes = (
"391 142 OFFCURVE",
"321 48 OFFCURVE",
"207 48 CURVE SMOOTH",
"98 48 OFFCURVE",
"88 136 OFFCURVE",
"103 232 CURVE SMOOTH",
"106 252 OFFCURVE",
"109 268 OFFCURVE",
"115 288 CURVE SMOOTH",
"143 383 OFFCURVE",
"201 472 OFFCURVE",
"310 472 CURVE SMOOTH",
"421 472 OFFCURVE",
"443 382 OFFCURVE",
"428 302 CURVE SMOOTH",
"424 282 OFFCURVE",
"416 244 OFFCURVE",
"411 224 CURVE SMOOTH"
);
}
);
width = 569;
},
{
layerId = "A0D8A2CD-35BA-4362-A7DB-C0E331BFD9A3";
paths = (
{
closed = 1;
nodes = (
"167 530 OFFCURVE",
"72 457 OFFCURVE",
"32 300 CURVE SMOOTH",
"25 270 OFFCURVE",
"21 251 OFFCURVE",
"15 221 CURVE",
"-13 54 OFFCURVE",
"72 -10 OFFCURVE",
"188 -10 CURVE SMOOTH",
"257 -10 OFFCURVE",
"299 14 OFFCURVE",
"339 50 CURVE",
"334 27 LINE SMOOTH",
"331 12 OFFCURVE",
"341 0 OFFCURVE",
"356 0 CURVE SMOOTH",
"526 0 LINE SMOOTH",
"541 0 OFFCURVE",
"555 12 OFFCURVE",
"558 27 CURVE SMOOTH",
"657 493 LINE SMOOTH",
"660 508 OFFCURVE",
"650 520 OFFCURVE",
"635 520 CURVE SMOOTH",
"466 520 LINE SMOOTH",
"451 520 OFFCURVE",
"437 508 OFFCURVE",
"434 493 CURVE SMOOTH",
"431 480 LINE",
"405 509 OFFCURVE",
"369 530 OFFCURVE",
"293 530 CURVE SMOOTH"
);
},
{
closed = 1;
nodes = (
"287 329 OFFCURVE",
"301 351 OFFCURVE",
"338 351 CURVE SMOOTH",
"372 351 OFFCURVE",
"382 333 OFFCURVE",
"377 301 CURVE SMOOTH",
"373 271 OFFCURVE",
"370 257 OFFCURVE",
"362 227 CURVE SMOOTH",
"352 191 OFFCURVE",
"336 169 OFFCURVE",
"299 169 CURVE SMOOTH",
"262 169 OFFCURVE",
"258 191 OFFCURVE",
"262 227 CURVE SMOOTH",
"264 247 OFFCURVE",
"270 273 OFFCURVE",
"276 293 CURVE SMOOTH"
);
}
);
width = 660;
}
);
leftKerningGroup = d;
rightKerningGroup = u;
unicode = 0061;
},
{
glyphname = aogonek;
lastChange = "2016-09-09 11:25:41 +0000";
layers = (
{
guideLines = (
{
position = "{-150, 22}";
},
{
position = "{-150, -220}";
},
{
angle = 90;
position = "{322, 0}";
}
);
hints = (
{
horizontal = 1;
place = "{-370, 0}";
type = Tag;
name = hr00;
}
);
layerId = UUID0;
paths = (
{
closed = 1;
nodes = (
"341 -220 LINE SMOOTH",
"354 -220 OFFCURVE",
"365 -211 OFFCURVE",
"368 -198 CURVE SMOOTH",
"371 -185 LINE SMOOTH",
"374 -172 OFFCURVE",
"367 -163 OFFCURVE",
"354 -163 CURVE SMOOTH",
"349 -163 LINE SMOOTH",
"315 -163 OFFCURVE",
"297 -141 OFFCURVE",
"308 -90 CURVE SMOOTH",
"318 -44 OFFCURVE",
"345 -20 OFFCURVE",
"394 0 CURVE",
"396 1 LINE",
"408 7 OFFCURVE",
"413 14 OFFCURVE",
"415 22 CURVE SMOOTH",
"486 355 LINE SMOOTH",
"503 435 OFFCURVE",
"484 530 OFFCURVE",
"326 530 CURVE SMOOTH",
"193 530 OFFCURVE",
"122 442 OFFCURVE",
"114 405 CURVE SMOOTH",
"112 393 OFFCURVE",
"120 383 OFFCURVE",
"132 383 CURVE SMOOTH",
"146 383 LINE SMOOTH",
"158 383 OFFCURVE",
"166 388 OFFCURVE",
"174 404 CURVE SMOOTH",
"192 437 OFFCURVE",
"240 472 OFFCURVE",
"314 472 CURVE SMOOTH",
"408 472 OFFCURVE",
"440 429 OFFCURVE",
"425 358 CURVE SMOOTH",
"418 323 LINE",
"255 301 LINE SMOOTH",
"135 285 OFFCURVE",
"42 229 OFFCURVE",
"23 139 CURVE SMOOTH",
"5 55 OFFCURVE",
"74 -10 OFFCURVE",
"170 -10 CURVE SMOOTH",
"273 -10 OFFCURVE",
"332 33 OFFCURVE",
"364 69 CURVE",
"357 38 LINE",
"357 37 OFFCURVE",
"357 36 OFFCURVE",
"357 35 CURVE",
"317 18 OFFCURVE",
"262 -26 OFFCURVE",
"248 -90 CURVE SMOOTH",
"230 -175 OFFCURVE",
"271 -220 OFFCURVE",
"332 -220 CURVE SMOOTH"
);
},
{
closed = 1;
nodes = (
"130 48 OFFCURVE",
"71 78 OFFCURVE",
"85 144 CURVE SMOOTH",
"96 198 OFFCURVE",
"161 235 OFFCURVE",
"273 250 CURVE SMOOTH",
"406 268 LINE",
"399 234 LINE SMOOTH",
"372 108 OFFCURVE",
"284 48 OFFCURVE",
"192 48 CURVE SMOOTH"
);
}
);
width = 536;
},
{
hints = (
{
horizontal = 1;
place = "{-2147483648, 0}";
type = Tag;
name = hr01;
},
{
horizontal = 1;
place = "{-2147483648, 0}";
type = Tag;
name = hr02;
},
{
horizontal = 1;
place = "{-2147483648, 0}";
type = Tag;
name = hr03;
},
{
horizontal = 1;
place = "{-2147483648, 0}";
type = Tag;
name = hr04;
}
);
layerId = "A0D8A2CD-35BA-4362-A7DB-C0E331BFD9A3";
paths = (
{
closed = 1;
nodes = (
"459 -220 LINE",
"474 -220 OFFCURVE",
"489 -208 OFFCURVE",
"492 -193 CURVE",
"507 -125 LINE",
"510 -110 OFFCURVE",
"500 -98 OFFCURVE",
"485 -98 CURVE",
"475 -98 LINE",
"436 -98 OFFCURVE",
"431 -70 OFFCURVE",
"436 -49 CURVE SMOOTH",
"440 -29 OFFCURVE",
"456 -2 OFFCURVE",
"490 0 CURVE",
"506 0 LINE",
"521 0 OFFCURVE",
"536 12 OFFCURVE",
"539 27 CURVE",
"600 314 LINE",
"629 451 OFFCURVE",
"559 530 OFFCURVE",
"378 530 CURVE SMOOTH",
"191 530 OFFCURVE",
"97 431 OFFCURVE",
"83 380 CURVE SMOOTH",
"79 367 OFFCURVE",
"87 358 OFFCURVE",
"100 358 CURVE",
"267 358 LINE",
"268 358 OFFCURVE",
"269 358 OFFCURVE",
"270 358 CURVE",
"302 358 OFFCURVE",
"312 390 OFFCURVE",
"346 390 CURVE SMOOTH",
"374 390 OFFCURVE",
"373 375 OFFCURVE",
"365 340 CURVE",
"365 339 LINE",
"256 322 LINE",
"118 299 OFFCURVE",
"20 246 OFFCURVE",
"0 149 CURVE SMOOTH",
"-19 59 OFFCURVE",
"45 -10 OFFCURVE",
"160 -10 CURVE SMOOTH",
"222 -10 OFFCURVE",
"278 15 OFFCURVE",
"316 55 CURVE",
"310 27 LINE",
"307 14 OFFCURVE",
"313 3 OFFCURVE",
"324 0 CURVE",
"318 -14 OFFCURVE",
"313 -33 OFFCURVE",
"310 -49 CURVE SMOOTH",
"290 -144 OFFCURVE",
"324 -220 OFFCURVE",
"445 -220 CURVE"
);
},
{
closed = 1;
nodes = (
"236 138 OFFCURVE",
"225 151 OFFCURVE",
"228 166 CURVE SMOOTH",
"231 180 OFFCURVE",
"244 195 OFFCURVE",
"280 203 CURVE",
"342 216 LINE",
"342 215 LINE",
"331 162 OFFCURVE",
"300 138 OFFCURVE",
"261 138 CURVE SMOOTH"
);
}
);
width = 622;
}
);
leftKerningGroup = a;
rightKerningGroup = a;
unicode = 0105;
userData = {
com.typemytype.robofont.guides = (
{
angle = 0;
isGlobal = 0;
magnetic = 5;
x = 0;
y = 22;
},
{
angle = 0;
isGlobal = 0;
magnetic = 5;
x = 0;
y = "-220";
},
{
angle = 90;
isGlobal = 0;
magnetic = 5;
x = 472;
y = 0;
}
);
};
},
{
glyphname = ae;
lastChange = "2016-09-09 11:35:07 +0000";
layers = (
{
anchors = (
{
name = bottom;
position = "{386, 0}";
},
{
name = top;
position = "{496, 520}";
}
);
guideLines = (
{
position = "{-150, -10}";
},
{
position = "{-150, 530}";
},
{
angle = 90;
position = "{323, 0}";
},
{
angle = 90;
position = "{-529, 0}";
},
{
angle = 90;
position = "{303, 0}";
}
);
layerId = UUID0;
paths = (
{
closed = 1;
nodes = (
"269 -10 OFFCURVE",
"345 26 OFFCURVE",
"399 100 CURVE",
"417 36 OFFCURVE",
"465 -10 OFFCURVE",
"563 -10 CURVE SMOOTH",
"698 -10 OFFCURVE",
"784 81 OFFCURVE",
"791 111 CURVE SMOOTH",
"793 123 OFFCURVE",
"786 131 OFFCURVE",
"774 131 CURVE",
"762 131 LINE",
"747 131 OFFCURVE",
"743 129 OFFCURVE",
"728 113 CURVE SMOOTH",
"686 67 OFFCURVE",
"627 48 OFFCURVE",
"575 48 CURVE SMOOTH",
"506 48 OFFCURVE",
"436 95 OFFCURVE",
"460 225 CURVE",
"462 235 LINE",
"808 235 LINE",
"821 235 OFFCURVE",
"833 244 OFFCURVE",
"836 257 CURVE",
"839 272 LINE",
"860 373 OFFCURVE",
"865 530 OFFCURVE",
"679 530 CURVE SMOOTH",
"595 530 OFFCURVE",
"531 494 OFFCURVE",
"486 442 CURVE",
"473 491 OFFCURVE",
"428 530 OFFCURVE",
"327 530 CURVE SMOOTH",
"194 530 OFFCURVE",
"122 442 OFFCURVE",
"114 405 CURVE SMOOTH",
"112 393 OFFCURVE",
"120 383 OFFCURVE",
"132 383 CURVE",
"146 383 LINE",
"158 383 OFFCURVE",
"166 388 OFFCURVE",
"174 404 CURVE SMOOTH",
"192 437 OFFCURVE",
"241 472 OFFCURVE",
"315 472 CURVE SMOOTH",
"409 472 OFFCURVE",
"441 429 OFFCURVE",
"426 358 CURVE",
"420 326 LINE",
"257 304 LINE",
"136 288 OFFCURVE",
"43 229 OFFCURVE",
"24 139 CURVE SMOOTH",
"6 55 OFFCURVE",
"65 -10 OFFCURVE",
"171 -10 CURVE SMOOTH"
);
},
{
closed = 1;
nodes = (
"131 48 OFFCURVE",
"72 78 OFFCURVE",
"86 144 CURVE SMOOTH",
"97 198 OFFCURVE",
"162 235 OFFCURVE",
"274 250 CURVE",
"407 268 LINE",
"400 234 LINE",
"373 108 OFFCURVE",
"285 48 OFFCURVE",
"193 48 CURVE SMOOTH"
);
},
{
closed = 1;
nodes = (
"475 295 LINE",
"505 416 OFFCURVE",
"591 472 OFFCURVE",
"667 472 CURVE SMOOTH",
"772 472 OFFCURVE",
"804 396 OFFCURVE",
"783 295 CURVE",
"782 291 LINE",
"474 291 LINE"
);
}
);
width = 881;
},
{
anchors = (
{
name = bottom;
position = "{413, 0}";
},
{
name = top;
position = "{523, 520}";
}
);
guideLines = (
{
position = "{350, -10}";
},
{
position = "{350, 530}";
},
{
angle = 90;
position = "{838, 0}";
},
{
angle = 90;
position = "{-19, 0}";
}
);
layerId = "A0D8A2CD-35BA-4362-A7DB-C0E331BFD9A3";
paths = (
{
closed = 1;
nodes = (
"239 -10 OFFCURVE",
"318 -1 OFFCURVE",
"390 51 CURVE",
"430 11 OFFCURVE",
"493 -10 OFFCURVE",
"574 -10 CURVE SMOOTH",
"759 -10 OFFCURVE",
"867 94 OFFCURVE",
"878 145 CURVE SMOOTH",
"881 158 OFFCURVE",
"874 167 OFFCURVE",
"861 167 CURVE SMOOTH",
"672 167 LINE SMOOTH",
"656 167 OFFCURVE",
"650 165 OFFCURVE",
"636 153 CURVE SMOOTH",
"622 142 OFFCURVE",
"615 135 OFFCURVE",
"603 135 CURVE SMOOTH",
"574 135 OFFCURVE",
"568 156 OFFCURVE",
"577 196 CURVE SMOOTH",
"578 201 LINE",
"876 201 LINE SMOOTH",
"891 201 OFFCURVE",
"905 213 OFFCURVE",
"909 228 CURVE SMOOTH",
"915 258 LINE SMOOTH",
"946 405 OFFCURVE",
"884 530 OFFCURVE",
"688 530 CURVE SMOOTH",
"629 530 OFFCURVE",
"575 516 OFFCURVE",
"527 493 CURVE",
"499 517 OFFCURVE",
"452 530 OFFCURVE",
"378 530 CURVE SMOOTH",
"191 530 OFFCURVE",
"94 431 OFFCURVE",
"83 380 CURVE SMOOTH",
"80 367 OFFCURVE",
"87 358 OFFCURVE",
"100 358 CURVE SMOOTH",
"267 358 LINE",
"268 358 OFFCURVE",
"269 358 OFFCURVE",
"270 358 CURVE SMOOTH",
"302 358 OFFCURVE",
"312 390 OFFCURVE",
"346 390 CURVE SMOOTH",
"373 390 OFFCURVE",
"373 376 OFFCURVE",
"366 342 CURVE",
"365 339 LINE",
"256 322 LINE",
"118 299 OFFCURVE",
"20 246 OFFCURVE",
"0 149 CURVE SMOOTH",
"-19 59 OFFCURVE",
"44 -10 OFFCURVE",
"180 -10 CURVE SMOOTH"
);
},
{
closed = 1;
nodes = (
"236 138 OFFCURVE",
"225 151 OFFCURVE",
"228 166 CURVE SMOOTH",
"231 180 OFFCURVE",
"244 195 OFFCURVE",
"280 203 CURVE SMOOTH",
"342 216 LINE",
"342 215 LINE",
"331 162 OFFCURVE",
"300 138 OFFCURVE",
"261 138 CURVE SMOOTH"
);
},
{
closed = 1;
nodes = (
"605 330 LINE SMOOTH",
"614 371 OFFCURVE",
"632 390 OFFCURVE",
"658 390 CURVE SMOOTH",
"683 390 OFFCURVE",
"694 371 OFFCURVE",
"685 330 CURVE SMOOTH",
"685 326 LINE",
"605 326 LINE"
);
}
);
width = 935;
}
);
leftKerningGroup = a;
rightKerningGroup = e;
unicode = 00E6;
userData = {
com.typemytype.robofont.guides = (
{
angle = 0;
isGlobal = 0;
magnetic = 5;
x = 0;
y = "-10";
},
{
angle = 0;
isGlobal = 0;
magnetic = 5;
x = 0;
y = 530;
},
{
angle = 90;
isGlobal = 0;
magnetic = 5;
x = 473;
y = 0;
},
{
angle = 90;
isGlobal = 0;
magnetic = 5;
x = "-379";
y = 0;
},
{
angle = 90;
isGlobal = 0;
magnetic = 5;
x = 453;
y = 0;
}
);
};
},
{
glyphname = b;
lastChange = "2016-09-09 11:28:50 +0000";
layers = (
{
layerId = UUID0;
paths = (
{
closed = 1;
nodes = (
"268 530 OFFCURVE",
"218 495 OFFCURVE",
"176 451 CURVE",
"226 688 LINE SMOOTH",
"229 701 OFFCURVE",
"222 710 OFFCURVE",
"209 710 CURVE SMOOTH",
"192 710 LINE SMOOTH",
"179 710 OFFCURVE",
"168 701 OFFCURVE",
"165 688 CURVE SMOOTH",
"24 22 LINE SMOOTH",
"21 9 OFFCURVE",
"28 0 OFFCURVE",
"41 0 CURVE SMOOTH",
"58 0 LINE SMOOTH",
"71 0 OFFCURVE",
"82 9 OFFCURVE",
"85 22 CURVE SMOOTH",
"95 69 LINE",
"118 24 OFFCURVE",
"166 -10 OFFCURVE",
"249 -10 CURVE SMOOTH",
"405 -10 OFFCURVE",
"481 110 OFFCURVE",
"510 227 CURVE SMOOTH",
"515 247 OFFCURVE",
"521 273 OFFCURVE",
"524 293 CURVE SMOOTH",
"542 410 OFFCURVE",
"507 530 OFFCURVE",
"351 530 CURVE SMOOTH"
);
},
{
closed = 1;
nodes = (
"131 244 OFFCURVE",
"139 282 OFFCURVE",
"144 302 CURVE SMOOTH",
"163 382 OFFCURVE",
"240 472 OFFCURVE",
"351 472 CURVE SMOOTH",
"468 472 OFFCURVE",
"477 384 OFFCURVE",
"462 288 CURVE SMOOTH",
"459 268 OFFCURVE",
"456 252 OFFCURVE",
"450 232 CURVE SMOOTH",
"422 137 OFFCURVE",
"363 48 OFFCURVE",
"249 48 CURVE SMOOTH",
"135 48 OFFCURVE",
"113 142 OFFCURVE",
"128 224 CURVE SMOOTH"
);
}
);
width = 580;
},
{
layerId = "A0D8A2CD-35BA-4362-A7DB-C0E331BFD9A3";
paths = (
{
closed = 1;
nodes = (
"401 530 OFFCURVE",
"362 512 OFFCURVE",
"324 483 CURVE",
"367 683 LINE SMOOTH",
"370 698 OFFCURVE",
"360 710 OFFCURVE",
"345 710 CURVE SMOOTH",
"160 710 LINE SMOOTH",
"145 710 OFFCURVE",
"131 698 OFFCURVE",
"128 683 CURVE SMOOTH",
"-12 27 LINE SMOOTH",
"-15 12 OFFCURVE",
"-5 0 OFFCURVE",
"10 0 CURVE SMOOTH",
"180 0 LINE SMOOTH",
"195 0 OFFCURVE",
"209 12 OFFCURVE",
"212 27 CURVE SMOOTH",
"217 50 LINE",
"241 14 OFFCURVE",
"293 -10 OFFCURVE",
"362 -10 CURVE SMOOTH",
"478 -10 OFFCURVE",
"571 54 OFFCURVE",
"613 221 CURVE SMOOTH",
"621 251 OFFCURVE",
"625 270 OFFCURVE",
"630 300 CURVE SMOOTH",
"658 457 OFFCURVE",
"573 530 OFFCURVE",
"457 530 CURVE SMOOTH"
);
},
{
closed = 1;
nodes = (
"382 273 OFFCURVE",
"376 247 OFFCURVE",
"370 227 CURVE SMOOTH",
"358 191 OFFCURVE",
"344 169 OFFCURVE",
"307 169 CURVE SMOOTH",
"270 169 OFFCURVE",
"264 191 OFFCURVE",
"270 227 CURVE SMOOTH",
"274 257 OFFCURVE",
"277 271 OFFCURVE",
"285 301 CURVE SMOOTH",
"294 333 OFFCURVE",
"312 351 OFFCURVE",
"346 351 CURVE SMOOTH",
"383 351 OFFCURVE",
"387 329 OFFCURVE",
"384 293 CURVE SMOOTH"
);
}
);
width = 660;
}
);
leftKerningGroup = h;
rightKerningGroup = b;
unicode = 0062;
},
{
glyphname = c;
lastChange = "2016-09-09 11:28:50 +0000";
layers = (
{
layerId = UUID0;
paths = (
{
closed = 1;
nodes = (
"148 420 OFFCURVE",
"230 472 OFFCURVE",
"321 472 CURVE SMOOTH",
"396 472 OFFCURVE",
"443 441 OFFCURVE",
"440 365 CURVE SMOOTH",
"439 349 OFFCURVE",
"446 344 OFFCURVE",
"460 344 CURVE SMOOTH",
"479 344 LINE SMOOTH",
"491 344 OFFCURVE",
"499 353 OFFCURVE",
"500 366 CURVE SMOOTH",
"508 438 OFFCURVE",
"467 530 OFFCURVE",
"321 530 CURVE SMOOTH",
"180 530 OFFCURVE",
"92 443 OFFCURVE",
"57 300 CURVE SMOOTH",
"52 280 OFFCURVE",
"44 240 OFFCURVE",
"40 220 CURVE SMOOTH",
"14 77 OFFCURVE",
"87 -10 OFFCURVE",
"218 -10 CURVE SMOOTH",
"359 -10 OFFCURVE",
"432 77 OFFCURVE",
"453 149 CURVE SMOOTH",
"457 162 OFFCURVE",
"450 171 OFFCURVE",
"438 171 CURVE SMOOTH",
"420 171 LINE SMOOTH",
"406 171 OFFCURVE",
"402 167 OFFCURVE",
"393 150 CURVE SMOOTH",
"354 74 OFFCURVE",
"288 48 OFFCURVE",
"218 48 CURVE SMOOTH",
"127 48 OFFCURVE",
"80 100 OFFCURVE",
"102 225 CURVE SMOOTH",
"106 245 OFFCURVE",
"112 275 OFFCURVE",
"117 295 CURVE SMOOTH"
);
}
);
width = 535;
},
{
layerId = "A0D8A2CD-35BA-4362-A7DB-C0E331BFD9A3";
paths = (
{
closed = 1;
nodes = (
"283 335 OFFCURVE",
"296 359 OFFCURVE",
"327 359 CURVE SMOOTH",
"347 359 OFFCURVE",
"352 348 OFFCURVE",
"357 329 CURVE SMOOTH",
"361 317 OFFCURVE",
"367 309 OFFCURVE",
"382 309 CURVE SMOOTH",
"577 309 LINE SMOOTH",
"592 309 OFFCURVE",
"608 321 OFFCURVE",
"610 336 CURVE SMOOTH",
"618 389 OFFCURVE",
"549 530 OFFCURVE",
"348 530 CURVE SMOOTH",
"185 530 OFFCURVE",
"68 448 OFFCURVE",
"29 300 CURVE SMOOTH",
"23 277 OFFCURVE",
"16 240 OFFCURVE",
"12 219 CURVE SMOOTH",
"-11 71 OFFCURVE",
"110 -10 OFFCURVE",
"253 -10 CURVE SMOOTH",
"484 -10 OFFCURVE",
"565 141 OFFCURVE",
"578 184 CURVE SMOOTH",
"582 199 OFFCURVE",
"571 211 OFFCURVE",
"556 211 CURVE SMOOTH",
"361 211 LINE SMOOTH",
"346 211 OFFCURVE",
"336 203 OFFCURVE",
"328 191 CURVE SMOOTH",
"316 172 OFFCURVE",
"309 161 OFFCURVE",
"285 161 CURVE SMOOTH",
"254 161 OFFCURVE",
"251 181 OFFCURVE",
"258 224 CURVE SMOOTH",
"261 243 OFFCURVE",
"266 266 OFFCURVE",
"273 295 CURVE SMOOTH"
);
}
);
width = 621;
}
);
leftKerningGroup = o;
rightKerningGroup = c;
unicode = 0063;
},
{
glyphname = ccedilla;
lastChange = "2016-09-09 11:28:50 +0000";
layers = (
{
layerId = UUID0;
paths = (
{
closed = 1;
nodes = (
"148 420 OFFCURVE",
"230 472 OFFCURVE",
"321 472 CURVE SMOOTH",
"396 472 OFFCURVE",
"443 441 OFFCURVE",
"440 365 CURVE SMOOTH",
"439 349 OFFCURVE",
"446 344 OFFCURVE",
"460 344 CURVE",
"479 344 LINE",
"491 344 OFFCURVE",
"499 353 OFFCURVE",
"500 366 CURVE SMOOTH",
"508 438 OFFCURVE",
"467 530 OFFCURVE",
"321 530 CURVE SMOOTH",
"180 530 OFFCURVE",
"92 443 OFFCURVE",
"57 300 CURVE SMOOTH",
"52 280 OFFCURVE",
"44 240 OFFCURVE",
"40 220 CURVE SMOOTH",
"17 97 OFFCURVE",
"68 15 OFFCURVE",
"166 -5 CURVE",
"135 -53 LINE",
"129 -63 OFFCURVE",
"119 -75 OFFCURVE",
"124 -83 CURVE",
"136 -100 LINE",
"148 -116 OFFCURVE",
"165 -96 OFFCURVE",
"197 -96 CURVE SMOOTH",
"220 -96 OFFCURVE",
"237 -110 OFFCURVE",
"232 -134 CURVE SMOOTH",
"227 -159 OFFCURVE",
"204 -174 OFFCURVE",
"181 -174 CURVE SMOOTH",
"134 -174 OFFCURVE",
"133 -142 OFFCURVE",
"116 -156 CURVE",
"100 -169 LINE",
"80 -184 OFFCURVE",
"124 -220 OFFCURVE",
"181 -220 CURVE SMOOTH",
"239 -220 OFFCURVE",
"272 -183 OFFCURVE",
"282 -135 CURVE SMOOTH",
"293 -87 OFFCURVE",
"264 -50 OFFCURVE",
"225 -50 CURVE SMOOTH",
"210 -50 OFFCURVE",
"194 -52 OFFCURVE",
"185 -57 CURVE",
"219 -10 LINE",
"359 -9 OFFCURVE",
"432 77 OFFCURVE",
"453 149 CURVE SMOOTH",
"457 162 OFFCURVE",
"450 171 OFFCURVE",
"438 171 CURVE",
"420 171 LINE",
"406 171 OFFCURVE",
"402 167 OFFCURVE",
"393 150 CURVE SMOOTH",
"354 74 OFFCURVE",
"288 48 OFFCURVE",
"218 48 CURVE SMOOTH",
"127 48 OFFCURVE",
"80 100 OFFCURVE",
"102 225 CURVE SMOOTH",
"106 245 OFFCURVE",
"112 275 OFFCURVE",
"117 295 CURVE SMOOTH"
);
}
);
width = 535;
},
{
layerId = "A0D8A2CD-35BA-4362-A7DB-C0E331BFD9A3";
paths = (
{
closed = 1;
nodes = (
"283 335 OFFCURVE",
"296 359 OFFCURVE",
"327 359 CURVE SMOOTH",
"347 359 OFFCURVE",
"352 348 OFFCURVE",
"357 329 CURVE SMOOTH",
"361 317 OFFCURVE",
"367 309 OFFCURVE",
"382 309 CURVE",
"577 309 LINE",
"592 309 OFFCURVE",
"608 321 OFFCURVE",
"610 336 CURVE SMOOTH",
"618 389 OFFCURVE",
"549 530 OFFCURVE",
"348 530 CURVE SMOOTH",
"185 530 OFFCURVE",
"68 448 OFFCURVE",
"29 300 CURVE SMOOTH",
"23 277 OFFCURVE",
"16 240 OFFCURVE",
"12 219 CURVE SMOOTH",
"-8 94 OFFCURVE",
"75 18 OFFCURVE",
"186 -3 CURVE",
"161 -42 LINE",
"148 -61 OFFCURVE",
"148 -69 OFFCURVE",
"155 -78 CURVE",
"176 -106 LINE",
"186 -119 OFFCURVE",
"212 -106 OFFCURVE",
"230 -106 CURVE SMOOTH",
"250 -106 OFFCURVE",
"255 -118 OFFCURVE",
"253 -130 CURVE SMOOTH",
"250 -142 OFFCURVE",
"239 -154 OFFCURVE",
"220 -154 CURVE SMOOTH",
"186 -154 OFFCURVE",
"185 -136 OFFCURVE",
"164 -151 CURVE",
"140 -169 LINE",
"112 -189 OFFCURVE",
"163 -220 OFFCURVE",
"216 -220 CURVE SMOOTH",
"276 -220 OFFCURVE",
"312 -188 OFFCURVE",
"323 -135 CURVE SMOOTH",
"334 -82 OFFCURVE",
"313 -40 OFFCURVE",
"262 -40 CURVE SMOOTH",
"258 -40 OFFCURVE",
"240 -42 OFFCURVE",
"231 -45 CURVE",
"256 -10 LINE",
"485 -8 OFFCURVE",
"565 141 OFFCURVE",
"578 184 CURVE SMOOTH",
"582 199 OFFCURVE",
"571 211 OFFCURVE",
"556 211 CURVE",
"361 211 LINE",
"346 211 OFFCURVE",
"336 203 OFFCURVE",
"328 191 CURVE SMOOTH",
"316 172 OFFCURVE",
"309 161 OFFCURVE",
"285 161 CURVE SMOOTH",
"254 161 OFFCURVE",
"251 181 OFFCURVE",
"258 224 CURVE SMOOTH",
"261 243 OFFCURVE",
"266 266 OFFCURVE",
"273 295 CURVE SMOOTH"
);
}
);
width = 621;
}
);
leftKerningGroup = o;
rightKerningGroup = c;
unicode = 00E7;
},
{
glyphname = d;
lastChange = "2016-09-09 11:28:50 +0000";
layers = (
{
layerId = UUID0;
paths = (
{
closed = 1;
nodes = (
"153 530 OFFCURVE",
"82 404 OFFCURVE",
"52 288 CURVE SMOOTH",
"47 268 OFFCURVE",
"43 252 OFFCURVE",
"40 232 CURVE SMOOTH",
"22 115 OFFCURVE",
"56 -10 OFFCURVE",
"211 -10 CURVE SMOOTH",
"299 -10 OFFCURVE",
"345 24 OFFCURVE",
"387 69 CURVE",
"377 22 LINE SMOOTH",
"374 9 OFFCURVE",
"382 0 OFFCURVE",
"395 0 CURVE SMOOTH",
"412 0 LINE SMOOTH",
"425 0 OFFCURVE",
"435 9 OFFCURVE",
"438 22 CURVE SMOOTH",
"580 688 LINE SMOOTH",
"583 701 OFFCURVE",
"575 710 OFFCURVE",
"562 710 CURVE SMOOTH",
"545 710 LINE SMOOTH",
"532 710 OFFCURVE",
"522 701 OFFCURVE",
"519 688 CURVE SMOOTH",
"468 451 LINE",
"445 495 OFFCURVE",
"402 530 OFFCURVE",
"314 530 CURVE SMOOTH"
);
},
{
closed = 1;
nodes = (
"400 142 OFFCURVE",
"325 48 OFFCURVE",
"211 48 CURVE SMOOTH",
"102 48 OFFCURVE",
"87 136 OFFCURVE",
"102 232 CURVE SMOOTH",
"105 252 OFFCURVE",
"108 268 OFFCURVE",
"114 288 CURVE SMOOTH",
"142 383 OFFCURVE",
"205 472 OFFCURVE",
"314 472 CURVE SMOOTH",
"425 472 OFFCURVE",
"452 382 OFFCURVE",
"437 302 CURVE SMOOTH",
"433 282 OFFCURVE",
"425 244 OFFCURVE",
"420 224 CURVE SMOOTH"
);
}
);
width = 579;
},
{
layerId = "A0D8A2CD-35BA-4362-A7DB-C0E331BFD9A3";
paths = (
{
closed = 1;
nodes = (
"167 530 OFFCURVE",
"72 457 OFFCURVE",
"32 300 CURVE SMOOTH",
"25 270 OFFCURVE",
"21 251 OFFCURVE",
"15 221 CURVE SMOOTH",
"-13 54 OFFCURVE",
"72 -10 OFFCURVE",
"188 -10 CURVE SMOOTH",
"257 -10 OFFCURVE",
"299 14 OFFCURVE",
"339 50 CURVE",
"334 27 LINE SMOOTH",
"331 12 OFFCURVE",
"341 0 OFFCURVE",
"356 0 CURVE SMOOTH",
"526 0 LINE SMOOTH",
"541 0 OFFCURVE",
"555 12 OFFCURVE",
"558 27 CURVE SMOOTH",
"698 683 LINE SMOOTH",
"701 698 OFFCURVE",
"691 710 OFFCURVE",
"676 710 CURVE SMOOTH",
"491 710 LINE SMOOTH",
"476 710 OFFCURVE",
"462 698 OFFCURVE",
"459 683 CURVE SMOOTH",
"417 483 LINE",
"391 512 OFFCURVE",
"339 530 OFFCURVE",
"283 530 CURVE SMOOTH"
);
},
{
closed = 1;
nodes = (
"287 329 OFFCURVE",
"301 351 OFFCURVE",
"338 351 CURVE SMOOTH",
"372 351 OFFCURVE",
"382 333 OFFCURVE",
"377 301 CURVE SMOOTH",
"373 271 OFFCURVE",
"370 257 OFFCURVE",
"362 227 CURVE SMOOTH",
"352 191 OFFCURVE",
"336 169 OFFCURVE",
"299 169 CURVE SMOOTH",
"262 169 OFFCURVE",
"258 191 OFFCURVE",
"262 227 CURVE SMOOTH",
"264 247 OFFCURVE",
"270 273 OFFCURVE",
"276 293 CURVE SMOOTH"
);
}
);
width = 661;
}
);
leftKerningGroup = d;
rightKerningGroup = d;
unicode = 0064;
},
{
glyphname = dcroat;
lastChange = "2016-09-09 11:28:50 +0000";
layers = (
{
layerId = UUID0;
paths = (
{
closed = 1;
nodes = (
"143 530 OFFCURVE",
"77 385 OFFCURVE",
"54 288 CURVE SMOOTH",
"48 268 OFFCURVE",
"45 252 OFFCURVE",
"42 232 CURVE SMOOTH",
"24 135 OFFCURVE",
"28 -10 OFFCURVE",
"204 -10 CURVE SMOOTH",
"287 -10 OFFCURVE",
"347 24 OFFCURVE",
"389 69 CURVE",
"379 22 LINE SMOOTH",
"376 9 OFFCURVE",
"384 0 OFFCURVE",
"397 0 CURVE SMOOTH",
"414 0 LINE SMOOTH",
"427 0 OFFCURVE",
"437 9 OFFCURVE",
"440 22 CURVE SMOOTH",
"557 571 LINE",
"615 571 LINE SMOOTH",
"628 571 OFFCURVE",
"639 580 OFFCURVE",
"642 593 CURVE SMOOTH",
"645 607 LINE SMOOTH",
"647 620 OFFCURVE",
"640 629 OFFCURVE",
"627 629 CURVE SMOOTH",
"569 629 LINE",
"582 688 LINE SMOOTH",
"585 701 OFFCURVE",
"577 710 OFFCURVE",
"564 710 CURVE SMOOTH",
"547 710 LINE SMOOTH",
"534 710 OFFCURVE",
"524 701 OFFCURVE",
"521 688 CURVE SMOOTH",
"508 629 LINE",
"450 629 LINE SMOOTH",
"437 629 OFFCURVE",
"426 620 OFFCURVE",
"424 607 CURVE SMOOTH",
"421 593 LINE SMOOTH",
"418 580 OFFCURVE",
"425 571 OFFCURVE",
"438 571 CURVE SMOOTH",
"496 571 LINE",
"470 451 LINE",
"447 495 OFFCURVE",
"402 530 OFFCURVE",
"319 530 CURVE SMOOTH"
);
},
{
closed = 1;
nodes = (
"402 142 OFFCURVE",
"337 48 OFFCURVE",
"223 48 CURVE SMOOTH",
"106 48 OFFCURVE",
"85 136 OFFCURVE",
"103 232 CURVE SMOOTH",
"106 252 OFFCURVE",
"109 268 OFFCURVE",
"115 288 CURVE SMOOTH",
"138 384 OFFCURVE",
"196 472 OFFCURVE",
"313 472 CURVE SMOOTH",
"424 472 OFFCURVE",
"454 382 OFFCURVE",
"439 302 CURVE SMOOTH",
"435 282 OFFCURVE",
"427 244 OFFCURVE",
"422 224 CURVE SMOOTH"
);
}
);
width = 580;
},
{
layerId = "A0D8A2CD-35BA-4362-A7DB-C0E331BFD9A3";
paths = (
{
closed = 1;
nodes = (
"176 530 OFFCURVE",
"71 457 OFFCURVE",
"31 300 CURVE SMOOTH",
"24 270 OFFCURVE",
"20 251 OFFCURVE",
"14 221 CURVE SMOOTH",
"-14 54 OFFCURVE",
"61 -10 OFFCURVE",
"177 -10 CURVE SMOOTH",
"246 -10 OFFCURVE",
"301 18 OFFCURVE",
"340 57 CURVE",
"333 27 LINE SMOOTH",
"330 12 OFFCURVE",
"340 0 OFFCURVE",
"355 0 CURVE SMOOTH",
"525 0 LINE SMOOTH",
"540 0 OFFCURVE",
"554 12 OFFCURVE",
"557 27 CURVE SMOOTH",
"668 548 LINE",
"698 548 LINE SMOOTH",
"713 548 OFFCURVE",
"728 560 OFFCURVE",
"731 575 CURVE SMOOTH",
"742 626 LINE SMOOTH",
"745 641 OFFCURVE",
"735 653 OFFCURVE",
"720 653 CURVE SMOOTH",
"690 653 LINE",
"697 683 LINE SMOOTH",
"700 698 OFFCURVE",
"690 710 OFFCURVE",
"675 710 CURVE SMOOTH",
"490 710 LINE SMOOTH",
"475 710 OFFCURVE",
"461 698 OFFCURVE",
"458 683 CURVE SMOOTH",
"451 653 LINE",
"421 653 LINE SMOOTH",
"406 653 OFFCURVE",
"392 641 OFFCURVE",
"389 626 CURVE SMOOTH",
"378 575 LINE SMOOTH",
"375 560 OFFCURVE",
"384 548 OFFCURVE",
"399 548 CURVE SMOOTH",
"429 548 LINE",
"415 483 LINE",
"389 512 OFFCURVE",
"348 530 OFFCURVE",
"292 530 CURVE SMOOTH"
);
},
{
closed = 1;
nodes = (
"286 329 OFFCURVE",
"300 351 OFFCURVE",
"337 351 CURVE SMOOTH",
"371 351 OFFCURVE",
"381 333 OFFCURVE",
"376 301 CURVE SMOOTH",
"372 271 OFFCURVE",
"369 257 OFFCURVE",
"361 227 CURVE SMOOTH",
"351 191 OFFCURVE",
"335 169 OFFCURVE",
"298 169 CURVE SMOOTH",
"261 169 OFFCURVE",
"257 191 OFFCURVE",
"261 227 CURVE SMOOTH",
"263 247 OFFCURVE",
"269 273 OFFCURVE",
"275 293 CURVE SMOOTH"
);
}
);
width = 661;
}
);
leftKerningGroup = d;
rightKerningGroup = d;
unicode = 0111;
},
{
glyphname = e;
lastChange = "2016-09-09 11:28:50 +0000";
layers = (
{
layerId = UUID0;
paths = (
{
closed = 1;
nodes = (
"349 -10 OFFCURVE",
"445 73 OFFCURVE",
"455 111 CURVE SMOOTH",
"458 123 OFFCURVE",
"450 131 OFFCURVE",
"438 131 CURVE SMOOTH",
"422 131 LINE SMOOTH",
"407 131 OFFCURVE",
"404 130 OFFCURVE",
"388 113 CURVE SMOOTH",
"374 97 OFFCURVE",
"320 48 OFFCURVE",
"235 48 CURVE SMOOTH",
"138 48 OFFCURVE",
"100 134 OFFCURVE",
"115 225 CURVE SMOOTH",
"116 228 OFFCURVE",
"117 235 OFFCURVE",
"117 235 CURVE",
"473 235 LINE SMOOTH",
"486 235 OFFCURVE",
"498 244 OFFCURVE",
"501 257 CURVE SMOOTH",
"504 272 LINE SMOOTH",
"538 432 OFFCURVE",
"477 530 OFFCURVE",
"338 530 CURVE SMOOTH",
"208 530 OFFCURVE",
"109 436 OFFCURVE",
"70 300 CURVE SMOOTH",
"65 280 OFFCURVE",
"56 240 OFFCURVE",
"53 220 CURVE SMOOTH",
"34 83 OFFCURVE",
"94 -10 OFFCURVE",
"223 -10 CURVE SMOOTH"
);
},
{
closed = 1;
nodes = (
"130 295 LINE SMOOTH",
"151 395 OFFCURVE",
"226 472 OFFCURVE",
"326 472 CURVE SMOOTH",
"426 472 OFFCURVE",
"469 395 OFFCURVE",
"448 295 CURVE SMOOTH",
"447 291 LINE",
"129 291 LINE"
);
}
);
width = 544;
},
{
layerId = "A0D8A2CD-35BA-4362-A7DB-C0E331BFD9A3";
paths = (
{
closed = 1;
nodes = (
"448 -10 OFFCURVE",
"553 94 OFFCURVE",
"567 145 CURVE SMOOTH",
"571 158 OFFCURVE",
"563 167 OFFCURVE",
"550 167 CURVE SMOOTH",
"361 167 LINE SMOOTH",
"345 167 OFFCURVE",
"339 165 OFFCURVE",
"325 153 CURVE SMOOTH",
"311 142 OFFCURVE",
"304 135 OFFCURVE",
"292 135 CURVE SMOOTH",
"263 135 OFFCURVE",
"257 156 OFFCURVE",
"266 196 CURVE SMOOTH",
"266 198 OFFCURVE",
"267 199 OFFCURVE",
"267 201 CURVE",
"565 201 LINE SMOOTH",
"580 201 OFFCURVE",
"594 213 OFFCURVE",
"598 228 CURVE SMOOTH",
"604 258 LINE SMOOTH",
"635 405 OFFCURVE",
"573 530 OFFCURVE",
"377 530 CURVE SMOOTH",
"206 530 OFFCURVE",
"75 438 OFFCURVE",
"36 266 CURVE SMOOTH",
"35 264 OFFCURVE",
"35 261 OFFCURVE",
"34 259 CURVE SMOOTH",
"-5 72 OFFCURVE",
"88 -10 OFFCURVE",
"263 -10 CURVE SMOOTH"
);
},
{
closed = 1;
nodes = (
"294 327 LINE",
"303 371 OFFCURVE",
"321 390 OFFCURVE",
"347 390 CURVE SMOOTH",
"373 390 OFFCURVE",
"383 371 OFFCURVE",
"374 327 CURVE",
"374 326 LINE",
"294 326 LINE"
);
}
);
width = 621;
}
);
leftKerningGroup = o;
rightKerningGroup = e;
unicode = 0065;
},
{
glyphname = eogonek;
lastChange = "2016-09-09 11:25:53 +0000";
layers = (
{
guideLines = (
{
position = "{-150, 259}";
},
{
position = "{-150, -220}";
},
{
angle = 90;
position = "{189, 0}";
}
);
hints = (
{
horizontal = 1;
place = "{150, 0}";
type = Tag;
name = hr00;
}
);
layerId = UUID0;
paths = (
{
closed = 1;
nodes = (
"249 -220 LINE",
"262 -220 OFFCURVE",
"273 -211 OFFCURVE",
"276 -198 CURVE",
"279 -185 LINE",
"282 -172 OFFCURVE",
"275 -163 OFFCURVE",
"262 -163 CURVE",
"247 -163 LINE",
"203 -163 OFFCURVE",
"177 -133 OFFCURVE",
"188 -82 CURVE SMOOTH",
"198 -35 OFFCURVE",
"228 -14 OFFCURVE",
"270 -6 CURVE SMOOTH",
"372 14 OFFCURVE",
"447 77 OFFCURVE",
"456 111 CURVE SMOOTH",
"459 123 OFFCURVE",
"451 131 OFFCURVE",
"439 131 CURVE SMOOTH",
"423 131 LINE SMOOTH",
"408 131 OFFCURVE",
"405 130 OFFCURVE",
"389 113 CURVE SMOOTH",
"375 97 OFFCURVE",
"321 48 OFFCURVE",
"236 48 CURVE SMOOTH",
"139 48 OFFCURVE",
"101 134 OFFCURVE",
"116 225 CURVE SMOOTH",
"118 235 LINE",
"474 235 LINE SMOOTH",
"487 235 OFFCURVE",
"499 244 OFFCURVE",
"502 257 CURVE SMOOTH",
"505 272 LINE SMOOTH",
"539 432 OFFCURVE",
"478 530 OFFCURVE",
"339 530 CURVE SMOOTH",
"209 530 OFFCURVE",
"110 436 OFFCURVE",
"71 300 CURVE SMOOTH",
"66 280 OFFCURVE",
"57 240 OFFCURVE",
"54 220 CURVE SMOOTH",
"38 106 OFFCURVE",
"76 23 OFFCURVE",
"164 -2 CURVE",
"146 -23 OFFCURVE",
"134 -51 OFFCURVE",
"128 -82 CURVE SMOOTH",
"110 -167 OFFCURVE",
"149 -220 OFFCURVE",
"230 -220 CURVE"
);
},
{
closed = 1;
nodes = (
"130 295 LINE SMOOTH",
"151 395 OFFCURVE",
"226 472 OFFCURVE",
"326 472 CURVE SMOOTH",
"426 472 OFFCURVE",
"469 395 OFFCURVE",
"448 295 CURVE SMOOTH",
"447 291 LINE",
"129 291 LINE"
);
}
);
width = 547;
},
{
hints = (
{
horizontal = 1;
place = "{-2147483648, 0}";
type = Tag;
name = hr01;
},
{
horizontal = 1;
place = "{-2147483648, 0}";
type = Tag;
name = hr02;
},
{
horizontal = 1;
place = "{-2147483648, 0}";
type = Tag;
name = hr03;
}
);
layerId = "A0D8A2CD-35BA-4362-A7DB-C0E331BFD9A3";
paths = (
{
closed = 1;
nodes = (
"286 -220 LINE",
"301 -220 OFFCURVE",
"316 -208 OFFCURVE",
"319 -193 CURVE",
"334 -125 LINE",
"337 -110 OFFCURVE",
"327 -98 OFFCURVE",
"312 -98 CURVE",
"302 -98 LINE",
"263 -98 OFFCURVE",
"258 -70 OFFCURVE",
"263 -49 CURVE SMOOTH",
"267 -28 OFFCURVE",
"287 -12 OFFCURVE",
"330 -5 CURVE",
"473 15 OFFCURVE",
"554 100 OFFCURVE",
"567 145 CURVE SMOOTH",
"571 158 OFFCURVE",
"563 167 OFFCURVE",
"550 167 CURVE",
"361 167 LINE",
"345 167 OFFCURVE",
"339 165 OFFCURVE",
"325 153 CURVE SMOOTH",
"311 142 OFFCURVE",
"304 135 OFFCURVE",
"292 135 CURVE SMOOTH",
"263 135 OFFCURVE",
"257 156 OFFCURVE",
"266 196 CURVE",
"267 201 LINE",
"565 201 LINE",
"580 201 OFFCURVE",
"594 213 OFFCURVE",
"598 228 CURVE",
"604 258 LINE",
"635 405 OFFCURVE",
"573 530 OFFCURVE",
"377 530 CURVE SMOOTH",
"206 530 OFFCURVE",
"74 437 OFFCURVE",
"35 264 CURVE SMOOTH",
"35 262 OFFCURVE",
"35 261 OFFCURVE",
"34 259 CURVE SMOOTH",
"4 116 OFFCURVE",
"51 34 OFFCURVE",
"154 3 CURVE",
"146 -13 OFFCURVE",
"141 -30 OFFCURVE",
"137 -49 CURVE SMOOTH",
"117 -144 OFFCURVE",
"151 -220 OFFCURVE",
"272 -220 CURVE SMOOTH"
);
},
{
closed = 1;
nodes = (
"294 327 LINE",
"303 371 OFFCURVE",
"321 390 OFFCURVE",
"347 390 CURVE SMOOTH",
"373 390 OFFCURVE",
"383 371 OFFCURVE",
"374 327 CURVE",
"374 326 LINE",
"294 326 LINE"
);
}
);
width = 623;
}
);
leftKerningGroup = o;
rightKerningGroup = e;
unicode = 0119;
userData = {
com.typemytype.robofont.guides = (
{
angle = 0;
isGlobal = 0;
magnetic = 5;
x = 0;
y = 259;
},
{
angle = 0;
isGlobal = 0;
magnetic = 5;
x = 0;
y = "-220";
},
{
angle = 90;
isGlobal = 0;
magnetic = 5;
x = 339;
y = 0;
}
);
};
},
{
glyphname = f;
lastChange = "2016-09-09 11:28:50 +0000";
layers = (
{
layerId = UUID0;
paths = (
{
closed = 1;
nodes = (
"247 572 LINE SMOOTH",
"262 643 OFFCURVE",
"297 682 OFFCURVE",
"367 682 CURVE SMOOTH",
"412 682 LINE SMOOTH",
"425 682 OFFCURVE",
"436 691 OFFCURVE",
"439 704 CURVE SMOOTH",
"442 718 LINE SMOOTH",
"445 731 OFFCURVE",
"438 740 OFFCURVE",
"425 740 CURVE SMOOTH",
"367 740 LINE SMOOTH",
"263 740 OFFCURVE",
"206 666 OFFCURVE",
"187 577 CURVE SMOOTH",
"175 520 LINE",
"86 520 LINE SMOOTH",
"73 520 OFFCURVE",
"62 511 OFFCURVE",
"59 498 CURVE SMOOTH",
"56 484 LINE SMOOTH",
"54 471 OFFCURVE",
"61 462 OFFCURVE",
"74 462 CURVE SMOOTH",
"163 462 LINE",
"69 22 LINE SMOOTH",
"66 9 OFFCURVE",
"74 0 OFFCURVE",
"87 0 CURVE SMOOTH",
"104 0 LINE SMOOTH",
"117 0 OFFCURVE",
"127 9 OFFCURVE",
"130 22 CURVE SMOOTH",
"224 462 LINE",
"356 462 LINE SMOOTH",
"369 462 OFFCURVE",
"380 471 OFFCURVE",
"382 484 CURVE SMOOTH",
"385 498 LINE SMOOTH",
"388 511 OFFCURVE",
"381 520 OFFCURVE",
"368 520 CURVE SMOOTH",
"236 520 LINE"
);
}
);
width = 356;
},
{
layerId = "A0D8A2CD-35BA-4362-A7DB-C0E331BFD9A3";
paths = (
{
closed = 1;
nodes = (
"391 532 LINE SMOOTH",
"395 553 OFFCURVE",
"411 565 OFFCURVE",
"441 565 CURVE SMOOTH",
"522 565 LINE SMOOTH",
"537 565 OFFCURVE",
"551 577 OFFCURVE",
"554 592 CURVE SMOOTH",
"580 713 LINE SMOOTH",
"583 728 OFFCURVE",
"574 740 OFFCURVE",
"559 740 CURVE SMOOTH",
"446 740 LINE SMOOTH",
"301 740 OFFCURVE",
"198 701 OFFCURVE",
"163 537 CURVE SMOOTH",
"159 520 LINE",
"90 520 LINE SMOOTH",
"75 520 OFFCURVE",
"60 508 OFFCURVE",
"57 493 CURVE SMOOTH",
"32 372 LINE SMOOTH",
"28 357 OFFCURVE",
"38 345 OFFCURVE",
"53 345 CURVE SMOOTH",
"122 345 LINE",
"54 27 LINE SMOOTH",
"51 12 OFFCURVE",
"61 0 OFFCURVE",
"76 0 CURVE SMOOTH",
"251 0 LINE SMOOTH",
"266 0 OFFCURVE",
"280 12 OFFCURVE",
"283 27 CURVE SMOOTH",
"351 345 LINE",
"465 345 LINE SMOOTH",
"480 345 OFFCURVE",
"494 357 OFFCURVE",
"498 372 CURVE SMOOTH",
"523 493 LINE SMOOTH",
"526 508 OFFCURVE",
"517 520 OFFCURVE",
"502 520 CURVE SMOOTH",
"388 520 LINE"
);
}
);
width = 491;
}
);
leftKerningGroup = f;
rightKerningGroup = f;
unicode = 0066;
},
{
glyphname = g;
lastChange = "2016-09-09 11:28:50 +0000";
layers = (
{
layerId = UUID0;
paths = (
{
closed = 1;
nodes = (
"359 -220 OFFCURVE",
"409 -118 OFFCURVE",
"436 10 CURVE SMOOTH",
"539 497 LINE SMOOTH",
"542 510 OFFCURVE",
"534 520 OFFCURVE",
"521 520 CURVE SMOOTH",
"505 520 LINE SMOOTH",
"492 520 OFFCURVE",
"481 510 OFFCURVE",
"478 497 CURVE SMOOTH",
"468 451 LINE",
"445 495 OFFCURVE",
"396 530 OFFCURVE",
"314 530 CURVE SMOOTH",
"155 530 OFFCURVE",
"83 404 OFFCURVE",
"52 288 CURVE SMOOTH",
"47 268 OFFCURVE",
"43 252 OFFCURVE",
"40 232 CURVE SMOOTH",
"20 115 OFFCURVE",
"52 -10 OFFCURVE",
"212 -10 CURVE SMOOTH",
"294 -10 OFFCURVE",
"345 24 OFFCURVE",
"387 69 CURVE",
"373 0 LINE SMOOTH",
"347 -127 OFFCURVE",
"260 -162 OFFCURVE",
"166 -162 CURVE SMOOTH",
"62 -162 OFFCURVE",
"46 -103 OFFCURVE",
"45 -71 CURVE SMOOTH",
"44 -53 OFFCURVE",
"36 -50 OFFCURVE",
"26 -50 CURVE SMOOTH",
"7 -50 LINE SMOOTH",
"-5 -50 OFFCURVE",
"-13 -60 OFFCURVE",
"-15 -73 CURVE SMOOTH",
"-22 -113 OFFCURVE",
"1 -220 OFFCURVE",
"166 -220 CURVE SMOOTH"
);
},
{
closed = 1;
nodes = (
"98 48 OFFCURVE",
"85 136 OFFCURVE",
"101 232 CURVE SMOOTH",
"104 252 OFFCURVE",
"108 268 OFFCURVE",
"113 288 CURVE SMOOTH",
"139 383 OFFCURVE",
"205 472 OFFCURVE",
"314 472 CURVE SMOOTH",
"428 472 OFFCURVE",
"449 378 OFFCURVE",
"435 296 CURVE SMOOTH",
"432 276 OFFCURVE",
"425 244 OFFCURVE",
"420 224 CURVE SMOOTH",
"399 142 OFFCURVE",
"324 48 OFFCURVE",
"212 48 CURVE SMOOTH"
);
}
);
width = 579;
},
{
layerId = "A0D8A2CD-35BA-4362-A7DB-C0E331BFD9A3";
paths = (
{
closed = 1;
nodes = (
"406 -220 OFFCURVE",
"525 -151 OFFCURVE",
"561 17 CURVE",
"661 493 LINE",
"664 508 OFFCURVE",
"655 520 OFFCURVE",
"640 520 CURVE",
"465 520 LINE",
"450 520 OFFCURVE",
"435 508 OFFCURVE",
"432 493 CURVE",
"425 462 LINE",
"401 502 OFFCURVE",
"347 530 OFFCURVE",
"282 530 CURVE SMOOTH",
"156 530 OFFCURVE",
"73 457 OFFCURVE",
"31 300 CURVE",
"26 280 OFFCURVE",
"24 269 OFFCURVE",
"20 249 CURVE",
"-6 82 OFFCURVE",
"68 23 OFFCURVE",
"194 23 CURVE SMOOTH",
"252 23 OFFCURVE",
"290 39 OFFCURVE",
"327 66 CURVE",
"313 0 LINE",
"304 -40 OFFCURVE",
"286 -59 OFFCURVE",
"257 -59 CURVE SMOOTH",
"233 -59 OFFCURVE",
"226 -51 OFFCURVE",
"220 -34 CURVE SMOOTH",
"217 -22 OFFCURVE",
"212 -14 OFFCURVE",
"197 -14 CURVE",
"2 -14 LINE",
"-13 -14 OFFCURVE",
"-29 -26 OFFCURVE",
"-31 -41 CURVE SMOOTH",
"-37 -84 OFFCURVE",
"22 -220 OFFCURVE",
"238 -220 CURVE SMOOTH"
);
},
{
closed = 1;
nodes = (
"267 197 OFFCURVE",
"262 219 OFFCURVE",
"267 255 CURVE SMOOTH",
"268 265 OFFCURVE",
"272 283 OFFCURVE",
"275 293 CURVE",
"285 329 OFFCURVE",
"300 351 OFFCURVE",
"337 351 CURVE SMOOTH",
"371 351 OFFCURVE",
"380 333 OFFCURVE",
"376 301 CURVE SMOOTH",
"375 291 OFFCURVE",
"368 257 OFFCURVE",
"365 247 CURVE SMOOTH",
"355 215 OFFCURVE",
"338 197 OFFCURVE",
"304 197 CURVE SMOOTH"
);
}
);
width = 665;
}
);
leftKerningGroup = g;
rightKerningGroup = u;
unicode = 0067;
},
{
glyphname = h;
lastChange = "2016-09-09 11:28:50 +0000";
layers = (
{
layerId = UUID0;
paths = (
{
closed = 1;
nodes = (
"58 0 LINE SMOOTH",
"71 0 OFFCURVE",
"81 9 OFFCURVE",
"84 22 CURVE SMOOTH",
"143 301 LINE SMOOTH",
"166 408 OFFCURVE",
"254 472 OFFCURVE",
"349 472 CURVE SMOOTH",
"449 472 OFFCURVE",
"477 407 OFFCURVE",
"454 301 CURVE SMOOTH",
"395 22 LINE SMOOTH",
"392 9 OFFCURVE",
"400 0 OFFCURVE",
"413 0 CURVE SMOOTH",
"430 0 LINE SMOOTH",
"443 0 OFFCURVE",
"453 9 OFFCURVE",
"456 22 CURVE SMOOTH",
"517 306 LINE SMOOTH",
"544 433 OFFCURVE",
"490 530 OFFCURVE",
"349 530 CURVE SMOOTH",
"266 530 OFFCURVE",
"216 498 OFFCURVE",
"175 451 CURVE",
"226 688 LINE SMOOTH",
"229 701 OFFCURVE",
"221 710 OFFCURVE",
"208 710 CURVE SMOOTH",
"191 710 LINE SMOOTH",
"178 710 OFFCURVE",
"168 701 OFFCURVE",
"165 688 CURVE SMOOTH",
"23 22 LINE SMOOTH",
"20 9 OFFCURVE",
"28 0 OFFCURVE",
"41 0 CURVE SMOOTH"
);
}
);
width = 591;
},
{
layerId = "A0D8A2CD-35BA-4362-A7DB-C0E331BFD9A3";
paths = (
{
closed = 1;
nodes = (
"205 0 LINE SMOOTH",
"220 0 OFFCURVE",
"234 12 OFFCURVE",
"237 27 CURVE SMOOTH",
"294 296 LINE SMOOTH",
"302 332 OFFCURVE",
"325 351 OFFCURVE",
"357 351 CURVE SMOOTH",
"389 351 OFFCURVE",
"403 332 OFFCURVE",
"395 296 CURVE SMOOTH",
"338 27 LINE SMOOTH",
"335 12 OFFCURVE",
"345 0 OFFCURVE",
"360 0 CURVE SMOOTH",
"556 0 LINE SMOOTH",
"571 0 OFFCURVE",
"585 12 OFFCURVE",
"588 27 CURVE SMOOTH",
"647 303 LINE SMOOTH",
"680 461 OFFCURVE",
"597 530 OFFCURVE",
"486 530 CURVE SMOOTH",
"424 530 OFFCURVE",
"374 506 OFFCURVE",
"331 468 CURVE",
"377 683 LINE SMOOTH",
"380 698 OFFCURVE",
"370 710 OFFCURVE",
"355 710 CURVE SMOOTH",
"160 710 LINE SMOOTH",
"145 710 OFFCURVE",
"131 698 OFFCURVE",
"128 683 CURVE SMOOTH",
"-12 27 LINE SMOOTH",
"-15 12 OFFCURVE",
"-5 0 OFFCURVE",
"10 0 CURVE SMOOTH"
);
}
);
width = 685;
}
);
leftKerningGroup = h;
rightKerningGroup = n;
unicode = 0068;
},
{
glyphname = hbar;
lastChange = "2016-09-09 11:28:50 +0000";
layers = (
{
layerId = UUID0;
paths = (
{
closed = 1;
nodes = (
"58 0 LINE SMOOTH",
"71 0 OFFCURVE",
"81 9 OFFCURVE",
"84 22 CURVE SMOOTH",
"143 301 LINE SMOOTH",
"166 408 OFFCURVE",
"254 472 OFFCURVE",
"349 472 CURVE SMOOTH",
"459 472 OFFCURVE",
"477 407 OFFCURVE",
"454 301 CURVE SMOOTH",
"395 22 LINE SMOOTH",
"392 9 OFFCURVE",
"400 0 OFFCURVE",
"413 0 CURVE SMOOTH",
"430 0 LINE SMOOTH",
"443 0 OFFCURVE",
"453 9 OFFCURVE",
"456 22 CURVE SMOOTH",
"517 306 LINE SMOOTH",
"544 433 OFFCURVE",
"505 530 OFFCURVE",
"349 530 CURVE SMOOTH",
"263 530 OFFCURVE",
"212 492 OFFCURVE",
"175 451 CURVE",
"201 571 LINE",
"259 571 LINE SMOOTH",
"272 571 OFFCURVE",
"283 580 OFFCURVE",
"286 593 CURVE SMOOTH",
"289 607 LINE SMOOTH",
"291 620 OFFCURVE",
"284 629 OFFCURVE",
"271 629 CURVE SMOOTH",
"213 629 LINE",
"226 688 LINE SMOOTH",
"229 701 OFFCURVE",
"221 710 OFFCURVE",
"208 710 CURVE SMOOTH",
"191 710 LINE SMOOTH",
"178 710 OFFCURVE",
"168 701 OFFCURVE",
"165 688 CURVE SMOOTH",
"152 629 LINE",
"94 629 LINE SMOOTH",
"81 629 OFFCURVE",
"70 620 OFFCURVE",
"68 607 CURVE SMOOTH",
"65 593 LINE SMOOTH",
"62 580 OFFCURVE",
"69 571 OFFCURVE",
"82 571 CURVE SMOOTH",
"140 571 LINE",
"23 22 LINE SMOOTH",
"20 9 OFFCURVE",
"28 0 OFFCURVE",
"41 0 CURVE SMOOTH"
);
}
);
width = 591;
},
{
layerId = "A0D8A2CD-35BA-4362-A7DB-C0E331BFD9A3";
paths = (
{
closed = 1;
nodes = (
"205 0 LINE SMOOTH",
"220 0 OFFCURVE",
"234 12 OFFCURVE",
"237 27 CURVE SMOOTH",
"294 296 LINE SMOOTH",
"302 332 OFFCURVE",
"325 351 OFFCURVE",
"357 351 CURVE SMOOTH",
"389 351 OFFCURVE",
"403 332 OFFCURVE",
"395 296 CURVE SMOOTH",
"338 28 LINE SMOOTH",
"335 13 OFFCURVE",
"345 1 OFFCURVE",
"360 1 CURVE SMOOTH",
"556 1 LINE SMOOTH",
"571 1 OFFCURVE",
"585 13 OFFCURVE",
"588 28 CURVE SMOOTH",
"647 303 LINE SMOOTH",
"680 461 OFFCURVE",
"597 530 OFFCURVE",
"496 530 CURVE SMOOTH",
"434 530 OFFCURVE",
"374 506 OFFCURVE",
"331 468 CURVE",
"346 538 LINE",
"370 538 LINE SMOOTH",
"385 538 OFFCURVE",
"399 550 OFFCURVE",
"403 565 CURVE SMOOTH",
"413 616 LINE SMOOTH",
"417 631 OFFCURVE",
"407 643 OFFCURVE",
"392 643 CURVE SMOOTH",
"368 643 LINE",
"377 683 LINE SMOOTH",
"380 698 OFFCURVE",
"370 710 OFFCURVE",
"355 710 CURVE SMOOTH",
"160 710 LINE SMOOTH",
"145 710 OFFCURVE",
"131 698 OFFCURVE",
"128 683 CURVE SMOOTH",
"119 643 LINE",
"93 643 LINE SMOOTH",
"78 643 OFFCURVE",
"64 631 OFFCURVE",
"60 616 CURVE SMOOTH",
"50 565 LINE SMOOTH",
"46 550 OFFCURVE",
"56 538 OFFCURVE",
"71 538 CURVE SMOOTH",
"97 538 LINE",
"-12 27 LINE SMOOTH",
"-15 12 OFFCURVE",
"-5 0 OFFCURVE",
"10 0 CURVE SMOOTH"
);
}
);
width = 685;
}
);
leftKerningGroup = h;
rightKerningGroup = n;
unicode = 0127;
},
{
glyphname = i;
lastChange = "2016-09-09 11:28:50 +0000";
layers = (
{
layerId = UUID0;
paths = (
{
closed = 1;
nodes = (
"237 687 LINE",
"239 700 OFFCURVE",
"231 710 OFFCURVE",
"218 710 CURVE SMOOTH",
"180 710 LINE SMOOTH",
"167 710 OFFCURVE",
"156 700 OFFCURVE",
"154 687 CURVE",
"145 649 LINE",
"143 636 OFFCURVE",
"150 627 OFFCURVE",
"163 627 CURVE SMOOTH",
"201 627 LINE SMOOTH",
"214 627 OFFCURVE",
"226 636 OFFCURVE",
"228 649 CURVE"
);
},
{
closed = 1;
nodes = (
"185 498 LINE SMOOTH",
"188 511 OFFCURVE",
"181 520 OFFCURVE",
"168 520 CURVE SMOOTH",
"151 520 LINE SMOOTH",
"138 520 OFFCURVE",
"127 511 OFFCURVE",
"124 498 CURVE SMOOTH",
"23 22 LINE SMOOTH",
"20 9 OFFCURVE",
"28 0 OFFCURVE",
"41 0 CURVE SMOOTH",
"58 0 LINE SMOOTH",
"71 0 OFFCURVE",
"81 9 OFFCURVE",
"84 22 CURVE SMOOTH"
);
}
);
width = 224;
},
{
layerId = "A0D8A2CD-35BA-4362-A7DB-C0E331BFD9A3";
paths = (
{
closed = 1;
nodes = (
"189 0 LINE SMOOTH",
"204 0 OFFCURVE",
"218 12 OFFCURVE",
"221 27 CURVE SMOOTH",
"320 493 LINE SMOOTH",
"323 508 OFFCURVE",
"314 520 OFFCURVE",
"299 520 CURVE SMOOTH",
"120 520 LINE SMOOTH",
"105 520 OFFCURVE",
"90 508 OFFCURVE",
"87 493 CURVE SMOOTH",
"-12 27 LINE SMOOTH",
"-15 12 OFFCURVE",
"-5 0 OFFCURVE",
"10 0 CURVE SMOOTH"
);
},
{
closed = 1;
nodes = (
"364 723 LINE SMOOTH",
"367 738 OFFCURVE",
"358 750 OFFCURVE",
"343 750 CURVE SMOOTH",
"174 750 LINE SMOOTH",
"159 750 OFFCURVE",
"144 738 OFFCURVE",
"141 723 CURVE SMOOTH",
"115 602 LINE SMOOTH",
"112 587 OFFCURVE",
"122 575 OFFCURVE",
"137 575 CURVE SMOOTH",
"306 575 LINE SMOOTH",
"321 575 OFFCURVE",
"335 587 OFFCURVE",
"338 602 CURVE SMOOTH"
);
}
);
width = 323;
}
);
leftKerningGroup = i;
rightKerningGroup = i;
unicode = 0069;
},
{
glyphname = iogonek;
lastChange = "2016-09-09 11:27:10 +0000";
layers = (
{
guideLines = (
{
position = "{-150, 22}";
},
{
angle = 90;
position = "{-19, 0}";
}
);
hints = (
{
horizontal = 1;
place = "{348, 0}";
type = Tag;
name = hr00;
}
);
layerId = UUID0;
paths = (
{
closed = 1;
nodes = (
"55 -220 LINE",
"68 -220 OFFCURVE",
"79 -211 OFFCURVE",
"82 -198 CURVE",
"85 -185 LINE",
"88 -172 OFFCURVE",
"81 -163 OFFCURVE",
"68 -163 CURVE",
"53 -163 LINE",
"9 -163 OFFCURVE",
"-17 -133 OFFCURVE",
"-6 -82 CURVE SMOOTH",
"5 -31 OFFCURVE",
"43 0 OFFCURVE",
"87 0 CURVE",
"92 0 LINE",
"105 0 OFFCURVE",
"116 9 OFFCURVE",
"119 22 CURVE",
"220 498 LINE",
"223 511 OFFCURVE",
"216 520 OFFCURVE",
"203 520 CURVE",
"186 520 LINE",
"173 520 OFFCURVE",
"162 511 OFFCURVE",
"159 498 CURVE",
"67 64 LINE",
"66 62 OFFCURVE",
"66 60 OFFCURVE",
"66 58 CURVE",
"65 54 LINE",
"-1 42 OFFCURVE",
"-50 -8 OFFCURVE",
"-66 -82 CURVE SMOOTH",
"-84 -167 OFFCURVE",
"-45 -220 OFFCURVE",
"36 -220 CURVE"
);
},
{
closed = 1;
nodes = (
"235 627 LINE",
"248 627 OFFCURVE",
"260 636 OFFCURVE",
"263 649 CURVE",
"271 687 LINE",
"274 700 OFFCURVE",
"266 710 OFFCURVE",
"253 710 CURVE",
"215 710 LINE",
"202 710 OFFCURVE",
"191 700 OFFCURVE",
"188 687 CURVE",
"180 649 LINE",
"177 636 OFFCURVE",
"184 627 OFFCURVE",
"197 627 CURVE"
);
}
);
width = 244;
},
{
hints = (
{
horizontal = 1;
place = "{-2147483648, 0}";
type = Tag;
name = hr01;
},
{
horizontal = 1;
place = "{-2147483648, 0}";
type = Tag;
name = hr02;
}
);
layerId = "A0D8A2CD-35BA-4362-A7DB-C0E331BFD9A3";
paths = (
{
closed = 1;
nodes = (
"161 -192 LINE SMOOTH",
"176 -192 OFFCURVE",
"191 -180 OFFCURVE",
"194 -165 CURVE SMOOTH",
"206 -107 LINE SMOOTH",
"210 -92 OFFCURVE",
"200 -80 OFFCURVE",
"185 -80 CURVE",
"175 -80 LINE SMOOTH",
"136 -80 OFFCURVE",
"129 -61 OFFCURVE",
"134 -40 CURVE SMOOTH",
"138 -19 OFFCURVE",
"153 0 OFFCURVE",
"192 0 CURVE SMOOTH",
"202 0 LINE SMOOTH",
"217 0 OFFCURVE",
"232 12 OFFCURVE",
"235 27 CURVE SMOOTH",
"334 493 LINE SMOOTH",
"337 508 OFFCURVE",
"328 520 OFFCURVE",
"313 520 CURVE SMOOTH",
"134 520 LINE SMOOTH",
"119 520 OFFCURVE",
"104 508 OFFCURVE",
"101 493 CURVE SMOOTH",
"2 27 LINE SMOOTH",
"-1 12 OFFCURVE",
"8 0 OFFCURVE",
"23 0 CURVE SMOOTH",
"30 0 LINE",
"25 -12 OFFCURVE",
"21 -26 OFFCURVE",
"18 -40 CURVE SMOOTH",
"0 -125 OFFCURVE",
"36 -192 OFFCURVE",
"147 -192 CURVE SMOOTH"
);
},
{
closed = 1;
nodes = (
"319 575 LINE SMOOTH",
"334 575 OFFCURVE",
"349 587 OFFCURVE",
"352 602 CURVE SMOOTH",
"378 723 LINE SMOOTH",
"381 738 OFFCURVE",
"372 750 OFFCURVE",
"357 750 CURVE SMOOTH",
"188 750 LINE SMOOTH",
"173 750 OFFCURVE",
"158 738 OFFCURVE",
"155 723 CURVE SMOOTH",
"129 602 LINE SMOOTH",
"126 587 OFFCURVE",
"135 575 OFFCURVE",
"150 575 CURVE SMOOTH"
);
}
);
width = 323;
}
);
leftKerningGroup = i;
rightKerningGroup = i;
unicode = 012F;
userData = {
com.typemytype.robofont.guides = (
{
angle = 0;
isGlobal = 0;
magnetic = 5;
x = 0;
y = 22;
},
{
angle = 90;
isGlobal = 0;
magnetic = 5;
x = 131;
y = 0;
}
);
};
},
{
glyphname = dotlessi;
lastChange = "2016-09-09 11:28:50 +0000";
layers = (
{
layerId = UUID0;
paths = (
{
closed = 1;
nodes = (
"185 498 LINE SMOOTH",
"188 511 OFFCURVE",
"181 520 OFFCURVE",
"168 520 CURVE SMOOTH",
"151 520 LINE SMOOTH",
"138 520 OFFCURVE",
"127 511 OFFCURVE",
"124 498 CURVE SMOOTH",
"23 22 LINE SMOOTH",
"20 9 OFFCURVE",
"28 0 OFFCURVE",
"41 0 CURVE SMOOTH",
"58 0 LINE SMOOTH",
"71 0 OFFCURVE",
"81 9 OFFCURVE",
"84 22 CURVE SMOOTH"
);
}
);
width = 224;
},
{
layerId = "A0D8A2CD-35BA-4362-A7DB-C0E331BFD9A3";
paths = (
{
closed = 1;
nodes = (
"189 0 LINE",
"204 0 OFFCURVE",
"218 12 OFFCURVE",
"221 27 CURVE SMOOTH",
"320 493 LINE SMOOTH",
"323 508 OFFCURVE",
"314 520 OFFCURVE",
"299 520 CURVE SMOOTH",
"120 520 LINE SMOOTH",
"105 520 OFFCURVE",
"90 508 OFFCURVE",
"87 493 CURVE SMOOTH",
"-12 27 LINE SMOOTH",
"-15 12 OFFCURVE",
"-5 0 OFFCURVE",
"10 0 CURVE SMOOTH"
);
}
);
width = 323;
}
);
leftKerningGroup = i;
rightKerningGroup = i;
unicode = 0131;
},
{
glyphname = j;
lastChange = "2016-09-09 11:28:50 +0000";
layers = (
{
layerId = UUID0;
paths = (
{
closed = 1;
nodes = (
"23 -22 LINE SMOOTH",
"10 -83 OFFCURVE",
"-20 -132 OFFCURVE",
"-85 -132 CURVE SMOOTH",
"-94 -132 LINE SMOOTH",
"-107 -132 OFFCURVE",
"-117 -141 OFFCURVE",
"-120 -154 CURVE SMOOTH",
"-123 -168 LINE SMOOTH",
"-126 -181 OFFCURVE",
"-119 -190 OFFCURVE",
"-106 -190 CURVE SMOOTH",
"-97 -190 LINE SMOOTH",
"24 -190 OFFCURVE",
"64 -116 OFFCURVE",
"84 -22 CURVE SMOOTH",
"194 498 LINE SMOOTH",
"197 511 OFFCURVE",
"190 520 OFFCURVE",
"177 520 CURVE SMOOTH",
"160 520 LINE SMOOTH",
"147 520 OFFCURVE",
"136 511 OFFCURVE",
"133 498 CURVE SMOOTH"
);
},
{
closed = 1;
nodes = (
"246 687 LINE",
"248 700 OFFCURVE",
"240 710 OFFCURVE",
"227 710 CURVE SMOOTH",
"189 710 LINE SMOOTH",
"176 710 OFFCURVE",
"165 700 OFFCURVE",
"163 687 CURVE",
"154 649 LINE",
"152 636 OFFCURVE",
"159 627 OFFCURVE",
"172 627 CURVE SMOOTH",
"210 627 LINE SMOOTH",
"223 627 OFFCURVE",
"235 636 OFFCURVE",
"237 649 CURVE"
);
}
);
width = 234;
},
{
layerId = "A0D8A2CD-35BA-4362-A7DB-C0E331BFD9A3";
paths = (
{
closed = 1;
nodes = (
"-49 -190 LINE SMOOTH",
"106 -190 OFFCURVE",
"211 -121 OFFCURVE",
"243 29 CURVE SMOOTH",
"341 493 LINE SMOOTH",
"344 508 OFFCURVE",
"335 520 OFFCURVE",
"320 520 CURVE SMOOTH",
"132 520 LINE SMOOTH",
"117 520 OFFCURVE",
"102 508 OFFCURVE",
"99 493 CURVE SMOOTH",
"2 35 LINE SMOOTH",
"-5 4 OFFCURVE",
"-22 -15 OFFCURVE",
"-52 -15 CURVE SMOOTH",
"-109 -15 LINE SMOOTH",
"-124 -15 OFFCURVE",
"-138 -27 OFFCURVE",
"-141 -42 CURVE SMOOTH",
"-167 -163 LINE SMOOTH",
"-170 -178 OFFCURVE",
"-161 -190 OFFCURVE",
"-146 -190 CURVE SMOOTH"
);
},
{
closed = 1;
nodes = (
"385 723 LINE SMOOTH",
"388 738 OFFCURVE",
"379 750 OFFCURVE",
"364 750 CURVE SMOOTH",
"186 750 LINE SMOOTH",
"171 750 OFFCURVE",
"156 738 OFFCURVE",
"153 723 CURVE SMOOTH",
"127 602 LINE SMOOTH",
"124 587 OFFCURVE",
"134 575 OFFCURVE",
"149 575 CURVE SMOOTH",
"327 575 LINE SMOOTH",
"342 575 OFFCURVE",
"356 587 OFFCURVE",
"359 602 CURVE SMOOTH"
);
}
);
width = 345;
}
);
rightKerningGroup = i;
unicode = 006A;
},
{
glyphname = dotlessj;
lastChange = "2016-09-09 11:28:50 +0000";
layers = (
{
layerId = UUID0;
paths = (
{
closed = 1;
nodes = (
"-72 -190 LINE SMOOTH",
"50 -190 OFFCURVE",
"95 -116 OFFCURVE",
"115 -22 CURVE SMOOTH",
"225 498 LINE SMOOTH",
"228 511 OFFCURVE",
"221 520 OFFCURVE",
"208 520 CURVE SMOOTH",
"85 520 LINE SMOOTH",
"72 520 OFFCURVE",
"61 511 OFFCURVE",
"58 498 CURVE SMOOTH",
"55 484 LINE SMOOTH",
"53 471 OFFCURVE",
"60 462 OFFCURVE",
"73 462 CURVE SMOOTH",
"157 462 LINE",
"54 -22 LINE SMOOTH",
"41 -83 OFFCURVE",
"21 -132 OFFCURVE",
"-60 -132 CURVE SMOOTH",
"-64 -132 LINE SMOOTH",
"-77 -132 OFFCURVE",
"-86 -141 OFFCURVE",
"-89 -154 CURVE SMOOTH",
"-92 -168 LINE SMOOTH",
"-95 -181 OFFCURVE",
"-88 -190 OFFCURVE",
"-76 -190 CURVE SMOOTH"
);
}
);
width = 265;
},
{
layerId = "A0D8A2CD-35BA-4362-A7DB-C0E331BFD9A3";
paths = (
{
closed = 1;
nodes = (
"78 -190 LINE",
"223 -190 OFFCURVE",
"354 -94 OFFCURVE",
"388 70 CURVE SMOOTH",
"478 493 LINE SMOOTH",
"481 508 OFFCURVE",
"472 520 OFFCURVE",
"457 520 CURVE SMOOTH",
"99 520 LINE SMOOTH",
"84 520 OFFCURVE",
"69 508 OFFCURVE",
"66 493 CURVE SMOOTH",
"39 364 LINE SMOOTH",
"36 349 OFFCURVE",
"45 337 OFFCURVE",
"60 337 CURVE SMOOTH",
"201 337 LINE",
"144 70 LINE SMOOTH",
"138 39 OFFCURVE",
"121 20 OFFCURVE",
"91 20 CURVE SMOOTH",
"-10 20 LINE SMOOTH",
"-25 20 OFFCURVE",
"-40 8 OFFCURVE",
"-43 -7 CURVE SMOOTH",
"-75 -163 LINE SMOOTH",
"-78 -178 OFFCURVE",
"-69 -190 OFFCURVE",
"-55 -190 CURVE SMOOTH"
);
}
);
width = 481;
}
);
leftKerningGroup = dotlessj;
rightKerningGroup = i;
unicode = 0237;
},
{
glyphname = k;
lastChange = "2016-09-09 11:28:50 +0000";
layers = (
{
layerId = UUID0;
paths = (
{
closed = 1;
nodes = (
"58 0 LINE",
"71 0 OFFCURVE",
"81 9 OFFCURVE",
"84 22 CURVE",
"133 248 LINE",
"346 15 LINE",
"352 9 OFFCURVE",
"358 0 OFFCURVE",
"379 0 CURVE SMOOTH",
"395 0 LINE",
"412 0 OFFCURVE",
"422 20 OFFCURVE",
"409 34 CURVE SMOOTH",
"179 288 LINE",
"473 480 LINE SMOOTH",
"498 496 OFFCURVE",
"493 520 OFFCURVE",
"474 520 CURVE SMOOTH",
"447 520 LINE",
"427 520 OFFCURVE",
"423 517 OFFCURVE",
"401 503 CURVE",
"152 341 LINE",
"226 688 LINE",
"229 701 OFFCURVE",
"221 710 OFFCURVE",
"208 710 CURVE",
"191 710 LINE",
"178 710 OFFCURVE",
"168 701 OFFCURVE",
"165 688 CURVE",
"23 22 LINE",
"20 9 OFFCURVE",
"28 0 OFFCURVE",
"41 0 CURVE"
);
}
);
width = 485;
},
{
layerId = "A0D8A2CD-35BA-4362-A7DB-C0E331BFD9A3";
paths = (
{
closed = 1;
nodes = (
"185 0 LINE SMOOTH",
"200 0 OFFCURVE",
"214 12 OFFCURVE",
"217 27 CURVE SMOOTH",
"253 203 LINE",
"327 17 LINE SMOOTH",
"331 7 OFFCURVE",
"340 0 OFFCURVE",
"355 0 CURVE SMOOTH",
"555 0 LINE SMOOTH",
"579 0 OFFCURVE",
"590 19 OFFCURVE",
"582 37 CURVE SMOOTH",
"484 268 LINE",
"662 481 LINE",
"677 497 OFFCURVE",
"676 520 OFFCURVE",
"651 520 CURVE SMOOTH",
"439 520 LINE SMOOTH",
"421 520 OFFCURVE",
"410 508 OFFCURVE",
"406 503 CURVE SMOOTH",
"288 359 LINE",
"357 683 LINE SMOOTH",
"360 698 OFFCURVE",
"350 710 OFFCURVE",
"335 710 CURVE SMOOTH",
"160 710 LINE SMOOTH",
"145 710 OFFCURVE",
"131 698 OFFCURVE",
"128 683 CURVE SMOOTH",
"-12 27 LINE SMOOTH",
"-15 12 OFFCURVE",
"-5 0 OFFCURVE",
"10 0 CURVE SMOOTH"
);
}
);
width = 650;
}
);
leftKerningGroup = h;
rightKerningGroup = k;
unicode = 006B;
},
{
glyphname = kgreenlandic;
lastChange = "2016-09-09 11:28:50 +0000";
layers = (
{
layerId = UUID0;
paths = (
{
closed = 1;
nodes = (
"58 0 LINE SMOOTH",
"71 0 OFFCURVE",
"81 9 OFFCURVE",
"84 22 CURVE SMOOTH",
"125 212 LINE",
"332 17 LINE",
"346 4 OFFCURVE",
"351 0 OFFCURVE",
"371 0 CURVE SMOOTH",
"389 0 LINE SMOOTH",
"401 0 OFFCURVE",
"410 8 OFFCURVE",
"413 20 CURVE SMOOTH",
"414 25 OFFCURVE",
"412 33 OFFCURVE",
"404 40 CURVE SMOOTH",
"171 260 LINE",
"478 480 LINE",
"489 487 OFFCURVE",
"494 495 OFFCURVE",
"495 500 CURVE SMOOTH",
"497 512 OFFCURVE",
"491 520 OFFCURVE",
"479 520 CURVE SMOOTH",
"463 520 LINE SMOOTH",
"443 520 OFFCURVE",
"439 517 OFFCURVE",
"417 503 CURVE",
"145 308 LINE",
"185 498 LINE SMOOTH",
"188 511 OFFCURVE",
"181 520 OFFCURVE",
"168 520 CURVE SMOOTH",
"151 520 LINE SMOOTH",
"138 520 OFFCURVE",
"127 511 OFFCURVE",
"124 498 CURVE SMOOTH",
"23 22 LINE SMOOTH",
"20 9 OFFCURVE",
"28 0 OFFCURVE",
"41 0 CURVE SMOOTH"
);
}
);
width = 486;
},
{
layerId = "A0D8A2CD-35BA-4362-A7DB-C0E331BFD9A3";
paths = (
{
closed = 1;
nodes = (
"185 0 LINE SMOOTH",
"200 0 OFFCURVE",
"214 12 OFFCURVE",
"217 27 CURVE SMOOTH",
"252 185 LINE",
"329 17 LINE SMOOTH",
"330 14 OFFCURVE",
"337 0 OFFCURVE",
"357 0 CURVE SMOOTH",
"555 0 LINE SMOOTH",
"580 0 OFFCURVE",
"590 21 OFFCURVE",
"582 37 CURVE SMOOTH",
"476 259 LINE",
"666 481 LINE",
"681 499 OFFCURVE",
"680 520 OFFCURVE",
"655 520 CURVE SMOOTH",
"446 520 LINE SMOOTH",
"428 520 OFFCURVE",
"417 508 OFFCURVE",
"413 503 CURVE SMOOTH",
"283 336 LINE",
"316 493 LINE SMOOTH",
"319 508 OFFCURVE",
"310 520 OFFCURVE",
"295 520 CURVE SMOOTH",
"120 520 LINE SMOOTH",
"105 520 OFFCURVE",
"90 508 OFFCURVE",
"87 493 CURVE SMOOTH",
"-12 27 LINE SMOOTH",
"-15 12 OFFCURVE",
"-5 0 OFFCURVE",
"10 0 CURVE SMOOTH"
);
}
);
width = 649;
}
);
leftKerningGroup = n;
rightKerningGroup = k;
unicode = 0138;
},
{
glyphname = l;
lastChange = "2016-09-09 11:28:50 +0000";
layers = (
{
layerId = UUID0;
paths = (
{
closed = 1;
nodes = (
"226 688 LINE SMOOTH",
"229 701 OFFCURVE",
"221 710 OFFCURVE",
"208 710 CURVE SMOOTH",
"191 710 LINE SMOOTH",
"178 710 OFFCURVE",
"168 701 OFFCURVE",
"165 688 CURVE SMOOTH",
"23 22 LINE SMOOTH",
"20 9 OFFCURVE",
"28 0 OFFCURVE",
"41 0 CURVE SMOOTH",
"58 0 LINE SMOOTH",
"71 0 OFFCURVE",
"81 9 OFFCURVE",
"84 22 CURVE SMOOTH"
);
}
);
width = 225;
},
{
layerId = "A0D8A2CD-35BA-4362-A7DB-C0E331BFD9A3";
paths = (
{
closed = 1;
nodes = (
"189 0 LINE SMOOTH",
"204 0 OFFCURVE",
"218 12 OFFCURVE",
"221 27 CURVE SMOOTH",
"361 683 LINE SMOOTH",
"364 698 OFFCURVE",
"354 710 OFFCURVE",
"339 710 CURVE SMOOTH",
"160 710 LINE SMOOTH",
"145 710 OFFCURVE",
"131 698 OFFCURVE",
"128 683 CURVE SMOOTH",
"-12 27 LINE SMOOTH",
"-15 12 OFFCURVE",
"-5 0 OFFCURVE",
"10 0 CURVE SMOOTH"
);
}
);
width = 324;
}
);
leftKerningGroup = l;
rightKerningGroup = l;
unicode = 006C;
},
{
glyphname = ldot;
lastChange = "2016-09-09 11:28:50 +0000";
layers = (
{
components = (
{
name = l;
},
{
name = dotaccent;
transform = "{1, 0, 0, 1, 169, -304}";
}
);
layerId = UUID0;
width = 256;
},
{
components = (
{
name = l;
}
);
layerId = "A0D8A2CD-35BA-4362-A7DB-C0E331BFD9A3";
paths = (
{
closed = 1;
nodes = (
"477 272 LINE SMOOTH",
"490 272 OFFCURVE",
"502 282 OFFCURVE",
"505 295 CURVE SMOOTH",
"533 426 LINE SMOOTH",
"536 439 OFFCURVE",
"528 449 OFFCURVE",
"515 449 CURVE SMOOTH",
"384 449 LINE",
"371 449 OFFCURVE",
"359 439 OFFCURVE",
"356 426 CURVE SMOOTH",
"328 295 LINE SMOOTH",
"325 282 OFFCURVE",
"333 272 OFFCURVE",
"346 272 CURVE SMOOTH"
);
}
);
width = 512;
}
);
leftKerningGroup = l;
unicode = 0140;
},
{
glyphname = lslash;
lastChange = "2016-09-09 11:28:50 +0000";
layers = (
{
layerId = UUID0;
paths = (
{
closed = 1;
nodes = (
"70 0 LINE SMOOTH",
"83 0 OFFCURVE",
"93 9 OFFCURVE",
"96 22 CURVE SMOOTH",
"164 341 LINE",
"216 360 LINE SMOOTH",
"233 366 OFFCURVE",
"240 370 OFFCURVE",
"243 385 CURVE SMOOTH",
"247 404 LINE SMOOTH",
"252 423 OFFCURVE",
"232 424 OFFCURVE",
"222 420 CURVE SMOOTH",
"177 404 LINE",
"238 688 LINE SMOOTH",
"241 701 OFFCURVE",
"233 710 OFFCURVE",
"220 710 CURVE SMOOTH",
"203 710 LINE SMOOTH",
"190 710 OFFCURVE",
"180 701 OFFCURVE",
"177 688 CURVE SMOOTH",
"111 381 LINE",
"60 363 LINE SMOOTH",
"42 357 OFFCURVE",
"36 353 OFFCURVE",
"32 338 CURVE SMOOTH",
"28 319 LINE SMOOTH",
"24 300 OFFCURVE",
"43 299 OFFCURVE",
"54 303 CURVE SMOOTH",
"98 318 LINE",
"35 22 LINE SMOOTH",
"32 9 OFFCURVE",
"40 0 OFFCURVE",
"53 0 CURVE SMOOTH"
);
}
);
width = 246;
},
{
layerId = "A0D8A2CD-35BA-4362-A7DB-C0E331BFD9A3";
paths = (
{
closed = 1;
nodes = (
"223 0 LINE SMOOTH",
"238 0 OFFCURVE",
"252 12 OFFCURVE",
"255 27 CURVE SMOOTH",
"317 319 LINE",
"358 334 LINE SMOOTH",
"376 340 OFFCURVE",
"384 349 OFFCURVE",
"388 367 CURVE SMOOTH",
"410 475 LINE SMOOTH",
"413 487 OFFCURVE",
"406 496 OFFCURVE",
"394 496 CURVE SMOOTH",
"392 496 OFFCURVE",
"388 495 OFFCURVE",
"382 493 CURVE SMOOTH",
"352 482 LINE",
"395 683 LINE SMOOTH",
"398 698 OFFCURVE",
"388 710 OFFCURVE",
"373 710 CURVE SMOOTH",
"194 710 LINE SMOOTH",
"179 710 OFFCURVE",
"165 698 OFFCURVE",
"162 683 CURVE SMOOTH",
"100 391 LINE",
"59 377 LINE SMOOTH",
"41 371 OFFCURVE",
"33 362 OFFCURVE",
"30 344 CURVE SMOOTH",
"7 236 LINE SMOOTH",
"4 224 OFFCURVE",
"11 215 OFFCURVE",
"23 215 CURVE SMOOTH",
"25 215 OFFCURVE",
"29 216 OFFCURVE",
"35 218 CURVE SMOOTH",
"65 229 LINE",
"22 27 LINE SMOOTH",
"19 12 OFFCURVE",
"29 0 OFFCURVE",
"44 0 CURVE SMOOTH"
);
}
);
width = 394;
}
);
leftKerningGroup = l;
rightKerningGroup = l;
unicode = 0142;
},
{
glyphname = m;
lastChange = "2016-09-09 11:28:50 +0000";
layers = (
{
layerId = UUID0;
paths = (
{
closed = 1;
nodes = (
"58 0 LINE SMOOTH",
"71 0 OFFCURVE",
"81 9 OFFCURVE",
"84 22 CURVE SMOOTH",
"144 304 LINE SMOOTH",
"172 434 OFFCURVE",
"262 472 OFFCURVE",
"323 472 CURVE SMOOTH",
"390 472 OFFCURVE",
"441 434 OFFCURVE",
"413 303 CURVE SMOOTH",
"353 22 LINE SMOOTH",
"350 9 OFFCURVE",
"358 0 OFFCURVE",
"371 0 CURVE SMOOTH",
"388 0 LINE SMOOTH",
"401 0 OFFCURVE",
"411 9 OFFCURVE",
"414 22 CURVE SMOOTH",
"474 303 LINE SMOOTH",
"502 434 OFFCURVE",
"592 472 OFFCURVE",
"653 472 CURVE SMOOTH",
"725 472 OFFCURVE",
"771 434 OFFCURVE",
"743 303 CURVE SMOOTH",
"683 22 LINE SMOOTH",
"680 9 OFFCURVE",
"688 0 OFFCURVE",
"701 0 CURVE SMOOTH",
"718 0 LINE SMOOTH",
"731 0 OFFCURVE",
"741 9 OFFCURVE",
"744 22 CURVE SMOOTH",
"806 313 LINE SMOOTH",
"836 456 OFFCURVE",
"761 530 OFFCURVE",
"655 530 CURVE SMOOTH",
"578 530 OFFCURVE",
"518 493 OFFCURVE",
"475 436 CURVE",
"457 497 OFFCURVE",
"400 530 OFFCURVE",
"325 530 CURVE SMOOTH",
"259 530 OFFCURVE",
"220 506 OFFCURVE",
"178 463 CURVE",
"185 498 LINE SMOOTH",
"188 511 OFFCURVE",
"181 520 OFFCURVE",
"168 520 CURVE SMOOTH",
"151 520 LINE SMOOTH",
"138 520 OFFCURVE",
"127 511 OFFCURVE",
"124 498 CURVE SMOOTH",
"23 22 LINE SMOOTH",
"20 9 OFFCURVE",
"28 0 OFFCURVE",
"41 0 CURVE SMOOTH"
);
}
);
width = 879;
},
{
layerId = "A0D8A2CD-35BA-4362-A7DB-C0E331BFD9A3";
paths = (
{
closed = 1;
nodes = (
"190 0 LINE SMOOTH",
"205 0 OFFCURVE",
"219 12 OFFCURVE",
"222 27 CURVE SMOOTH",
"281 302 LINE SMOOTH",
"287 333 OFFCURVE",
"306 351 OFFCURVE",
"331 351 CURVE SMOOTH",
"356 351 OFFCURVE",
"367 334 OFFCURVE",
"361 302 CURVE",
"302 27 LINE SMOOTH",
"299 12 OFFCURVE",
"309 0 OFFCURVE",
"324 0 CURVE SMOOTH",
"500 0 LINE SMOOTH",
"515 0 OFFCURVE",
"529 12 OFFCURVE",
"532 27 CURVE SMOOTH",
"591 302 LINE",
"597 334 OFFCURVE",
"615 351 OFFCURVE",
"640 351 CURVE SMOOTH",
"665 351 OFFCURVE",
"676 334 OFFCURVE",
"670 302 CURVE",
"611 27 LINE SMOOTH",
"608 12 OFFCURVE",
"618 0 OFFCURVE",
"633 0 CURVE SMOOTH",
"809 0 LINE SMOOTH",
"824 0 OFFCURVE",
"838 12 OFFCURVE",
"841 27 CURVE SMOOTH",
"901 307 LINE SMOOTH",
"934 465 OFFCURVE",
"865 530 OFFCURVE",
"754 530 CURVE SMOOTH",
"683 530 OFFCURVE",
"635 494 OFFCURVE",
"594 448 CURVE",
"575 497 OFFCURVE",
"533 530 OFFCURVE",
"453 530 CURVE SMOOTH",
"371 530 OFFCURVE",
"329 490 OFFCURVE",
"299 460 CURVE",
"306 493 LINE SMOOTH",
"309 508 OFFCURVE",
"300 520 OFFCURVE",
"285 520 CURVE SMOOTH",
"120 520 LINE SMOOTH",
"105 520 OFFCURVE",
"90 508 OFFCURVE",
"87 493 CURVE SMOOTH",
"-12 27 LINE SMOOTH",
"-15 12 OFFCURVE",
"-5 0 OFFCURVE",
"10 0 CURVE SMOOTH"
);
}
);
width = 938;
}
);
leftKerningGroup = n;
rightKerningGroup = n;
unicode = 006D;
},
{
glyphname = n;
lastChange = "2016-09-09 11:28:50 +0000";
layers = (
{
layerId = UUID0;
paths = (
{
closed = 1;
nodes = (
"516 306 LINE SMOOTH",
"543 433 OFFCURVE",
"503 530 OFFCURVE",
"351 530 CURVE SMOOTH",
"275 530 OFFCURVE",
"216 497 OFFCURVE",
"175 451 CURVE",
"185 498 LINE SMOOTH",
"188 511 OFFCURVE",
"181 520 OFFCURVE",
"168 520 CURVE SMOOTH",
"151 520 LINE SMOOTH",
"138 520 OFFCURVE",
"127 511 OFFCURVE",
"124 498 CURVE SMOOTH",
"23 22 LINE SMOOTH",
"20 9 OFFCURVE",
"28 0 OFFCURVE",
"41 0 CURVE SMOOTH",
"58 0 LINE SMOOTH",
"71 0 OFFCURVE",
"81 9 OFFCURVE",
"84 22 CURVE SMOOTH",
"143 301 LINE SMOOTH",
"166 408 OFFCURVE",
"246 472 OFFCURVE",
"351 472 CURVE SMOOTH",
"460 472 OFFCURVE",
"477 414 OFFCURVE",
"453 301 CURVE SMOOTH",
"394 22 LINE SMOOTH",
"391 9 OFFCURVE",
"399 0 OFFCURVE",
"412 0 CURVE SMOOTH",
"429 0 LINE SMOOTH",
"442 0 OFFCURVE",
"452 9 OFFCURVE",
"455 22 CURVE SMOOTH"
);
}
);
width = 590;
},
{
layerId = "A0D8A2CD-35BA-4362-A7DB-C0E331BFD9A3";
paths = (
{
closed = 1;
nodes = (
"636 303 LINE SMOOTH",
"669 461 OFFCURVE",
"591 530 OFFCURVE",
"480 530 CURVE SMOOTH",
"409 530 OFFCURVE",
"351 499 OFFCURVE",
"309 460 CURVE",
"316 493 LINE SMOOTH",
"319 508 OFFCURVE",
"310 520 OFFCURVE",
"295 520 CURVE SMOOTH",
"120 520 LINE SMOOTH",
"105 520 OFFCURVE",
"90 508 OFFCURVE",
"87 493 CURVE SMOOTH",
"-12 27 LINE SMOOTH",
"-15 12 OFFCURVE",
"-5 0 OFFCURVE",
"10 0 CURVE SMOOTH",
"200 0 LINE SMOOTH",
"215 0 OFFCURVE",
"229 12 OFFCURVE",
"232 27 CURVE SMOOTH",
"289 296 LINE SMOOTH",
"297 332 OFFCURVE",
"319 351 OFFCURVE",
"351 351 CURVE SMOOTH",
"383 351 OFFCURVE",
"397 332 OFFCURVE",
"389 296 CURVE SMOOTH",
"332 27 LINE SMOOTH",
"329 12 OFFCURVE",
"339 0 OFFCURVE",
"354 0 CURVE SMOOTH",
"545 0 LINE SMOOTH",
"560 0 OFFCURVE",
"574 12 OFFCURVE",
"577 27 CURVE SMOOTH"
);
}
);
width = 674;
}
);
leftKerningGroup = n;
rightKerningGroup = n;
unicode = 006E;
},
{
glyphname = o;
lastChange = "2016-09-09 11:28:50 +0000";
layers = (
{
layerId = UUID0;
paths = (
{
closed = 1;
nodes = (
"176 530 OFFCURVE",
"88 431 OFFCURVE",
"57 302 CURVE",
"51 282 OFFCURVE",
"42 238 OFFCURVE",
"39 218 CURVE",
"15 89 OFFCURVE",
"79 -10 OFFCURVE",
"218 -10 CURVE SMOOTH",
"363 -10 OFFCURVE",
"451 89 OFFCURVE",
"483 218 CURVE SMOOTH",
"488 238 OFFCURVE",
"497 282 OFFCURVE",
"501 302 CURVE SMOOTH",
"524 431 OFFCURVE",
"464 530 OFFCURVE",
"321 530 CURVE SMOOTH"
);
},
{
closed = 1;
nodes = (
"435 277 OFFCURVE",
"428 243 OFFCURVE",
"423 223 CURVE SMOOTH",
"395 109 OFFCURVE",
"312 48 OFFCURVE",
"218 48 CURVE SMOOTH",
"122 48 OFFCURVE",
"81 109 OFFCURVE",
"101 223 CURVE SMOOTH",
"104 243 OFFCURVE",
"111 277 OFFCURVE",
"117 297 CURVE",
"145 411 OFFCURVE",
"227 472 OFFCURVE",
"321 472 CURVE SMOOTH",
"416 472 OFFCURVE",
"459 411 OFFCURVE",
"439 297 CURVE SMOOTH"
);
}
);
width = 556;
},
{
layerId = "A0D8A2CD-35BA-4362-A7DB-C0E331BFD9A3";
paths = (
{
closed = 1;
nodes = (
"177 530 OFFCURVE",
"74 454 OFFCURVE",
"33 307 CURVE SMOOTH",
"24 277 OFFCURVE",
"17 243 OFFCURVE",
"13 213 CURVE SMOOTH",
"-8 66 OFFCURVE",
"91 -10 OFFCURVE",
"265 -10 CURVE SMOOTH",
"459 -10 OFFCURVE",
"552 66 OFFCURVE",
"593 213 CURVE SMOOTH",
"601 243 OFFCURVE",
"608 277 OFFCURVE",
"613 307 CURVE SMOOTH",
"634 454 OFFCURVE",
"523 530 OFFCURVE",
"360 530 CURVE SMOOTH"
);
},
{
closed = 1;
nodes = (
"364 282 OFFCURVE",
"354 238 OFFCURVE",
"349 218 CURVE SMOOTH",
"336 171 OFFCURVE",
"327 150 OFFCURVE",
"289 150 CURVE SMOOTH",
"251 150 OFFCURVE",
"252 171 OFFCURVE",
"259 218 CURVE SMOOTH",
"262 238 OFFCURVE",
"271 282 OFFCURVE",
"277 302 CURVE SMOOTH",
"289 346 OFFCURVE",
"298 370 OFFCURVE",
"336 370 CURVE SMOOTH",
"374 370 OFFCURVE",
"374 346 OFFCURVE",
"367 302 CURVE SMOOTH"
);
}
);
width = 641;
}
);
leftKerningGroup = o;
rightKerningGroup = o;
unicode = 006F;
},
{
glyphname = oslash;
lastChange = "2016-09-09 11:24:12 +0000";
layers = (
{
guideLines = (
{
position = "{-150, 259}";
},
{
angle = 90;
position = "{220, 0}";
},
{
angle = 90;
position = "{-70, 0}";
},
{
angle = 90;
position = "{434, 0}";
},
{
angle = 90;
position = "{-9, 0}";
},
{
angle = 90;
position = "{-130, 0}";
}
);
hints = (
{
horizontal = 1;
place = "{380, 0}";
type = Tag;
name = hr00;
}
);
layerId = UUID0;
paths = (
{
closed = 1;
nodes = (
"410 -10 OFFCURVE",
"490 109 OFFCURVE",
"517 218 CURVE SMOOTH",
"523 242 OFFCURVE",
"533 289 OFFCURVE",
"536 312 CURVE",
"578 327 LINE SMOOTH",
"595 333 OFFCURVE",
"602 337 OFFCURVE",
"605 352 CURVE SMOOTH",
"609 371 LINE SMOOTH",
"612 383 OFFCURVE",
"605 389 OFFCURVE",
"594 389 CURVE SMOOTH",
"590 389 OFFCURVE",
"586 388 OFFCURVE",
"580 386 CURVE SMOOTH",
"539 371 LINE",
"535 456 OFFCURVE",
"490 530 OFFCURVE",
"361 530 CURVE SMOOTH",
"197 530 OFFCURVE",
"117 411 OFFCURVE",
"90 302 CURVE SMOOTH",
"82 270 OFFCURVE",
"75 238 OFFCURVE",
"70 203 CURVE",
"28 188 LINE SMOOTH",
"11 182 OFFCURVE",
"4 178 OFFCURVE",
"1 163 CURVE SMOOTH",
"-3 144 LINE SMOOTH",
"-6 132 OFFCURVE",
"1 126 OFFCURVE",
"12 126 CURVE SMOOTH",
"16 126 OFFCURVE",
"20 127 OFFCURVE",
"26 129 CURVE SMOOTH",
"67 144 LINE",
"72 61 OFFCURVE",
"119 -10 OFFCURVE",
"246 -10 CURVE SMOOTH"
);
},
{
closed = 1;
nodes = (
"188 48 OFFCURVE",
"131 81 OFFCURVE",
"128 166 CURVE",
"471 289 LINE",
"467 267 OFFCURVE",
"460 234 OFFCURVE",
"456 218 CURVE SMOOTH",
"425 94 OFFCURVE",
"341 48 OFFCURVE",
"258 48 CURVE SMOOTH"
);
},
{
closed = 1;
nodes = (
"139 248 OFFCURVE",
"147 284 OFFCURVE",
"151 302 CURVE SMOOTH",
"182 426 OFFCURVE",
"266 472 OFFCURVE",
"349 472 CURVE SMOOTH",
"420 472 OFFCURVE",
"477 438 OFFCURVE",
"477 349 CURVE",
"135 226 LINE"
);
}
);
width = 594;
},
{
hints = (
{
horizontal = 1;
place = "{-2147483648, 0}";
type = Tag;
name = hr00;
}
);
layerId = "A0D8A2CD-35BA-4362-A7DB-C0E331BFD9A3";
paths = (
{
closed = 1;
nodes = (
"468 -10 OFFCURVE",
"580 66 OFFCURVE",
"621 213 CURVE SMOOTH",
"630 243 OFFCURVE",
"639 285 OFFCURVE",
"642 316 CURVE",
"655 321 LINE",
"673 327 OFFCURVE",
"681 336 OFFCURVE",
"684 354 CURVE",
"699 422 LINE",
"701 434 OFFCURVE",
"694 443 OFFCURVE",
"682 443 CURVE SMOOTH",
"680 443 OFFCURVE",
"676 442 OFFCURVE",
"671 440 CURVE",
"631 425 LINE",
"600 496 OFFCURVE",
"521 530 OFFCURVE",
"399 530 CURVE SMOOTH",
"226 530 OFFCURVE",
"103 454 OFFCURVE",
"61 307 CURVE SMOOTH",
"53 277 OFFCURVE",
"46 244 OFFCURVE",
"42 214 CURVE",
"26 209 LINE",
"8 203 OFFCURVE",
"0 194 OFFCURVE",
"-3 176 CURVE",
"-18 108 LINE",
"-20 96 OFFCURVE",
"-13 87 OFFCURVE",
"-1 87 CURVE SMOOTH",
"1 87 OFFCURVE",
"5 88 OFFCURVE",
"10 90 CURVE",
"48 103 LINE",
"75 28 OFFCURVE",
"153 -10 OFFCURVE",
"284 -10 CURVE SMOOTH"
);
},
{
closed = 1;
nodes = (
"289 150 OFFCURVE",
"283 162 OFFCURVE",
"284 188 CURVE",
"378 222 LINE",
"378 221 OFFCURVE",
"378 219 OFFCURVE",
"378 218 CURVE",
"365 171 OFFCURVE",
"356 150 OFFCURVE",
"318 150 CURVE SMOOTH"
);
},
{
closed = 1;
nodes = (
"307 311 OFFCURVE",
"308 313 OFFCURVE",
"308 315 CURVE SMOOTH",
"320 350 OFFCURVE",
"331 370 OFFCURVE",
"365 370 CURVE SMOOTH",
"389 370 OFFCURVE",
"397 360 OFFCURVE",
"398 342 CURVE",
"307 309 LINE"
);
}
);
width = 667;
}
);
leftKerningGroup = o;
rightKerningGroup = o;
unicode = 00F8;
userData = {
com.typemytype.robofont.guides = (
{
angle = 0;
isGlobal = 0;
magnetic = 5;
x = 0;
y = 259;
},
{
angle = 90;
isGlobal = 0;
magnetic = 5;
x = 370;
y = 0;
},
{
angle = 90;
isGlobal = 0;
magnetic = 5;
x = 80;
y = 0;
},
{
angle = 90;
isGlobal = 0;
magnetic = 5;
x = 584;
y = 0;
},
{
angle = 90;
isGlobal = 0;
magnetic = 5;
x = 141;
y = 0;
},
{
angle = 90;
isGlobal = 0;
magnetic = 5;
x = 20;
y = 0;
}
);
};
},
{
glyphname = oe;
lastChange = "2016-09-09 11:24:12 +0000";
layers = (
{
guideLines = (
{
angle = 90;
position = "{-99, 0}";
},
{
angle = 90;
position = "{345, 0}";
}
);
hints = (
{
horizontal = 1;
place = "{380, 0}";
type = Tag;
name = hr00;
}
);
layerId = UUID0;
paths = (
{
closed = 1;
nodes = (
"325 -10 OFFCURVE",
"398 33 OFFCURVE",
"447 101 CURVE",
"468 32 OFFCURVE",
"524 -10 OFFCURVE",
"611 -10 CURVE SMOOTH",
"732 -10 OFFCURVE",
"828 73 OFFCURVE",
"838 111 CURVE SMOOTH",
"841 123 OFFCURVE",
"833 131 OFFCURVE",
"821 131 CURVE SMOOTH",
"805 131 LINE SMOOTH",
"790 131 OFFCURVE",
"787 130 OFFCURVE",
"771 113 CURVE SMOOTH",
"757 97 OFFCURVE",
"703 48 OFFCURVE",
"623 48 CURVE SMOOTH",
"526 48 OFFCURVE",
"488 134 OFFCURVE",
"503 225 CURVE SMOOTH",
"505 235 LINE",
"861 235 LINE SMOOTH",
"874 235 OFFCURVE",
"886 244 OFFCURVE",
"889 257 CURVE SMOOTH",
"892 272 LINE SMOOTH",
"926 432 OFFCURVE",
"865 530 OFFCURVE",
"726 530 CURVE SMOOTH",
"638 530 OFFCURVE",
"565 487 OFFCURVE",
"514 418 CURVE",
"495 486 OFFCURVE",
"440 530 OFFCURVE",
"344 530 CURVE SMOOTH",
"200 530 OFFCURVE",
"105 431 OFFCURVE",
"73 302 CURVE SMOOTH",
"68 282 OFFCURVE",
"59 238 OFFCURVE",
"56 218 CURVE SMOOTH",
"32 89 OFFCURVE",
"85 -10 OFFCURVE",
"229 -10 CURVE SMOOTH"
);
},
{
closed = 1;
nodes = (
"148 48 OFFCURVE",
"97 109 OFFCURVE",
"118 223 CURVE SMOOTH",
"121 243 OFFCURVE",
"128 277 OFFCURVE",
"133 297 CURVE SMOOTH",
"162 411 OFFCURVE",
"239 472 OFFCURVE",
"332 472 CURVE SMOOTH",
"425 472 OFFCURVE",
"476 411 OFFCURVE",
"455 297 CURVE SMOOTH",
"452 277 OFFCURVE",
"445 243 OFFCURVE",
"440 223 CURVE SMOOTH",
"411 109 OFFCURVE",
"334 48 OFFCURVE",
"241 48 CURVE SMOOTH"
);
},
{
closed = 1;
nodes = (
"518 295 LINE SMOOTH",
"539 395 OFFCURVE",
"614 472 OFFCURVE",
"714 472 CURVE SMOOTH",
"814 472 OFFCURVE",
"857 395 OFFCURVE",
"836 295 CURVE SMOOTH",
"835 291 LINE",
"517 291 LINE"
);
}
);
width = 931;
},
{
hints = (
{
horizontal = 1;
place = "{-2147483648, 0}";
type = Tag;
name = hr01;
},
{
horizontal = 1;
place = "{-2147483648, 0}";
type = Tag;
name = hr02;
},
{
horizontal = 1;
place = "{-2147483648, 0}";
type = Tag;
name = hr03;
},
{
horizontal = 1;
place = "{-2147483648, 0}";
type = Tag;
name = hr04;
}
);
layerId = "A0D8A2CD-35BA-4362-A7DB-C0E331BFD9A3";
paths = (
{
closed = 1;
nodes = (
"340 -10 OFFCURVE",
"399 1 OFFCURVE",
"448 22 CURVE",
"487 0 OFFCURVE",
"540 -10 OFFCURVE",
"603 -10 CURVE SMOOTH",
"788 -10 OFFCURVE",
"893 94 OFFCURVE",
"907 145 CURVE SMOOTH",
"911 158 OFFCURVE",
"903 167 OFFCURVE",
"890 167 CURVE",
"701 167 LINE",
"685 167 OFFCURVE",
"679 165 OFFCURVE",
"665 153 CURVE SMOOTH",
"651 142 OFFCURVE",
"644 135 OFFCURVE",
"632 135 CURVE SMOOTH",
"603 135 OFFCURVE",
"597 156 OFFCURVE",
"606 196 CURVE",
"607 201 LINE",
"905 201 LINE",
"920 201 OFFCURVE",
"934 213 OFFCURVE",
"938 228 CURVE",
"944 258 LINE",
"975 405 OFFCURVE",
"913 530 OFFCURVE",
"717 530 CURVE SMOOTH",
"655 530 OFFCURVE",
"599 518 OFFCURVE",
"550 494 CURVE",
"509 518 OFFCURVE",
"453 530 OFFCURVE",
"385 530 CURVE SMOOTH",
"212 530 OFFCURVE",
"89 454 OFFCURVE",
"47 307 CURVE SMOOTH",
"39 277 OFFCURVE",
"32 243 OFFCURVE",
"27 213 CURVE SMOOTH",
"6 66 OFFCURVE",
"86 -10 OFFCURVE",
"270 -10 CURVE SMOOTH"
);
},
{
closed = 1;
nodes = (
"266 150 OFFCURVE",
"267 171 OFFCURVE",
"274 218 CURVE SMOOTH",
"277 238 OFFCURVE",
"286 282 OFFCURVE",
"291 302 CURVE SMOOTH",
"304 346 OFFCURVE",
"313 370 OFFCURVE",
"351 370 CURVE SMOOTH",
"389 370 OFFCURVE",
"388 346 OFFCURVE",
"381 302 CURVE SMOOTH",
"378 282 OFFCURVE",
"369 238 OFFCURVE",
"364 218 CURVE SMOOTH",
"351 171 OFFCURVE",
"342 150 OFFCURVE",
"304 150 CURVE SMOOTH"
);
},
{
closed = 1;
nodes = (
"634 327 LINE",
"643 371 OFFCURVE",
"661 390 OFFCURVE",
"687 390 CURVE SMOOTH",
"713 390 OFFCURVE",
"723 371 OFFCURVE",
"714 327 CURVE",
"714 326 LINE",
"634 326 LINE"
);
}
);
width = 963;
}
);
leftKerningGroup = o;
rightKerningGroup = e;
unicode = 0153;
userData = {
com.typemytype.robofont.guides = (
{
angle = 90;
isGlobal = 0;
magnetic = 5;
x = 51;
y = 0;
},
{
angle = 90;
isGlobal = 0;
magnetic = 5;
x = 495;
y = 0;
}
);
};
},
{
glyphname = p;
lastChange = "2016-09-09 11:28:50 +0000";
layers = (
{
layerId = UUID0;
paths = (
{
closed = 1;
nodes = (
"410 -10 OFFCURVE",
"481 116 OFFCURVE",
"511 232 CURVE SMOOTH",
"516 252 OFFCURVE",
"520 268 OFFCURVE",
"523 288 CURVE SMOOTH",
"541 405 OFFCURVE",
"507 530 OFFCURVE",
"352 530 CURVE SMOOTH",
"264 530 OFFCURVE",
"218 496 OFFCURVE",
"176 451 CURVE",
"186 498 LINE SMOOTH",
"189 511 OFFCURVE",
"181 520 OFFCURVE",
"168 520 CURVE SMOOTH",
"151 520 LINE SMOOTH",
"138 520 OFFCURVE",
"128 511 OFFCURVE",
"125 498 CURVE SMOOTH",
"-17 -168 LINE SMOOTH",
"-20 -181 OFFCURVE",
"-12 -190 OFFCURVE",
"1 -190 CURVE SMOOTH",
"18 -190 LINE SMOOTH",
"31 -190 OFFCURVE",
"41 -181 OFFCURVE",
"44 -168 CURVE SMOOTH",
"95 69 LINE",
"118 25 OFFCURVE",
"161 -10 OFFCURVE",
"249 -10 CURVE"
);
},
{
closed = 1;
nodes = (
"163 378 OFFCURVE",
"238 472 OFFCURVE",
"352 472 CURVE SMOOTH",
"461 472 OFFCURVE",
"476 384 OFFCURVE",
"461 288 CURVE SMOOTH",
"458 268 OFFCURVE",
"455 252 OFFCURVE",
"449 232 CURVE SMOOTH",
"421 137 OFFCURVE",
"358 48 OFFCURVE",
"249 48 CURVE SMOOTH",
"138 48 OFFCURVE",
"111 138 OFFCURVE",
"126 218 CURVE SMOOTH",
"130 238 OFFCURVE",
"138 276 OFFCURVE",
"143 296 CURVE SMOOTH"
);
}
);
width = 579;
},
{
layerId = "A0D8A2CD-35BA-4362-A7DB-C0E331BFD9A3";
paths = (
{
closed = 1;
nodes = (
"478 -10 OFFCURVE",
"574 63 OFFCURVE",
"613 220 CURVE SMOOTH",
"621 250 OFFCURVE",
"625 269 OFFCURVE",
"630 299 CURVE SMOOTH",
"659 466 OFFCURVE",
"573 530 OFFCURVE",
"457 530 CURVE SMOOTH",
"388 530 OFFCURVE",
"343 502 OFFCURVE",
"305 463 CURVE",
"311 493 LINE SMOOTH",
"314 508 OFFCURVE",
"305 520 OFFCURVE",
"290 520 CURVE SMOOTH",
"120 520 LINE SMOOTH",
"105 520 OFFCURVE",
"90 508 OFFCURVE",
"87 493 CURVE SMOOTH",
"-52 -163 LINE SMOOTH",
"-55 -178 OFFCURVE",
"-46 -190 OFFCURVE",
"-31 -190 CURVE SMOOTH",
"154 -190 LINE SMOOTH",
"169 -190 OFFCURVE",
"184 -178 OFFCURVE",
"187 -163 CURVE SMOOTH",
"232 50 LINE",
"253 7 OFFCURVE",
"306 -10 OFFCURVE",
"362 -10 CURVE SMOOTH"
);
},
{
closed = 1;
nodes = (
"358 191 OFFCURVE",
"344 169 OFFCURVE",
"307 169 CURVE SMOOTH",
"273 169 OFFCURVE",
"263 187 OFFCURVE",
"268 219 CURVE SMOOTH",
"272 249 OFFCURVE",
"275 263 OFFCURVE",
"284 293 CURVE SMOOTH",
"293 329 OFFCURVE",
"309 351 OFFCURVE",
"346 351 CURVE SMOOTH",
"383 351 OFFCURVE",
"387 329 OFFCURVE",
"384 293 CURVE SMOOTH",
"382 273 OFFCURVE",
"376 247 OFFCURVE",
"370 227 CURVE SMOOTH"
);
}
);
width = 661;
}
);
leftKerningGroup = n;
rightKerningGroup = b;
unicode = 0070;
},
{
glyphname = q;
lastChange = "2016-09-09 11:28:50 +0000";
layers = (
{
layerId = UUID0;
paths = (
{
closed = 1;
nodes = (
"296 -10 OFFCURVE",
"346 25 OFFCURVE",
"388 69 CURVE",
"338 -168 LINE SMOOTH",
"335 -181 OFFCURVE",
"342 -190 OFFCURVE",
"355 -190 CURVE SMOOTH",
"372 -190 LINE SMOOTH",
"385 -190 OFFCURVE",
"396 -181 OFFCURVE",
"399 -168 CURVE SMOOTH",
"540 498 LINE SMOOTH",
"543 511 OFFCURVE",
"536 520 OFFCURVE",
"523 520 CURVE SMOOTH",
"506 520 LINE SMOOTH",
"493 520 OFFCURVE",
"482 511 OFFCURVE",
"479 498 CURVE SMOOTH",
"469 451 LINE",
"446 496 OFFCURVE",
"398 530 OFFCURVE",
"315 530 CURVE SMOOTH",
"159 530 OFFCURVE",
"83 410 OFFCURVE",
"54 293 CURVE SMOOTH",
"49 273 OFFCURVE",
"43 247 OFFCURVE",
"40 227 CURVE SMOOTH",
"22 110 OFFCURVE",
"57 -10 OFFCURVE",
"213 -10 CURVE SMOOTH"
);
},
{
closed = 1;
nodes = (
"433 276 OFFCURVE",
"425 238 OFFCURVE",
"420 218 CURVE SMOOTH",
"401 138 OFFCURVE",
"324 48 OFFCURVE",
"213 48 CURVE SMOOTH",
"96 48 OFFCURVE",
"87 136 OFFCURVE",
"102 232 CURVE SMOOTH",
"105 252 OFFCURVE",
"108 268 OFFCURVE",
"114 288 CURVE SMOOTH",
"142 383 OFFCURVE",
"204 472 OFFCURVE",
"315 472 CURVE SMOOTH",
"429 472 OFFCURVE",
"451 378 OFFCURVE",
"436 296 CURVE SMOOTH"
);
}
);
width = 580;
},
{
layerId = "A0D8A2CD-35BA-4362-A7DB-C0E331BFD9A3";
paths = (
{
closed = 1;
nodes = (
"245 -10 OFFCURVE",
"286 7 OFFCURVE",
"325 50 CURVE",
"280 -163 LINE SMOOTH",
"277 -178 OFFCURVE",
"286 -190 OFFCURVE",
"301 -190 CURVE SMOOTH",
"486 -190 LINE SMOOTH",
"501 -190 OFFCURVE",
"516 -178 OFFCURVE",
"519 -163 CURVE SMOOTH",
"658 493 LINE SMOOTH",
"661 508 OFFCURVE",
"652 520 OFFCURVE",
"637 520 CURVE SMOOTH",
"467 520 LINE SMOOTH",
"452 520 OFFCURVE",
"437 508 OFFCURVE",
"434 493 CURVE SMOOTH",
"428 463 LINE",
"406 502 OFFCURVE",
"353 530 OFFCURVE",
"284 530 CURVE SMOOTH",
"168 530 OFFCURVE",
"76 466 OFFCURVE",
"33 299 CURVE SMOOTH",
"26 269 OFFCURVE",
"22 250 OFFCURVE",
"16 220 CURVE",
"-11 63 OFFCURVE",
"73 -10 OFFCURVE",
"189 -10 CURVE SMOOTH"
);
},
{
closed = 1;
nodes = (
"265 247 OFFCURVE",
"271 273 OFFCURVE",
"277 293 CURVE SMOOTH",
"288 329 OFFCURVE",
"302 351 OFFCURVE",
"339 351 CURVE SMOOTH",
"376 351 OFFCURVE",
"382 329 OFFCURVE",
"377 293 CURVE SMOOTH",
"372 263 OFFCURVE",
"369 249 OFFCURVE",
"361 219 CURVE SMOOTH",
"352 187 OFFCURVE",
"334 169 OFFCURVE",
"300 169 CURVE SMOOTH",
"263 169 OFFCURVE",
"259 191 OFFCURVE",
"263 227 CURVE SMOOTH"
);
}
);
width = 661;
}
);
leftKerningGroup = d;
rightKerningGroup = u;
unicode = 0071;
},
{
glyphname = r;
lastChange = "2016-09-09 11:28:50 +0000";
layers = (
{
layerId = UUID0;
paths = (
{
closed = 1;
nodes = (
"185 497 LINE SMOOTH",
"188 510 OFFCURVE",
"180 520 OFFCURVE",
"167 520 CURVE SMOOTH",
"151 520 LINE SMOOTH",
"138 520 OFFCURVE",
"127 510 OFFCURVE",
"124 497 CURVE SMOOTH",
"23 22 LINE SMOOTH",
"20 9 OFFCURVE",
"28 0 OFFCURVE",
"41 0 CURVE SMOOTH",
"57 0 LINE SMOOTH",
"70 0 OFFCURVE",
"81 9 OFFCURVE",
"84 22 CURVE SMOOTH",
"150 332 LINE SMOOTH",
"167 412 OFFCURVE",
"228 462 OFFCURVE",
"308 462 CURVE SMOOTH",
"351 462 LINE SMOOTH",
"364 462 OFFCURVE",
"375 471 OFFCURVE",
"377 484 CURVE SMOOTH",
"380 498 LINE SMOOTH",
"383 511 OFFCURVE",
"376 520 OFFCURVE",
"363 520 CURVE SMOOTH",
"326 520 LINE SMOOTH",
"259 520 OFFCURVE",
"206 497 OFFCURVE",
"175 451 CURVE"
);
}
);
width = 350;
},
{
layerId = "A0D8A2CD-35BA-4362-A7DB-C0E331BFD9A3";
paths = (
{
closed = 1;
nodes = (
"316 493 LINE SMOOTH",
"319 508 OFFCURVE",
"310 520 OFFCURVE",
"295 520 CURVE SMOOTH",
"120 520 LINE SMOOTH",
"105 520 OFFCURVE",
"90 508 OFFCURVE",
"87 493 CURVE SMOOTH",
"-12 27 LINE SMOOTH",
"-15 12 OFFCURVE",
"-5 0 OFFCURVE",
"10 0 CURVE SMOOTH",
"200 0 LINE SMOOTH",
"215 0 OFFCURVE",
"229 12 OFFCURVE",
"232 27 CURVE SMOOTH",
"280 250 LINE SMOOTH",
"288 290 OFFCURVE",
"312 310 OFFCURVE",
"352 310 CURVE SMOOTH",
"481 310 LINE SMOOTH",
"496 310 OFFCURVE",
"511 322 OFFCURVE",
"514 337 CURVE SMOOTH",
"547 493 LINE SMOOTH",
"550 508 OFFCURVE",
"541 520 OFFCURVE",
"526 520 CURVE SMOOTH",
"458 520 LINE SMOOTH",
"383 520 OFFCURVE",
"342 494 OFFCURVE",
"309 458 CURVE"
);
}
);
width = 519;
}
);
leftKerningGroup = n;
rightKerningGroup = r;
unicode = 0072;
},
{
glyphname = s;
lastChange = "2016-09-09 11:22:50 +0000";
layers = (
{
guideLines = (
{
position = "{-150, 265}";
},
{
position = "{-150, 139}";
},
{
angle = 90;
position = "{100, 0}";
}
);
hints = (
{
horizontal = 1;
place = "{-11, 0}";
type = Tag;
name = hr00;
}
);
layerId = UUID0;
paths = (
{
closed = 1;
nodes = (
"325 -10 OFFCURVE",
"409 59 OFFCURVE",
"426 139 CURVE SMOOTH",
"442 214 OFFCURVE",
"410 259 OFFCURVE",
"288 288 CURVE SMOOTH",
"168 317 OFFCURVE",
"146 340 OFFCURVE",
"156 385 CURVE SMOOTH",
"167 435 OFFCURVE",
"213 472 OFFCURVE",
"293 472 CURVE SMOOTH",
"373 472 OFFCURVE",
"390 443 OFFCURVE",
"405 411 CURVE SMOOTH",
"408 403 OFFCURVE",
"413 398 OFFCURVE",
"424 398 CURVE SMOOTH",
"439 398 LINE SMOOTH",
"451 398 OFFCURVE",
"464 407 OFFCURVE",
"465 420 CURVE SMOOTH",
"470 449 OFFCURVE",
"435 530 OFFCURVE",
"305 530 CURVE SMOOTH",
"185 530 OFFCURVE",
"110 455 OFFCURVE",
"95 385 CURVE SMOOTH",
"81 320 OFFCURVE",
"98 270 OFFCURVE",
"218 241 CURVE SMOOTH",
"338 212 OFFCURVE",
"376 194 OFFCURVE",
"365 139 CURVE SMOOTH",
"352 79 OFFCURVE",
"287 48 OFFCURVE",
"207 48 CURVE SMOOTH",
"127 48 OFFCURVE",
"99 79 OFFCURVE",
"81 114 CURVE SMOOTH",
"75 126 OFFCURVE",
"70 127 OFFCURVE",
"62 127 CURVE SMOOTH",
"47 127 LINE SMOOTH",
"38 127 OFFCURVE",
"23 120 OFFCURVE",
"21 105 CURVE SMOOTH",
"17 78 OFFCURVE",
"55 -10 OFFCURVE",
"195 -10 CURVE SMOOTH"
);
}
);
width = 492;
},
{
guideLines = (
{
position = "{350, 766}";
},
{
position = "{350, 710}";
},
{
position = "{350, -10}";
},
{
angle = 90;
position = "{656, 0}";
},
{
angle = 90;
position = "{927, 0}";
}
);
hints = (
{
horizontal = 1;
place = "{-2147483648, 0}";
type = Tag;
name = hr01;
},
{
horizontal = 1;
place = "{-2147483648, 0}";
type = Tag;
name = hr02;
}
);
layerId = "A0D8A2CD-35BA-4362-A7DB-C0E331BFD9A3";
paths = (
{
closed = 1;
nodes = (
"418 -10 OFFCURVE",
"532 55 OFFCURVE",
"555 162 CURVE SMOOTH",
"569 230 OFFCURVE",
"535 309 OFFCURVE",
"395 330 CURVE SMOOTH",
"295 345 OFFCURVE",
"291 357 OFFCURVE",
"295 374 CURVE SMOOTH",
"297 383 OFFCURVE",
"308 390 OFFCURVE",
"318 390 CURVE SMOOTH",
"347 390 OFFCURVE",
"356 360 OFFCURVE",
"385 360 CURVE SMOOTH",
"388 360 OFFCURVE",
"392 360 OFFCURVE",
"395 360 CURVE",
"553 360 LINE SMOOTH",
"565 360 OFFCURVE",
"578 372 OFFCURVE",
"580 387 CURVE SMOOTH",
"590 444 OFFCURVE",
"514 530 OFFCURVE",
"349 530 CURVE SMOOTH",
"184 530 OFFCURVE",
"78 445 OFFCURVE",
"60 359 CURVE SMOOTH",
"37 254 OFFCURVE",
"118 209 OFFCURVE",
"207 192 CURVE SMOOTH",
"302 174 OFFCURVE",
"305 162 OFFCURVE",
"301 145 CURVE SMOOTH",
"299 135 OFFCURVE",
"286 130 OFFCURVE",
"275 130 CURVE SMOOTH",
"244 130 OFFCURVE",
"235 157 OFFCURVE",
"209 160 CURVE SMOOTH",
"208 160 OFFCURVE",
"206 160 OFFCURVE",
"205 160 CURVE SMOOTH",
"31 160 LINE SMOOTH",
"17 160 OFFCURVE",
"4 148 OFFCURVE",
"1 133 CURVE SMOOTH",
"-7 80 OFFCURVE",
"46 -10 OFFCURVE",
"238 -10 CURVE SMOOTH"
);
}
);
width = 590;
}
);
leftKerningGroup = s;
rightKerningGroup = s;
unicode = 0073;
userData = {
com.typemytype.robofont.guides = (
{
angle = 0;
isGlobal = 0;
magnetic = 5;
x = 0;
y = 265;
},
{
angle = 0;
isGlobal = 0;
magnetic = 5;
x = 0;
y = 139;
},
{
angle = 90;
isGlobal = 0;
magnetic = 5;
x = 250;
y = 0;
}
);
};
},
{
glyphname = scedilla;
lastChange = "2016-09-09 11:26:23 +0000";
layers = (
{
hints = (
{
horizontal = 1;
place = "{-11, 0}";
type = Tag;
name = hr00;
}
);
layerId = UUID0;
paths = (
{
closed = 1;
nodes = (
"210 -221 OFFCURVE",
"250 -180 OFFCURVE",
"260 -132 CURVE SMOOTH",
"270 -84 OFFCURVE",
"246 -50 OFFCURVE",
"202 -50 CURVE SMOOTH",
"187 -50 OFFCURVE",
"171 -53 OFFCURVE",
"162 -58 CURVE",
"195 -10 LINE",
"325 -10 OFFCURVE",
"409 59 OFFCURVE",
"426 139 CURVE SMOOTH",
"442 214 OFFCURVE",
"410 259 OFFCURVE",
"288 288 CURVE SMOOTH",
"168 317 OFFCURVE",
"146 340 OFFCURVE",
"156 385 CURVE SMOOTH",
"167 435 OFFCURVE",
"213 472 OFFCURVE",
"293 472 CURVE SMOOTH",
"373 472 OFFCURVE",
"390 443 OFFCURVE",
"405 411 CURVE SMOOTH",
"408 403 OFFCURVE",
"413 398 OFFCURVE",
"424 398 CURVE",
"439 398 LINE",
"451 398 OFFCURVE",
"464 407 OFFCURVE",
"465 420 CURVE SMOOTH",
"470 449 OFFCURVE",
"435 530 OFFCURVE",
"305 530 CURVE SMOOTH",
"185 530 OFFCURVE",
"110 455 OFFCURVE",
"95 385 CURVE SMOOTH",
"81 320 OFFCURVE",
"98 270 OFFCURVE",
"218 241 CURVE SMOOTH",
"338 212 OFFCURVE",
"376 194 OFFCURVE",
"365 139 CURVE SMOOTH",
"352 79 OFFCURVE",
"287 48 OFFCURVE",
"207 48 CURVE SMOOTH",
"127 48 OFFCURVE",
"99 79 OFFCURVE",
"81 114 CURVE SMOOTH",
"75 126 OFFCURVE",
"70 127 OFFCURVE",
"62 127 CURVE",
"47 127 LINE",
"38 127 OFFCURVE",
"23 120 OFFCURVE",
"21 105 CURVE SMOOTH",
"16 81 OFFCURVE",
"45 13 OFFCURVE",
"143 -5 CURVE",
"112 -53 LINE",
"106 -63 OFFCURVE",
"95 -75 OFFCURVE",
"101 -83 CURVE",
"113 -100 LINE",
"125 -116 OFFCURVE",
"142 -96 OFFCURVE",
"174 -96 CURVE SMOOTH",
"197 -96 OFFCURVE",
"214 -110 OFFCURVE",
"209 -134 CURVE SMOOTH",
"203 -159 OFFCURVE",
"180 -174 OFFCURVE",
"157 -174 CURVE SMOOTH",
"113 -174 OFFCURVE",
"113 -140 OFFCURVE",
"93 -156 CURVE",
"76 -169 LINE",
"57 -184 OFFCURVE",
"91 -219 OFFCURVE",
"147 -220 CURVE SMOOTH"
);
}
);
width = 492;
},
{
hints = (
{
horizontal = 1;
place = "{-2147483648, 0}";
type = Tag;
name = hr01;
}
);
layerId = "A0D8A2CD-35BA-4362-A7DB-C0E331BFD9A3";
paths = (
{
closed = 1;
nodes = (
"253 -220 OFFCURVE",
"300 -183 OFFCURVE",
"312 -130 CURVE SMOOTH",
"323 -77 OFFCURVE",
"301 -40 OFFCURVE",
"250 -40 CURVE SMOOTH",
"246 -40 OFFCURVE",
"227 -42 OFFCURVE",
"219 -45 CURVE",
"244 -10 LINE",
"421 -8 OFFCURVE",
"532 56 OFFCURVE",
"555 162 CURVE SMOOTH",
"569 230 OFFCURVE",
"535 309 OFFCURVE",
"395 330 CURVE SMOOTH",
"295 345 OFFCURVE",
"291 357 OFFCURVE",
"295 374 CURVE SMOOTH",
"297 383 OFFCURVE",
"308 390 OFFCURVE",
"318 390 CURVE SMOOTH",
"347 390 OFFCURVE",
"356 360 OFFCURVE",
"385 360 CURVE",
"388 360 OFFCURVE",
"390 360 OFFCURVE",
"393 360 CURVE",
"553 360 LINE",
"565 360 OFFCURVE",
"578 372 OFFCURVE",
"580 387 CURVE SMOOTH",
"590 444 OFFCURVE",
"514 530 OFFCURVE",
"349 530 CURVE SMOOTH",
"184 530 OFFCURVE",
"78 445 OFFCURVE",
"60 359 CURVE SMOOTH",
"37 254 OFFCURVE",
"118 209 OFFCURVE",
"207 192 CURVE SMOOTH",
"302 174 OFFCURVE",
"305 162 OFFCURVE",
"301 145 CURVE SMOOTH",
"299 135 OFFCURVE",
"286 130 OFFCURVE",
"275 130 CURVE SMOOTH",
"242 130 OFFCURVE",
"234 160 OFFCURVE",
"205 160 CURVE",
"202 160 OFFCURVE",
"200 160 OFFCURVE",
"197 160 CURVE",
"31 160 LINE",
"17 160 OFFCURVE",
"4 148 OFFCURVE",
"1 133 CURVE SMOOTH",
"-7 85 OFFCURVE",
"35 9 OFFCURVE",
"182 -7 CURVE",
"152 -52 LINE",
"139 -71 OFFCURVE",
"140 -76 OFFCURVE",
"147 -85 CURVE",
"164 -106 LINE",
"174 -119 OFFCURVE",
"200 -106 OFFCURVE",
"218 -106 CURVE SMOOTH",
"238 -106 OFFCURVE",
"243 -118 OFFCURVE",
"241 -130 CURVE SMOOTH",
"238 -142 OFFCURVE",
"226 -154 OFFCURVE",
"207 -154 CURVE SMOOTH",
"173 -154 OFFCURVE",
"172 -136 OFFCURVE",
"152 -151 CURVE",
"127 -169 LINE",
"100 -189 OFFCURVE",
"140 -220 OFFCURVE",
"193 -220 CURVE SMOOTH"
);
}
);
width = 590;
}
);
leftKerningGroup = s;
rightKerningGroup = s;
unicode = 015F;
},
{
glyphname = t;
lastChange = "2016-09-09 11:28:50 +0000";
layers = (
{
layerId = UUID0;
paths = (
{
closed = 1;
nodes = (
"247 0 LINE SMOOTH",
"260 0 OFFCURVE",
"270 9 OFFCURVE",
"273 22 CURVE SMOOTH",
"276 36 LINE SMOOTH",
"279 49 OFFCURVE",
"272 58 OFFCURVE",
"259 58 CURVE SMOOTH",
"199 58 LINE SMOOTH",
"124 58 OFFCURVE",
"134 100 OFFCURVE",
"149 171 CURVE SMOOTH",
"211 462 LINE",
"335 462 LINE SMOOTH",
"348 462 OFFCURVE",
"359 471 OFFCURVE",
"361 484 CURVE SMOOTH",
"364 498 LINE SMOOTH",
"367 511 OFFCURVE",
"360 520 OFFCURVE",
"347 520 CURVE SMOOTH",
"223 520 LINE",
"259 688 LINE SMOOTH",
"262 701 OFFCURVE",
"254 710 OFFCURVE",
"241 710 CURVE SMOOTH",
"224 710 LINE SMOOTH",
"211 710 OFFCURVE",
"201 701 OFFCURVE",
"198 688 CURVE SMOOTH",
"162 520 LINE",
"84 520 LINE SMOOTH",
"71 520 OFFCURVE",
"60 511 OFFCURVE",
"57 498 CURVE SMOOTH",
"54 484 LINE SMOOTH",
"52 471 OFFCURVE",
"59 462 OFFCURVE",
"72 462 CURVE SMOOTH",
"150 462 LINE",
"87 167 LINE SMOOTH",
"67 73 OFFCURVE",
"68 0 OFFCURVE",
"198 0 CURVE SMOOTH"
);
}
);
width = 351;
},
{
layerId = "A0D8A2CD-35BA-4362-A7DB-C0E331BFD9A3";
paths = (
{
closed = 1;
nodes = (
"415 0 LINE SMOOTH",
"430 0 OFFCURVE",
"444 12 OFFCURVE",
"447 27 CURVE SMOOTH",
"475 158 LINE SMOOTH",
"478 173 OFFCURVE",
"469 185 OFFCURVE",
"454 185 CURVE SMOOTH",
"363 185 LINE SMOOTH",
"333 185 OFFCURVE",
"324 204 OFFCURVE",
"330 235 CURVE SMOOTH",
"354 345 LINE",
"480 345 LINE SMOOTH",
"495 345 OFFCURVE",
"509 357 OFFCURVE",
"513 372 CURVE SMOOTH",
"538 493 LINE SMOOTH",
"541 508 OFFCURVE",
"532 520 OFFCURVE",
"517 520 CURVE SMOOTH",
"391 520 LINE",
"426 683 LINE SMOOTH",
"429 698 OFFCURVE",
"419 710 OFFCURVE",
"404 710 CURVE SMOOTH",
"229 710 LINE SMOOTH",
"214 710 OFFCURVE",
"200 698 OFFCURVE",
"197 683 CURVE SMOOTH",
"162 520 LINE",
"83 520 LINE SMOOTH",
"68 520 OFFCURVE",
"53 508 OFFCURVE",
"50 493 CURVE SMOOTH",
"25 372 LINE SMOOTH",
"21 357 OFFCURVE",
"31 345 OFFCURVE",
"46 345 CURVE SMOOTH",
"125 345 LINE",
"97 215 LINE SMOOTH",
"62 51 OFFCURVE",
"167 0 OFFCURVE",
"312 0 CURVE SMOOTH"
);
}
);
width = 529;
}
);
leftKerningGroup = t;
rightKerningGroup = t;
unicode = 0074;
},
